/* XPM */
static char *ado[] = {
/* columns rows colors chars-per-pixel */
"110 50 254 2",
"   c #000000",
".  c #0B0200",
"X  c #040B01",
"o  c #0C0900",
"O  c #00020C",
"+  c #130300",
"@  c #1A0200",
"#  c #170900",
"$  c #1B0A00",
"%  c #051200",
"&  c #0B1501",
"*  c #0C1900",
"=  c #161700",
"-  c #1B1400",
";  c #151C00",
":  c #1B1900",
">  c #010D11",
",  c #051617",
"<  c #220B00",
"1  c #2D0C00",
"2  c #241500",
"3  c #2C1300",
"4  c #321501",
"5  c #351A00",
"6  c #3B1E02",
"7  c #231F12",
"8  c #172200",
"9  c #1D2300",
"0  c #0E201A",
"q  c #12291F",
"w  c #2A2500",
"e  c #282600",
"r  c #242B00",
"t  c #3C2304",
"y  c #392807",
"u  c #2C3400",
"i  c #333700",
"p  c #343A00",
"a  c #3B3C00",
"s  c #262214",
"d  c #2F3014",
"f  c #091D24",
"g  c #122620",
"h  c #172B20",
"j  c #223226",
"k  c #2D3F2C",
"l  c #273D34",
"z  c #432500",
"x  c #4A2B0B",
"c  c #443600",
"v  c #473A00",
"b  c #4D3D00",
"n  c #533300",
"m  c #503C00",
"M  c #5C3A00",
"N  c #5A3A0F",
"B  c #4D3513",
"V  c #5A3B13",
"C  c #613E00",
"Z  c #623F13",
"A  c #3B4100",
"S  c #33401C",
"D  c #37452E",
"F  c #394B35",
"G  c #3E5033",
"H  c #434300",
"J  c #494700",
"K  c #4C4C00",
"L  c #544300",
"P  c #5A4700",
"I  c #5F4B00",
"U  c #555400",
"Y  c #5C5500",
"T  c #5C5900",
"R  c #57431F",
"E  c #664507",
"W  c #684200",
"Q  c #634F00",
"!  c #6C4B00",
"~  c #734C00",
"^  c #655100",
"/  c #6A5400",
"(  c #645C00",
")  c #6B5C00",
"_  c #735600",
"`  c #7B5500",
"'  c #735B00",
"]  c #7A5D00",
"[  c #694618",
"{  c #78551B",
"}  c #666100",
"|  c #7C6200",
" . c #746800",
".. c #7D6B00",
"X. c #7F7100",
"o. c #535828",
"O. c #464E34",
"+. c #554D33",
"@. c #485839",
"#. c #6F4A20",
"$. c #655128",
"%. c #54643D",
"&. c #5D673A",
"*. c #7C7A25",
"=. c #686A34",
"-. c #7F6534",
";. c #6E753E",
":. c #274641",
">. c #3C5140",
",. c #546644",
"<. c #5A6F54",
"1. c #6C7749",
"2. c #727A4B",
"3. c #627662",
"4. c #865E06",
"5. c #805D1F",
"6. c #806600",
"7. c #8A6600",
"8. c #846A01",
"9. c #8B6D00",
"0. c #876E0E",
"q. c #906400",
"w. c #847200",
"e. c #8D7100",
"r. c #8D7308",
"t. c #927500",
"y. c #967A00",
"u. c #997D00",
"i. c #886F10",
"p. c #8A7314",
"a. c #8D761A",
"s. c #947B14",
"d. c #805B24",
"f. c #896528",
"g. c #887824",
"h. c #927C24",
"j. c #937D28",
"k. c #8E6F31",
"l. c #976C33",
"z. c #9B7837",
"x. c #9C7A36",
"c. c #A17E3B",
"v. c #877946",
"b. c #9C7B42",
"n. c #788356",
"m. c #9D8100",
"M. c #98831A",
"N. c #A18500",
"B. c #A58A00",
"V. c #A98E00",
"C. c #928222",
"Z. c #9C8734",
"A. c #9D853B",
"S. c #A38C2A",
"D. c #A38831",
"F. c #A18B3B",
"G. c #A79438",
"H. c #A9923D",
"J. c #B5923C",
"K. c #BCA422",
"L. c #D6BC17",
"P. c #E0C92E",
"I. c #E6CF36",
"U. c #8F9049",
"Y. c #878756",
"T. c #999657",
"R. c #A18E42",
"E. c #AA8C48",
"W. c #A49146",
"Q. c #AB9444",
"!. c #AD9943",
"~. c #A5934B",
"^. c #AB964A",
"/. c #AC9A4A",
"(. c #B7954A",
"). c #B49D4B",
"_. c #A79551",
"`. c #A99650",
"'. c #AB9A54",
"]. c #A29A5D",
"[. c #AD9D5B",
"{. c #B09D53",
"}. c #B99B51",
"|. c #B19E5A",
" X c #B5A14E",
".X c #A9A35C",
"XX c #B3A255",
"oX c #B9A353",
"OX c #B3A25C",
"+X c #BAA55A",
"@X c #BBAA5E",
"#X c #8C9262",
"$X c #AF9F60",
"%X c #98A376",
"&X c #B2A264",
"*X c #B9A661",
"=X c #B4AE67",
"-X c #BDAB64",
";X c #B5A66A",
":X c #B7A86F",
">X c #BCAB69",
",X c #B7A970",
"<X c #B9AB74",
"1X c #BBAE78",
"2X c #BDB077",
"3X c #BEB17C",
"4X c #CAB558",
"5X c #C1AA66",
"6X c #C1AE67",
"7X c #C5B56A",
"8X c #C1AF72",
"9X c #C8B874",
"0X c #C2B57E",
"qX c #C7B87A",
"wX c #EAD548",
"eX c #D7C877",
"rX c #F4E471",
"tX c #F3E47B",
"yX c #BBAF82",
"uX c #BFB380",
"iX c #C2B583",
"pX c #C5B985",
"aX c #C9BC83",
"sX c #C7BB88",
"dX c #CDC085",
"fX c #CEC288",
"gX c #D2C587",
"hX c #D5C98E",
"jX c #D4C990",
"kX c #DACE92",
"lX c #DFD497",
"zX c #E0D69C",
"xX c #E4D99D",
"cX c #F4E783",
"vX c #F5E887",
"bX c #F5E98B",
"nX c #F7EA93",
"mX c #F7EC99",
"MX c #F8ED9E",
"NX c #D2CAA6",
"BX c #E6DDA2",
"VX c #E8DEA2",
"CX c #EDE2A6",
"ZX c #ECE2AB",
"AX c #F7ECA0",
"SX c #F8EEA4",
"DX c #F1E8AB",
"FX c #F8EFA9",
"GX c #F3EAB0",
"HX c #F5EDBB",
"JX c #E2DCC5",
"KX c #F8F1C3",
"LX c #F8F2C9",
"PX c #FFFFFF",
/* pixels */
"PXPXPXPXyXh.t.e.t.t.t.t.t.t.t.t.t.t.t.y.y.y.y.y.y.y.y.y.u.u.u.u.u.u.u.u.u.u.u.u.u.u.u.y.y.y.u.y.y.y.y.y.y.y.y.y.y.y.y.y.y.y.y.y.y.y.y.y.y.y.y.y.y.y.y.y.y.y.y.y.u.u.u.u.u.m.m.m.m.m.m.N.N.N.N.B.B.B.B.B.V.N.e.| h.iXPXPXPXPX",
"PXPXJX' u.P.rXtXtXtXtXtXtXtXtXtXcXcXcXcXcXvXvXvXvXbXbXbXbXbXbXbXbXbXbXbXbXbXbXbXbXbXbXbXbXbXbXbXbXbXbXbXbXbXvXvXvXvXvXvXvXvXvXvXvXvXvXvXvXvXvXvXvXvXvXvXvXvXbXbXbXbXnXnXnXnXmXmXmXMXMXMXAXAXSXSXSXSXFXFXFXSXtXL.t./ | JXPXPX",
"PXJX/ m.rXLXHXHXHXHXHXHXHXHXHXHXHXHXHXHXHXHXHXHXHXHXHXHXHXHXHXHXHXHXHXHXHXHXHXHXHXHXHXHXHXHXHXHXHXHXHXHXHXHXHXHXHXHXHXHXHXHXHXHXHXHXHXHXHXHXHXHXHXHXHXHXHXHXHXHXHXHXHXHXHXHXHXHXHXHXHXHXHXHXHXHXHXHXHXHXHXHXHXKXwXm.] _ JXPX",
"PX8.] wXKXGXGXGXGXGXGXGXGXGXGXGXGXGXGXGXGXGXGXGXGXGXGXGXGXGXGXGXGXGXGXGXGXGXGXGXGXGXGXGXGXGXGXGXGXGXGXGXGXGXGXGXGXGXGXGXGXGXGXGXGXGXGXGXGXGXGXGXGXGXGXGXGXGXGXGXGXGXGXGXGXGXGXGXGXGXGXGXGXGXGXGXGXGXGXGXGXGXGXGXKXI.| | 8.PX",
"NX_ m.AXDXDXDXDXDXDXDXDXDXDXDXDXDXDXDXDXDXDXDXDXDXDXDXDXDXDXDXDXDXDXDXDXDXDXDXDXDXDXDXDXDXDXDXDXDXDXDXDXDXDXDXDXDXDXDXDXDXDXDXDXDXDXDXDXDXDXDXDXDXDXDXDXDXDXDXDXDXDXDXDXDXDXDXDXDXDXDXDXDXDXDXDXDXDXDXDXDXDXDXDXDXFX9.| ' NX",
"W.' K.HXCXCXCXCXCXCXCXCXCXCXCXCXCXCXCXCXCXCXCXCXCXCXCXCXCXCXCXCXCXCXCXCXCXCXCXCXCXCXCXCXCXCXCXCXCXCXCXCXCXCXCXCXCXCXCXCXCXCXCXCXCXCXCXCXCXCXCXCXCXCXCXCXCXCXCXCXCXCXCXCXCXCXCXCXCXCXCXCXCXCXCXCXCXCXCXCXCXCXCXCXCXHXs.| | W.",
"p.] 4XZXVXVXVXVXVXVXVXVXVXVXVXVXVXVXVXVXVXVXVXVXVXVXVXVXVXVXVXVXVXVXVXVXVXVXVXVXVXVXVXVXVXVXVXVXVXVXVXVXVXVXVXVXVXVXVXVXVXVXVXVXVXVXVXVXVXVXVXVXVXVXVXVXVXVXVXVXVXVXVXVXVXVXVXVXVXVXVXVXVXVXVXVXVXVXVXVXVXVXVXVXVXDXM.| | p.",
"6.] eXBXxXxXxXxXxXxXxXxXxXxXxXxXxXxXxXxXxXxXxXxXxXxXxXxXxXxXxXxXxXxXxXxXxXxXxXxXxXxXxXxXxXxXxXxXxXxXxXxXxXxXxXxXxXxXxXxXxXxXxXxXxXxXxXxXxXxXxXxXxXxXxXxXxXxXxXxXxXxXxXxXxXxXxXxXxXxXxXxXxXxXxXxXxXxXxXxXxXxXxXxXxXZXS.| | 6.",
"| | gXzXlXlXlXlXlXlXlXlXlXlXlXlXlXlXlXlXlXlXlXlXlXlXlXlXlXlXlXlXlXlXlXlXlXlXlXlXlXlXlXlXlXlXlXlXlXlXlXlXlXlXlXlXlXlXlXlXlXlXlXlXlXlXlXlXlXlXlXlXlXlXlXlXlXlXlXlXlXlXlXlXlXlXlXlXlXlXlXlXlXlXlXlXlXlXlXlXlXlXlXlXlXBXS.| 6.| ",
"| | gXlXkXkXkXkXkXkXkXkXkXkXkXkXkXkXkXkXkXkXkXkXkXkXkXkXkXkXkXkXkXkXkXkXkXkXkXkXkXkXkXkXkXkXkXkXkXkXkXkXkXkXkXkXkXkXkXkXkXkXkXkXkXkXkXkXkXkXkXkXkXkXkXkXkXkXkXkXkXkXkXkXkXkXkXkXkXkXkXkXkXkXkXkXkXkXkXkXkXkXkXkXkXzXG.| 6.6.",
"| | dXjXhXhXhXhXhXhXhXhXhXhXhXhXhXhXhXhXhXhXhXhXhXhXhXhXhXhXhXhXhXhXhXhXhXhXhXhXhXhXhXhXhXhXhXhXhXhXhXhXhXhXhXhXhXhXhXhXhXhXhXhXhXhXhXhXhXhXhXhXhXhXhXhXhXhXhXhXhXhXhXhXhXhXhXhXhXhXhXhXhXhXhXhXhXhXhXhXhXhXhXhXhXkXH.| 6.6.",
"| | qXfXfXfXfXfXfXfXfXfXfXfXfXfXfXfXfXfXfXfXfXfXfXfXfXfXfXfXfXfXfXfXfXfXfXfXfXfXfXfXfXfXfXfXfXfXfXfXfXfXfXfXfXfXfXfXfXfXfXfXfXfXfXfXfXfXfXfXfXfXfXfXfXfXfXfXfXfXfXfXfXfXfXfXfXfXfXfXfXfXfXfXfXfXfXfXfXfXfXfXfXfXfXjXQ.| 6.6.",
"| ] >XaXaXaXaXaXaXaXaXaXaXaXaXaXaXaXaXaXaXaXaXaXaXaXaXaXaXaXaXaXaXaXaXaXaXaXaXaXaXaXaXaXaXaXaXaXaXaXaXaXaXaXaXaXaXaXaXaXaXaXaXaXaXaXaXaXaXaXaXaXaXaXaXaXaXaXaXaXaXaXaXaXaXaXaXaXaXaXaXaXaXaXaXaXaXaXaXaXaXaXaXaXaXfXQ.| 6.6.",
"| | OXpX0X0X0X0X0X0X0X0X0X0X0X0X0X0X0X0X0X0X0X0X0X0X0X0X0X0X0X0X0X0X0X0X0X0X0X0X0X0X0X0X0X0X0X0X0X0X0X0X0X0X0X0X0X0X0X0X0X0X0X0X0X0X0X0X0X0X0X0X0X0X0X0X0X0X0X0X0X0X0X0X0X0X0X0X0X0X0X0X0X0X0X0X0X0X0X0X0X0XiXpXsXsXF.| 6.6.",
"6.] [.3X1X1X1X1X1X1X1X1X1X1X1X1X1X1X1X1X1X1X1X1X1X1X1X1X1X1X0XfX0X1X1X1X1X1X1X1X1X1X1X1X1X1X1X1X1X1X1X1X1X1X1X1X1X1X1X1X1X1X1X1X1X1X1X1X1X1X1X1X1X1X1X1X1X1X1X1X1X1X1X1X1X1X1X1X1X1X1X1XaXqX1X1X1X1X1X3XuXiX1X`.j.8.| | 6.6.",
"6.| '.1X<X<X<X<X<X<X<X<X<X<X<X<X<X<X<X<X<X<X<X<X<X<X<X<X<X3Xb.  %X1X<X<X<X<X<X<X<X<X<X<X<X<X<X<X<X<X<X<X<X<X<X<X<X<X<X<X<X<X<X<X<X<X<X<X<X<X<X<X<X<X<X<X<X<X<X<X<X<X<X<X<X<X<X<X<X<X<X9X@ :.qX<X1X3X1X&XA.i.| | | | | 6.6.6.",
"6.| _.<X:X:X:X:X:X:X:X:X:X,X0XqX<X:X:X:X:X:X:X:X:X:X:X:X,X9X1   3.8X:X:X:X:X:X:X:X:X:X:X:X:X:X:X:X:X:X:X:X:X:X:X:X:X:X:X:X:X:X:X:X:X:X:X:X:X:X:X:X:X:X:X:X:X:X:X:X:X:X:X:X:X:X:X:X:X2Xl.  f aX;XW.h.8.| | | | | 6.6.6.6.6.6.",
"6.| ~.,X;X;X;X;X;X;X;X;X;X8X#.  #X>X;X;X;X;X;X;X;X;X;X;X:X5X.   %X>X;X;X;X;X;X;X;X;X;X;X;X;X;X;X;X;X;X;X;X;X;X;X;X;X;X;X;X;X;X;X;X;X;X;X;X;X;X;X;X;X;X;X;X;X;X;X;X;X;X;X;X;X;X;X:X,X0X[   d s.| | | | | 6.6.6.6.6.6.6.6.6.6.",
"6.| j.:X;X&X&X&X&X&X&X&X;X(.    <.>X&X&X&X&X&X&X&X&X&X&X;XE.  , 7X&X&X&X&X&X&X&X&X&X&X&X&X&X&X&X&X&X&X&X&X&X&X&X&X&X&X&X&X&X&X&X&X&X&X&X&X&X&X&X&X&X&X&X&X&X&X&X&X&X&X&X;X;X:X;X'.Z.s.3   U 8.| | 6.6.6.6.6.6.6.6.6.6.6.6.6.",
"6.| | 6.~.;X&X&X&X&X&X&X6Xt     l 6X&X&X&X&X&X&X&X&X&X&X;Xf.  >.-X&X&X&X&X&X&X&X&X&X*X&X&X&X&X&X>X>X*X&X&X&X&X&X&X&X&X&X&X&X&X&X&X&X&X&X&X;X>X*X&X&X&X&X&X&X>X>X>X;X;X&X'.A.a.6.| | 7..   8.6.6.6.6.6.6.6.6.6.6.6.6.6.6.6.6.",
"6.6.| | | a.'.&X[.[.[.&Xc.  X   O =X[.[.[.[.[.[.[.OX-X6X7XV   2.OXOXv.T.OX[.[.[.&X_.v.].|.[.&X|.R s Y.*X[.[.&X-XOX[.[.&X*X|.[.[.[.[.[.[.-X-.7 1.*X[.[.[.&X+X$.s O.H.a.6.| | | 8.e.e.6.  * 9.6.6.6.6.6.6.6.6.6.6.6.6.6.6.6.6.",
"6.6.6.6.| | | h.[.[.[.-X4   n.1   n.OX[.[.[.[.[.OXE.y   D 6   T.OXz.  f @X[.[.[.}..   F +X*Xx.      > Y.OXOXA.  n.OX-X-.+..X|.[.[.[.[.-XV       T.OX$XOXQ.+       u 8.| | 6.9.m   X b   u 9.6.6.6.6.6.6.6.6.6.6.6.6.6.6.6.6.",
"6.6.6.6.6.6.| | | j.[.z.  O 7X[   k +X'.'.'.'.OXk.          > OX|.f.  , +X'.'.+X4   O T.OXR.    O.B   , +XOXx   @.4X6     , .X'.'.'.OXd.  , R   D D.p.7..   ; P   X 9.6.6.9.@           K 8.6.6.6.6.6.6.6.6.6.6.6.6.6.6.6.6.",
"6.6.6.6.6.6.6.6.| | t.<   ,.+Xx.  O XX`._._.'.c.    F `.x   q oX'.x.  > XX`.[.f.    T.{.oX+   @.@Xl.  j oXXXx   ,.[         1.{.'.[.).    *.4.  9 8.9.6   ; t.7.  ; 9.6.e.<   X ) !     } 8.6.6.6.6.6.6.6.6.6.6.6.6.6.6.6.6.",
"6.6.6.6.6.6.6.6.6.8.C     M.H.(..   2.^.~.~.).+   %.oXXX[   D ).~.Q..   T.^.).    1.).'.Z   g oX'.[   @.).XXt   =.    .Xx   G H.j.s.z   u 9.9.+ Y 8.7.    w.9.$   T 8.8.n   X w.8.7.    X.6.6.6.6.6.6.6.6.6.6.6.6.6.6.6.6.6.",
"6.6.6.6.6.6.6.6.6.9..   9 M . .     j ).W.^.{   0  XW.).@   @.^.W.).3   1. XZ   h ).W.H.    U.^.).+   %.^.{.5   d   =.S.E   9 9.| 7..    .8.6.9.8.8.n   u !     i 9.6.7.    ) 8.9.M   X e.6.6.6.6.6.6.6.6.6.6.6.6.6.6.6.6.6.",
"6.6.6.6.6.6.6.6.9.z           o o     g.F.).@   2.Q./.Z     &.Q.R.^.[   k J.    U.W.~.{   h )./.N     ;.F.S.@     r 9.6.!   * 9.8.W   * 9.6.6.6.6.9.4         J e.9.9.M   8 9.8.7.    % 9.6.6.6.6.6.6.6.6.6.6.6.6.6.6.6.6.6.",
"6.6.6.6.6.6.6.8.]     e w / | e.y.<   r 9.7.    G.!.5.      =.Q.W.R.D.  , N   D !.R./.x   o.G.{       U 8.7..     ..6.8.`     e.t.z   i 9.6.6.8.e.9.3   = v ..9.t.3 T z   K 9.9.+     * t.8.6.6.6.6.6.6.6.6.6.6.6.6.6.6.6.6.",
"6.6.6.6.6.6.6.9.<   & t.9.8.6.6.8.W     ( q.    | n   & E   S f.o.Z.D.<       C.p.0.r.3   H C   X P   J 9.`     A 9.6.6.7.    w a z   a e.8.e.M   w.5   a u.e.] #    .6   H ] .   ^ .   8.t | 6.6.6.6.6.6.6.6.6.6.6.6.6.6.6.",
"6.6.6.6.6.6.8.!     ( 8.6.6.6.6.6.9.+     ..+       X ..~       u 8.8.n     p 9.| | 8.z         ..W   % ..~     ..6.6.6.e.3     p n   X Q P #   r e.C     : -     H e.M         K y.+       ..6.6.6.6.6.6.6.6.6.6.6.6.6.6.6.",
"6.6.6.6.6.6.6.] . u 9.6.6.6.6.6.6.8.`     } ` .   p 8.8.e.4   H 9.6.8.!     ..6.6.6.6.8.2   r 8.8.7.    K 7.. r 9.6.6.6.6.6.c J 9.4.          i e.6.e.5         T 9.6.9.6   = ( 9.8.!   = ..8.6.6.6.6.6.6.6.6.6.6.6.6.6.6.6.",
"6.6.6.6.6.6.6.6.e.9.6.6.6.6.6.6.6.6.8.] ^ 8.8.e.e.9.6.6.6.9.e.8.6.6.6.9.t Y 8.6.6.6.6.6.9.e.9.6.6.8._ Y 9.6.e.9.6.6.6.6.6.6.9.8.6.8.] 2 - w ' 9.6.6.6.e./ I ^ e.8.6.6.6.9.e.9.8.6.6.8.e.9.6.6.6.6.6.6.6.6.6.6.6.6.6.6.6.6.6.",
"6.6.6.6.6.6.6.6.6.6.6.6.6.6.6.6.6.6.6.8.8.6.6.6.6.6.6.6.6.6.6.6.6.6.6.6.9.8.6.6.6.6.6.6.6.6.6.6.6.6.8.8.6.6.6.6.6.6.6.6.6.6.6.6.6.6.8.9.9.9.8.6.6.6.6.6.8.8.8.6.6.6.6.6.6.6.6.6.6.6.6.6.6.6.6.6.6.6.6.6.6.6.6.6.6.6.6.6.6.6.",
"6.6.6.6.6.6.6.6.6.6.6.6.6.6.6.6.6.6.6.6.6.6.6.6.6.6.6.6.6.6.6.6.6.6.6.6.6.6.6.6.6.6.6.6.6.6.6.6.6.6.6.6.6.6.6.6.6.6.6.6.6.6.6.6.6.6.6.6.6.6.6.6.6.6.6.6.6.6.6.6.6.6.6.6.6.6.6.6.6.6.6.6.6.6.6.6.6.6.6.6.6.6.6.6.6.6.6.6.6.6.",
"6.6.6.6.6.6.6.6.6.6.6.6.6.6.6.6.6.6.6.6.6.6.6.6.6.6.6.6.6.6.6.6.6.6.6.6.6.6.6.6.6.6.6.6.6.6.6.6.6.6.6.6.6.6.6.6.6.6.6.6.6.6.6.6.6.6.6.6.6.6.6.6.6.6.6.6.6.6.6.6.6.6.6.6.6.6.6.6.6.6.6.6.6.6.6.6.6.6.6.6.6.6.6.6.6.6.6.6.6.6.",
"6.| | | | | | | | | | | | | | | | | | | | | | | | | | | | | | | | | | | | | | | | | | | | | | | | | | | | | | | | | | | | | | | | | | | | | | | | | | | | | | | | | | | | | | | | | | | | | | | | | | | | | | | | | | | 6.6.",
"6.| | | | | | | | | | | | | | | | | | | | | | | | | | | | | | | | | | | | | | | | | | | | | | | | | | | | | | | | | | | | | | | | | | | | | | | | | | | | | | | | | | | | | | | | | | | | | | | | | | | | | | | | | | | 6.6.",
"6.] ' ' ' ' ' ' ' ' ' ' ' ' ' ' ' ' ' ' ' ' ' ' ' ' ' ' ' ' ' ' ' ' ' ' ' ' ' ' ' ' ' ' ' ' ' ' ' ' ' ' ' ' ' ' ' ' ' ' ' ' ' ' ' ' ' ' ' ' ' ' ' ' ' ' ' ' ' ' ' ' ' ' ' ' ' ' ' ' ' ' ' ' ' ' ' ' ' ' ' ' ' ' ' ' ' ] 6.6.",
"6.' ' ' ' ' ' ' ' ' ' ' ' ' ' ' ' ' ' ' ' ' ' ' ' ' ' ' ' ' ' ' ' ' ' ' ' ' ' ' ' ' ' ' ' ' ' ' ' ' ' ' ' ' ' ' ' ' ' ' ' ' ' ' ' ' ' ' ' ' ' ' ' ' ' ' ' ' ' ' ' ' ' ' ' ' ' ' ' ' ' ' ' ' ' ' ' ' ' ' ' ' ' ' ' ' ' ' 6.6.",
"6.) / / / / / / / / / / / / / / / / / / / / / / / / / / / / / / / / / / / / / / / / / / / / / / / / / / / / / / / / / / / / / / / / / / / / / / / / / / / / / / / / / / / / / / / / / / / / / / / / / / / / / / / / / / 6.6.",
"6./ ^ / / / / / / / / / / / / / / / / / / / / / / / / / / / / / / / / / / / / / / / / / / / / / / / / / / / / / / / / / / / / / / / / / / / / / / / / / / / / / / / / / / / / / / / / / / / / / / / / / / / / / / / ^ / 6.6.",
"6./ Q Q Q Q Q Q Q Q Q Q Q Q Q Q Q Q Q Q Q Q Q Q Q Q Q Q Q Q Q Q Q Q Q Q Q Q Q Q Q Q Q Q Q Q Q Q Q Q Q Q Q Q Q Q Q Q Q Q Q Q Q Q Q Q Q Q Q Q Q Q Q Q Q Q Q Q Q Q Q Q Q Q Q Q Q Q Q Q Q Q Q Q Q Q Q Q Q Q Q Q Q Q Q Q Q ^ 6.| ",
"8./ I I I I I I I I I I I I I I I I I I I I I I I I I I I I I I I I I I I I I I I I I I I I I I I I I I I I I I I I I I I I I I I I I I I I I I I I I I I I I I I I I I I I I I I I I I I I I I I I I I I I I I I I I ^ 8.6.",
"p./ P P P P P P P P P P P P P P P P P P P P P P P P P P P P P P P P P P P P P P P P P P P P P P P P P P P P P P P P P P P P P P P P P P P P P P P P P P P P P P P P P P P P P P P P P P P P P P P P P P P P P P P P P / 6.p.",
"W./ L L L L L L L L L L L L L L L L L L L L L L L L L L L L L L L L L L L L L L L L L L L L L L L L L L L L L L L L L L L L L L L L L L L L L L L L L L L L L L L L L L L L L L L L L L L L L L L L L L L L L L L L L ] | W.",
"NX_ b L L L L L L L L L L L L L L L L L L L L L L L L L L L L L L L L L L L L L L L L L L L L L L L L L L L L L L L L L L L L L L L L L L L L L L L L L L L L L L L L L L L L L L L L L L L L L L L L L L L L L L m L 8.' NX",
"PX0./ v b b b b b b b b b b b b b b b b b b b b b b b b b b b b b b b b b b b b b b b b b b b b b b b b b b b b b b b b b b b b b b b b b b b b b b b b b b b b b b b b b b b b b b b b b b b b b b b b b b b b b v | | 8.PX",
"PXJX' ' P c c c c c c c c c c c c c c c c c c c c c c c c c c c c c c c c c c c c c c c c c c c c c c c c c c c c c c c c c c c c c c c c c c c c c c c c c c c c c c c c c c c c c c c v v v v v v b b b b b b L ] 6._ JXPX",
"PXPXJX| ] | | ' ' ' | | | | | | | | | | | | | | | | | | | | | | | | | | | | | | | | | | | | | | | | | | | | | | | | | | | | | | | | | | | | | | | | | | | | | | | | | | | | 6.6.6.6.6.8.8.8.8.8.8.8.8.8.8.8.8.8.6.] | JXPXPX",
"PXPXPXPXiXh.8.6.6.6.6.6.6.6.6.6.6.6.6.6.6.6.6.6.6.6.6.6.6.6.6.6.6.6.6.6.6.6.6.6.6.6.6.6.6.6.6.6.6.6.6.6.6.6.6.6.6.6.6.6.6.6.6.6.6.6.6.6.6.6.6.6.6.6.6.6.6.6.6.6.6.6.6.6.6.6.6.6.6.6.6.6.6.6.6.6.6.6.6.6.6.6.| 8.h.iXPXPXPXPX"
};
