/* XPM */
static char *advanced[] = {
/* columns rows colors chars-per-pixel */
"110 50 254 2",
"   c #000000",
".  c #0A0301",
"X  c #0F0800",
"o  c #00000B",
"O  c #0B060C",
"+  c #100400",
"@  c #170C00",
"#  c #010215",
"$  c #0C0612",
"%  c #0D0917",
"&  c #000119",
"*  c #0F091A",
"=  c #130B13",
"-  c #1B0C17",
";  c #110A1C",
":  c #17101B",
">  c #000124",
",  c #080622",
"<  c #00022C",
"1  c #150E29",
"2  c #1C1223",
"3  c #1C122C",
"4  c #000232",
"5  c #01043D",
"6  c #0E0E3C",
"7  c #150D36",
"8  c #120D3B",
"9  c #1A1233",
"0  c #1A123B",
"q  c #231726",
"w  c #34202D",
"e  c #020643",
"r  c #0F0D42",
"t  c #00054F",
"y  c #110D4D",
"u  c #1A1243",
"i  c #14104B",
"p  c #1A154D",
"a  c #020653",
"s  c #080B57",
"d  c #120F50",
"f  c #04105B",
"g  c #1A1456",
"h  c #171459",
"j  c #231A4F",
"k  c #211952",
"l  c #2D2243",
"z  c #30245A",
"x  c #010766",
"c  c #03096A",
"v  c #0D1160",
"b  c #081368",
"n  c #1A1463",
"m  c #1C166C",
"M  c #0C0D74",
"N  c #070D79",
"B  c #07117B",
"V  c #0F1179",
"C  c #13127C",
"Z  c #1C177B",
"A  c #1B1A7B",
"S  c #231C65",
"D  c #231C7C",
"F  c #222173",
"G  c #2D2573",
"H  c #212178",
"J  c #2E297F",
"K  c #30277B",
"L  c #060E8C",
"P  c #0A0E8B",
"I  c #0D1887",
"U  c #07108B",
"Y  c #0B118E",
"T  c #131584",
"R  c #191683",
"E  c #101289",
"W  c #1E1A8A",
"Q  c #0C1496",
"!  c #0F1A96",
"~  c #0B129E",
"^  c #161796",
"/  c #1F1C97",
"(  c #1E1999",
")  c #241D8A",
"_  c #211B94",
"`  c #18299C",
"'  c #2B2381",
"]  c #24208C",
"[  c #322B8A",
"{  c #2E279E",
"}  c #332B9D",
"|  c #0C13A4",
" . c #0D14AD",
".. c #1817A7",
"X. c #121CA1",
"o. c #1016AD",
"O. c #181AA9",
"+. c #1A1FAE",
"@. c #0F16B7",
"#. c #1116B4",
"$. c #251FA7",
"%. c #1623B7",
"&. c #2723A2",
"*. c #2822A2",
"=. c #2923AB",
"-. c #342FAA",
";. c #2827B4",
":. c #2E29B7",
">. c #2522BB",
",. c #2E2FBF",
"<. c #312ABF",
"1. c #2335BB",
"2. c #3832BC",
"3. c #483A88",
"4. c #473DA0",
"5. c #4039AB",
"6. c #5146A5",
"7. c #6358AA",
"8. c #151AC3",
"9. c #181AC5",
"0. c #151BCC",
"q. c #181BCC",
"w. c #151CD2",
"e. c #131ADA",
"r. c #1A1DDA",
"t. c #1A23C8",
"y. c #1B23D9",
"u. c #2420C2",
"i. c #2C28C1",
"p. c #2727C8",
"a. c #3A37CE",
"s. c #313DCA",
"d. c #2422D1",
"f. c #2A26D2",
"g. c #2524D9",
"h. c #212CD8",
"j. c #2732D9",
"k. c #3A34D4",
"l. c #3434DA",
"z. c #3E39DF",
"x. c #151CE3",
"c. c #141BEB",
"v. c #181DEF",
"b. c #0000FE",
"n. c #0B0BFB",
"m. c #0F10FB",
"M. c #1212F7",
"N. c #1B1DF6",
"B. c #1213FC",
"V. c #1C1CFA",
"C. c #1E26E1",
"Z. c #1D22EC",
"A. c #1E23FD",
"S. c #282BE6",
"D. c #2C2AE5",
"F. c #2324EB",
"G. c #2926EA",
"H. c #312EE6",
"J. c #3733E0",
"K. c #3433EC",
"L. c #3638EF",
"P. c #2424F7",
"I. c #2827F7",
"U. c #2B2BF7",
"Y. c #2526FB",
"T. c #2827FF",
"R. c #2529FF",
"E. c #2B2BFC",
"W. c #2D38F2",
"Q. c #2630FC",
"!. c #2E32FE",
"~. c #3735F2",
"^. c #3D3BF3",
"/. c #3233FC",
"(. c #3837FF",
"). c #353AFF",
"_. c #3C3DFC",
"`. c #443FCF",
"'. c #433FF0",
"]. c #403FFF",
"[. c #3649C9",
"{. c #3B4CF5",
"}. c #3D41FE",
"|. c #6257CA",
" X c #7979D3",
".X c #4744ED",
"XX c #5754E6",
"oX c #5956E9",
"OX c #4444F1",
"+X c #4445FC",
"@X c #4847FF",
"#X c #4748FC",
"$X c #4B4CFD",
"%X c #4E51FE",
"&X c #5454F2",
"*X c #5353FC",
"=X c #5759FE",
"-X c #5A5BFE",
";X c #5D62FD",
":X c #726FE9",
">X c #6263FE",
",X c #6967FF",
"<X c #676BFF",
"1X c #6D6DFD",
"2X c #706FFF",
"3X c #6F71FF",
"4X c #7575FF",
"5X c #7778FF",
"6X c #7B7BFF",
"7X c #7F80FF",
"8X c #C7C7BC",
"9X c #CACABF",
"0X c #8686C8",
"qX c #8080D9",
"wX c #8F8FDE",
"eX c #9090DE",
"rX c #9F9FD8",
"tX c #A8A8C9",
"yX c #BEBECF",
"uX c #ABABD5",
"iX c #9393E2",
"pX c #9898E6",
"aX c #9C9CE9",
"sX c #8282FD",
"dX c #8D8DFE",
"fX c #9393FE",
"gX c #9A9AFF",
"hX c #A9A9E5",
"jX c #A3A3ED",
"kX c #A7A7F0",
"lX c #ACACF3",
"zX c #A6A6FF",
"xX c #AAAAFF",
"cX c #B2B2F6",
"vX c #B4B4FF",
"bX c #BCBCFB",
"nX c #CECEC2",
"mX c #CBCBCC",
"MX c #D4D4CA",
"NX c #CFCFD3",
"BX c #D1D1D4",
"VX c #D6D6DA",
"CX c #DDDDDC",
"ZX c #E4E4CF",
"AX c #EAEADC",
"SX c #C2C2FF",
"DX c #C9C9FF",
"FX c #D2D2FF",
"GX c #DCDCFF",
"HX c #E4E4E5",
"JX c #EDEDEF",
"KX c #E1E1FF",
"LX c #ECECFF",
"PX c #FFFFFF",
/* pixels */
"PXPXPXPXSXdX6X6X6X6X6X6X6X6X6X6X6X6X6X6X6X6X6X6X6X6X6X6X6X6X6X6X6X6X6X6X6X6X6X6X6X6X6X6X6X6X6X6X6X6X6X6X6X6X6X6X6X6X6X6X6X6X6X6X6X6X6X6X6X6X6X6X6X6X6X6X6X6X6X6X6X6X6X6X6X6X6X6X6X6X6X6X6X6X6X6X6X6X6X6X6X6X6XsXxXLXPXPXPXPX",
"PXPXKX5X1X4X4X4X4X4X4X4X4X4X4X4X4X4X4X4X4X4X4X4X4X4X4X4X4X4X4X4X4X4X4X4X4X4X4X4X4X4X4X4X4X4X4X4X4X4X4X4X4X4X4X4X4X4X4X4X4X4X4X4X4X4X4X4X4X4X4X4X4X4X4X4X4X4X4X4X4X4X4X4X4X4X4X4X4X4X4X4X4X4X4X4X4X4X4X4X4X4X4X4X1X,XvXPXPXPX",
"PXKX>X1X4X4X5X6X6X6X6X6X6X6X6X6X6X6X6X6X6X6X6X6X6X6X6X6X6X6X6X6X6X6X6X6X6X6X6X6X6X6X6X6X6X6X6X6X6X6X6X6X6X6X6X6X6X6X6X6X6X6X6X6X6X6X6X6X6X6X6X6X6X6X6X6X6X6X6X6X6X6X6X6X6X6X6X6X6X6X6X6X6X6X6X6X6X6X6X6X6X6X5X4X4X4X>XzXPXPX",
"PX4X1X4X4XsXgXzXzXxXzXzXzXzXzXzXzXzXzXzXzXzXzXzXzXzXzXzXzXzXzXzXzXzXzXzXzXzXzXzXzXzXzXzXzXzXzXzXzXzXzXzXzXzXzXzXzXzXzXzXzXzXzXzXzXzXzXzXzXzXzXzXzXzXzXzXzXzXzXzXzXzXzXzXzXzXzXzXzXzXzXzXzXzXzXzXzXzXzXxXxXzXfXsX4X4X1X>XFXPX",
"DX>X1X4XdXxXDXFXGXGXGXGXGXGXGXGXGXGXGXGXGXGXGXGXGXGXGXGXGXGXGXGXGXGXGXGXGXGXGXGXGXGXGXGXGXGXGXGXGXGXGXGXGXGXGXGXGXGXGXGXGXGXGXGXGXGXGXGXGXGXGXGXGXGXGXGXGXGXGXGXGXGXGXGXGXGXGXGXGXGXGXGXGXGXGXGXGXGXGXGXGXFXDXxXsX4X1X,X6XPX",
"fX>X1X6XzXDXGXKXGXGXGXGXGXGXGXGXGXGXGXGXGXGXGXGXGXGXGXGXGXGXGXGXGXGXGXGXGXGXGXGXGXGXGXGXGXGXGXGXGXGXGXGXGXGXGXGXGXGXGXGXGXGXGXGXGXGXGXGXGXGXGXGXGXGXGXGXGXGXGXGXGXGXGXGXGXGXGXGXGXGXGXGXGXGXGXGXGXGXGXGXGXGXGXSXgX5X,X,X>XLX",
"5X>X1XsXxXDXFXFXFXFXFXFXFXFXFXFXFXFXFXFXFXFXFXFXFXFXFXFXFXFXFXFXFXFXFXFXFXFXFXFXFXFXFXFXFXFXFXFXFXFXFXFXFXFXFXFXFXFXFXFXFXFXFXFXFXFXFXFXFXFXFXFXFXFXFXFXFXFXFXFXFXFXFXFXFXFXFXFXFXFXFXFXFXFXFXFXFXFXFXFXFXFXFXDXxX6X,X>X-XFX",
"1X>X,XsXxXSXSXSXSXSXSXSXSXSXSXSXSXSXSXSXSXSXSXSXSXSXSXSXSXSXSXSXSXSXSXSXSXSXSXSXSXSXSXSXSXSXSXSXSXSXSXSXSXSXSXSXSXSXSXSXSXSXSXSXSXSXSXSXSXSXSXSXSXSXSXSXSXSXSXSXSXSXSXSXSXSXSXSXSXSXSXSXSXSXSXSXSXSXSXSXSXSXSXbXzX6X>X>X=XDX",
"1X-X>X6XzXvXvXvXvXvXvXvXvXvXvXvXvXvXvXvXvXvXvXvXvXvXvXvXvXvXvXvXvXvXvXvXvXvXvXvXvXvXvXvXvXvXvXvXvXvXvXvXvXvXvXvXvXvXvXvXvXvXvXvXvXvXvXvXvXvXvXvXvXvXvXvXvXvXvXvXvXvXvXvXvXvXvXvXvXvXvXvXvXvXvXvXvXvXvXvXvXvXvXvXgX5X>X>X*XDX",
",X-X>X4XfXzXzXzXzXzXzXzXzXzXzXzXzXzXzXzXzXzXzXzXzXzXzXzXzXzXzXzXzXzXzXzXzXzXzXzXzXzXzXzXzXzXzXzXzXzXzXzXzXzXzXzXzXzXzXzXzXzXzXzXzXzXzXzXzXzXzXzXzXzXzXzXzXzXzXzXzXzXzXzXzXzXzXzXzXzXzXzXzXzXzXzXzXzXzXzXzXzXzXzXfX4X-X-X*XDX",
">X=X-X4XdXgXgXgXgXgXgXgXgXgXgXgXgXgXgXgXgXgXgXgXgXgXgXgXgXgXgXgXgXgXgXgXgXgXgXgXgXgXgXgXgXgXgXgXgXgXgXgXgXgXgXgXgXgXgXgXgXgXgXgXgXgXgXgXgXgXgXgXgXgXgXgXgXgXgXgXgXgXgXgXgXgXgXgXgXgXgXgXgXgXgXgXgXgXgXgXgXgXgXfXsX1X-X-X$XSX",
">X=X-X,X6XdXdXdXdXdXdXdXdXdXdXdXdXdXdXdXdXdXdXdXdXdXdXdXdXdXdXdXdXdXdXdXdXdXdXdXdXdXdXdXdXdXdXdXdXdXdXdXdXdXdXdXdXdXdXdXdXdXdXdXdXdXdXdXdXdXdXdXdXdXdXdXdXdXdXdXdXdXdXdXdXdXdXdXdXdXdXdXdXdXdXdXdXdXdXdXdXdXdXdX6X>X=X=X@XSX",
">X*X=X>X4XsXsXsXsXsXsXsXsXsXsXsXsXsXsXsXsXsXsXsXsXsXsXsXsXsXsXsXsXsXsXsXsXsXsXsXsXsXsXsXsXsXsXsXsXsXsXsXsXsXsXsXsXsXsXsXsXsXsXsXsXsXsXsXsXsXsXsXsXsXsXsXsXsXsXsXsXsXsXsXsXsXsXsXsXsXsXsXsXsXsXsXsXsXsXsXsXsXsXsX4X-X*X*X@XSX",
"-X*X*X-X1X4X4X4X4X4X4X4X4X4X4X4X4X4X4X4X4X4X4X4X4X4X4X4X4X5XsX5X4X4X4X4X4X4X4X4X4X4X4X4X4X4X4X4X4X4X4X4X4X4X4X4X4X4X4X4X4X4X4X4X4X4X4X4X4X4X4X4X4X4X4X4X4X4X4X4X4X4X4X4X4X4X4X4X4X4X4X4X4X4X4X4X4X5X7X6X4X4X5X4X1X-X*X$X+XbX",
"-X$X*X=X>X1X1X1X1X1X1X1X1X1X1X1X1X1X1X1X1X1X1X1X1X1X1X1X3X7., ;X2X1X1X1X1X1X1X1X1X1X1X1X1X1X1X1X1X1X1X1X1X1X1X1X1X1X1X1X1X1X1X1X1X1X1X1X1X1X1X1X1X1X1X1X1X1X1X1X1X1X1X1X1X1X1X1X1X1X1X1X1X1X1X1X1X:X- [.4X1X1X1X>X*X$X$X+XbX",
"=X$X$X*X-X>X>X>X>X>X>X>X,X,X>X>X>X>X>X>X>X>X>X>X>X>X>X>X1X.   1.,X>X>X>X>X>X>X>X>X>X>X>X>X>X>X>X>X>X>X>X>X>X>X>X>X>X>X>X>X>X>X>X>X>X>X>X>X>X>X>X>X>X>X>X>X>X>X>X>X>X>X>X>X>X>X>X>X>X>X>X>X>X>X>X<Xw   f <X>X>X>X-X*X$X#X_.bX",
"=X#X#X$X=X-X-X-X-X-X-X6.% s.-X-X-X-X-X-X-X-X-X-X-X-X-X-X|.    {.-X-X-X-X-X-X-X-X-X-X-X-X-X-X-X-X-X-X-X-X-X-X-X-X-X-X-X-X-X-X-X-X-X-X-X-X-X-X-X-X-X-X-X-X-X-X-X-X-X-X-X-X-X-X-X-X-X-X-X-X-X-X-X-X>X@   ` >X-X-X=X*X$X#X+X_.bX",
"*X+X+X#X$X*X*X*X*X*XXX    b -X*X*X*X*X*X*X*X*X*X*X*X*X*X3.  < =X*X*X*X*X*X*X*X*X*X*X*X*X*X*X*X*X*X*X*X*X*X*X*X*X*X*X*X*X*X*X*X*X*X*X*X*X*X*X*X*X*X*X*X*X*X*X*X*X*X*X*X*X*X*X*X*X*X*X*X*X*X*X*X*XXX    }.*X*X*X*X$X#X+X+X(.vX",
"*X+X+X+X#X$X$X$X$X*Xq     < %X$X$X$X$X$X$X$X$X$X$X$X$X$Xl   ! *X$X$X$X$X$X$X$X$X$X$X$X$X$X$X$X$X$X$X$X$X$X$X$X$X$X$X$X$X$X$X$X$X$X$X$X$X$X$X$X$X$X$X$X$X$X$X$X$X$X$X$X$X$X$X$X$X$X$X$X$X$X$X$X$X4.  4 %X$X$X$X$X#X+X+X+X/.cX",
"$X+X+X+X+X+X+X+X+X5.        W.@X+X+X+X+X+X+X+X+X@X@X@X$X=   j.@X+X@X+X@X+X+X+X+X+X@X+X+X+X+X+X@X@XJ F }.@X+X+X+X@X@X+X+X+X+X@X+X+X+X+X+X+X+X+X@X.XF ;.@X+X+X+X+X+X@X`.H ] +X+X+X+X+X+X+X+X@X@X$Xz   I @X+X+X+X+X+X_._._./.cX",
"$X_._._._._._._.+X+   %.2   ! +X_._._._._._._.+X-.8 6 l..   )._.'.    ).]._._._.+X=   e +X_.+X[       4 L.}._.+XG v _._.+Xk.,._.]._._._._._.+X}       X.+X_._._.+X9       & _._._._._.+Xa.p 6 p.2   h.+X_._._._._._._._.E.cX",
"$X_._.(.(.(.(._.K   o ).G   > ).(.(.(.(.(.(.^.=           5 _.(.2.    S._.(.(._.3     X._._.G     b *   o ).(.z.    Q._.k     # /.(.(.(.(.(.-.    h   o ).(.(._.=     A .   t._.(.(._.k             !.(.(.(.(.(.(.(.(._.E.cX",
"#X(.(././././.K.    o.(.l.    C.(././././.~..   o +.]     B (./.J.    y.(././.'     t.(./.{     8._.}   < /./.k.    R.j         N (./././.~..   0.}..   R./.(.3   # !._.2   C.(./.(.9     T ;.O   > /./././././././././.E.lX",
"+X(./././.E./.9   > !./.(.=   c /.E.E.E./.=   4 E./.(.X   #./.E./..    ./.E.H.    ~ /.E./.    Q /./.S   c /.E.<.  o >.    y.u   4 /.E.E./.9   t /./.: > !.E.:.    R.(.]   < !.E./.S     F././.k   a !.E.E.E.E.E././././.Y.lX",
"+X/./.E.E.E.&.    | p.s r       R.E.I.E.D     R.E.E.i.    x.E.I.E.p   a E.E.;   e E.E.E.0   4 E.E.E..   Y E.T.=.  e %   0.E.:.    R.E.T.p.    Z.E.I.E.E.E.E.1   L D.8   o R.E.T.f.    w.E.E.E..   U E.I.I.I.I.E.U.U././.Y.lX",
"+X/.E.E.T.U..                   P E.Y.E..    .E.T.E..     A.E.I.T.=.    R.*.    Y.E.T.D.    w.E.E.u     o.E.T.)   #   N E.T.D.    A.E.E.g   5 E.I.I.I.I.T.E..   &     5 R.E.E.E.u   t E.E.E.0     ~ E.I.I.I.I.I.I.U.E.U.Y.kX",
"_.E.E.E.E.7     # 5 ^ r.E.E.n     A.T.f.    Y.T.T.*       A.T.T.Y.T..   8..    .T.Y.T._   & R.T.Z       #.T.T.m     > R.Y.Y.E.    e.T.T.$   ~ T.Y.Y.Y.T.T.G.    o s r.E.T.d.M T.O   0.T.T.m       #.T.T.Y.Y.Y.Y.I.I.U.U.V.kX",
"_.E.U.T.$.    ~ T.T.T.T.Y.R.g.    t R.>.  o R.F.$    ..   v.G.9.T.R.g   o   > R.Y.Y.R.Z   4 R.n   > R   | T.T.;     x.T.Y.Y.T..   a ^ Z.O   @.T.R.T.T.8 ~ I.    c.E.T.T.(   < R..   c.E.d   a i   L E...Y.Y.Y.Y.Y.Y.I.I.V.jX",
"(.E.I.T.    > R.Y.P.P.P.P.P.R.g     c I.          P R.;       x T.Y.u.      x.T.P.P.R._         & Y.Z   4 Y.T.O   a T.Y.P.P.R.h       v.O   a Y.F.T     x.T.;     V C       N.T.*         4 R.Z       o Y.Y.Y.Y.Y.Y.I.I.V.jX",
"/.Y.Y.T.$   N.T.Y.Y.Y.Y.Y.Y.Y.T.O     A.W     > 8.T.R.>.    N R.Y.Y.I.    t R.Y.Y.Y.Y.T.8     M Y.R.u.    x T.7   e.T.Y.Y.Y.Y.Y.y e 0.T.m           o r.T.R.g.          a Y.T.R.d.    o Y R.T.I..   e A.Y.Y.Y.Y.P.P.P.P.V.jX",
"/.Y.P.Y.T.T.T.Y.Y.Y.Y.Y.Y.Y.Y.R.T.C q.T.R.R.Y.T.T.Y.Y.R.R.R.T.Y.Y.Y.R./ & Y.Y.Y.Y.Y.Y.Y.T.Y.R.T.Y.Y.R.O.E Y.Y.T.Y.R.Y.Y.Y.Y.Y.Y.T.T.T.Y.T.Z     > ~ R.T.Y.Y.R.T.R C V Y.T.Y.Y.Y.T.T.Y.R.T.Y.Y.R.T.Y.T.Y.Y.Y.Y.P.Y.P.P.P.B.jX",
"/.Y.P.P.Y.Y.Y.Y.Y.Y.Y.Y.Y.Y.Y.Y.Y.T.T.Y.Y.Y.Y.Y.Y.Y.Y.Y.Y.Y.Y.Y.Y.Y.Y.T.T.Y.Y.Y.Y.Y.Y.Y.Y.Y.Y.Y.Y.Y.Y.T.T.Y.Y.Y.Y.Y.Y.Y.Y.Y.Y.Y.Y.Y.Y.Y.Y.T.T.T.T.T.Y.Y.Y.Y.Y.Y.T.T.T.Y.Y.Y.Y.Y.Y.Y.Y.Y.Y.Y.Y.Y.Y.Y.Y.Y.Y.Y.Y.Y.P.P.N.N.B.aX",
"E.P.P.P.Y.Y.Y.I.I.I.I.I.I.I.I.I.I.I.I.I.I.I.I.I.I.I.I.I.I.I.I.I.I.I.I.I.I.I.I.I.I.I.I.I.I.I.I.I.I.I.I.I.I.I.I.I.I.I.I.I.I.I.I.I.I.I.I.I.I.I.I.I.I.I.I.I.I.I.I.I.I.I.I.I.I.I.I.I.I.I.I.I.I.I.I.I.I.I.I.I.I.I.I.Y.P.V.N.V.B.aX",
"E.V.V.P.Y.E.E.E.E.E.E.E.E.E.E.E.E.E.E.E.E.E.E.E.E.E.E.E.E.E.E.E.E.E.E.E.E.E.E.E.E.E.E.E.E.E.E.E.E.E.E.E.E.E.E.E.E.E.E.E.E.E.E.E.E.E.E.E.E.E.E.E.E.E.E.E.E.E.E.E.E.E.E.E.E.E.E.E.E.E.E.E.E.E.E.E.E.E.E.E.E.E.E.I.Y.V.N.V.n.pX",
"E.V.V.P.Y.E.E.E.E.E.E.E.E.E.E.E.E.E.E.E.E.E.E.E.E.E.E.E.E.E.E.E.E.E.E.E.E.E.E.E.E.E.E.E.E.E.E.E.E.E.E.E.E.E.E.E.E.E.E.E.E.E.E.E.E.E.E.E.E.E.E.E.E.E.E.E.E.E.E.E.E.E.E.E.E.E.E.E.E.E.E.E.E.E.E.E.E.E.E.E.E.E.E.E.Y.V.N.V.n.pX",
"I.V.V.P.E././././././././././././././././././././././././././././././././././././././././././././././././././././././././././././././././././././././././././././././././././././././././././././././././././.E.Y.V.V.V.n.pX",
"Y.B.V.P.E./././././././././././././././././././././././././././././././././././././././././././././././././././././././././././././././././././././././././././././././././././././././././././././././././././.U.V.B.M.n.iX",
"Y.B.V.P./._._.(._._._._._._._._._._._._._._._._._._._._._._._._._._._._._._._._._._._._._._._._._._._._._._._._._._._._._._._._._._._._._._._._._._._._._._._._._._._._._._._._._._._._._._._._._._._._._._._.(.E.V.M.M.b.iX",
"Y.B.B.P./._.}._._._._._._._._._._._._._._._._._._._._._._._._._._._._._._._._._._._._._._._._._._._._._._._._._._._._._._._._._._._._._._._._._._._._._._._._._._._._._._._._._._._._._._._._._._._._._._._.}._.E.V.M.M.b.iX",
"V.B.M.P.(.+X+X+X+X+X+X+X+X+X+X+X+X+X+X+X+X+X+X+X+X+X+X+X+X+X+X+X+X+X+X+X+X+X+X+X+X+X+X+X+X+X+X+X+X+X+X+X+X+X+X+X+X+X+X+X+X+X+X+X+X+X+X+X+X+X+X+X+X+X+X+X+X+X+X+X+X+X+X+X+X+X+X+X+X+X+X+X+X+X+X+X+X+X+X+X+X+X+X+X/.V.M.M.b.eX",
"V.n.B.Y._.$X$X$X$X$X$X$X$X$X$X$X$X$X$X$X$X$X$X$X$X$X$X$X$X$X$X$X$X$X$X$X$X$X$X$X$X$X$X$X$X$X$X$X$X$X$X$X$X$X$X$X$X$X$X$X$X$X$X$X$X$X$X$X$X$X$X$X$X$X$X$X$X$X$X$X$X$X$X$X$X$X$X$X$X$X$X$X$X$X$X$X$X$X$X$X$X$X$X#X/.V.n.n.b.wX",
"V.n.B.Y.+X*X*X*X*X*X*X*X*X*X*X*X*X*X*X*X*X*X*X*X*X*X*X*X*X*X*X*X*X*X*X*X*X*X*X*X*X*X*X*X*X*X*X*X*X*X*X*X*X*X*X*X*X*X*X*X*X*X*X*X*X*X*X*X*X*X*X*X*X*X*X*X*X*X*X*X*X*X*X*X*X*X*X*X*X*X*X*X*X*X*X*X*X*X*X*X*X*X*X$X(.V.n.n.b.eX",
"I.n.m.Y.+X=X-X-X-X-X-X-X-X-X-X-X-X-X-X-X-X-X-X-X-X-X-X-X-X-X-X-X-X-X-X-X-X-X-X-X-X-X-X-X-X-X-X-X-X-X-X-X-X-X-X-X-X-X-X-X-X-X-X-X-X-X-X-X-X-X-X-X-X-X-X-X-X-X-X-X-X-X-X-X-X-X-X-X-X-X-X-X-X-X-X-X-X-X-X-X-X-X-X*X_.V.n.n.b.rX",
"&Xb.n.V._.=X>X>X>X>X>X>X>X>X>X>X>X>X>X>X>X>X>X>X>X>X>X>X>X>X>X>X>X>X>X>X>X>X>X>X>X>X>X>X>X>X>X>X>X>X>X>X>X>X>X>X>X>X>X>X>X>X>X>X>X>X>X>X>X>X>X>X>X>X>X>X>X>X>X>X>X>X>X>X>X>X>X>X>X>X>X>X>X>X>X>X>X>X>X>X>X>X;X%X!.B.n.n.b.yX",
"hXb.n.m.T.+X=X;X>X>X>X>X>X>X>X>X>X>X>X>X>X>X>X>X>X>X>X>X>X>X>X>X>X>X>X>X>X>X>X>X>X>X>X>X>X>X>X>X>X>X>X>X>X>X>X>X>X>X>X>X>X>X>X>X>X>X>X>X>X>X>X>X>X>X>X>X>X>X>X>X>X>X>X>X>X>X>X>X>X>X>X>X>X>X>X>X>X>X>X>X>X-X*X_.V.n.n.b.K.MX",
"AXU.b.n.B.Y./._._._._._._._._._._._._._._._._._._._._._._._._._._._._._._._._._._._._._._._._._._._._._._._._._._._._._._._._._._._._._._._._._._._._._._._._._._._._._._._._._._._._._._._._._._._._._._.(.E.V.n.b.b.b.tXBX",
"HXBXn.b.b.n.n.B.B.B.B.B.B.B.B.B.B.B.B.B.B.B.B.B.B.B.B.B.B.B.B.B.B.B.B.B.B.B.B.B.B.B.B.B.B.B.B.B.B.B.B.B.B.B.B.B.B.B.B.B.B.B.B.B.B.B.B.B.B.B.B.B.B.B.B.B.B.B.B.B.B.B.B.B.B.B.B.B.B.B.B.B.B.B.B.B.B.B.B.B.B.B.n.n.b.b.b. XnXBX",
"HXCXmXK.b.b.b.b.b.b.b.b.b.b.b.b.b.b.b.b.b.b.b.b.b.b.b.b.b.b.b.b.b.b.b.b.b.b.b.b.b.b.b.b.b.b.b.b.b.b.b.b.b.b.b.b.b.b.b.b.b.b.b.b.b.b.b.b.b.b.b.b.b.b.b.b.b.b.b.b.b.b.b.b.b.b.b.b.b.b.b.b.b.b.b.b.b.b.b.b.b.b.b.b.b.b.0X8XmXVX",
"JXHXCXZXuXoX~.E.E.E.E.E.E.E.E.E.E.E.E.E.E.E.E.E.E.E.E.E.E.E.E.E.E.E.E.E.E.E.E.E.E.E.E.E.E.E.E.E.E.E.E.E.E.E.E.E.E.E.E.E.E.E.E.E.E.E.E.E.E.E.E.E.E.E.E.E.E.E.E.E.E.E.E.E.E.E.E.E.E.E.E.E.E.E.E.E.E.E.E.E.E.E./.OXqX9XnXNXCXHX",
"PXPXPXPXPXPXPXPXPXPXPXPXPXPXPXPXPXPXPXPXPXPXPXPXPXPXPXPXPXPXPXPXPXPXPXPXPXPXPXPXPXPXPXPXPXPXPXPXPXPXPXPXPXPXPXPXPXPXPXPXPXPXPXPXPXPXPXPXPXPXPXPXPXPXPXPXPXPXPXPXPXPXPXPXPXPXPXPXPXPXPXPXPXPXPXPXPXPXPXPXPXPXPXPXPXPXPXPXPXPX"
};
