/* XPM */
static char *blue_[] = {
/* columns rows colors chars-per-pixel */
"43 43 68 1",
"  c #060B80",
". c #0C0E89",
"X c #160B89",
"o c #050D94",
"O c #0C0B95",
"+ c #0B009D",
"@ c #0D0C9A",
"# c #0A0AA6",
"$ c #0D0AAC",
"% c #1807A3",
"& c #100EA0",
"* c #1400AF",
"= c #1A00AB",
"- c #110BA9",
"; c #0702B6",
": c #0C04B4",
"> c #000DB4",
", c #0D01BC",
"< c #010BB8",
"1 c #0E09BE",
"2 c #1202B4",
"3 c #1B00B4",
"4 c #1401BF",
"5 c #1901BC",
"6 c #1008BD",
"7 c #0111B5",
"8 c #2400A3",
"9 c #2A00A4",
"0 c #2700A9",
"q c #2B01AB",
"w c #3000A9",
"e c #2000BD",
"r c #2A02BB",
"t c #3033B4",
"y c #4B539B",
"u c #4C57A9",
"i c #4653BB",
"p c #0F03C2",
"a c #0F01C9",
"s c #1401C2",
"d c #1901C3",
"f c #1309C2",
"g c #1200CB",
"h c #1903C9",
"j c #3D52C7",
"k c #3A56CA",
"l c #3C5BCF",
"z c #3F57D1",
"x c #4155C8",
"c c #4158CC",
"v c #444FDD",
"b c #4059D0",
"n c #6E4DC2",
"m c #6E4ACE",
"M c #7446C2",
"N c #744AC4",
"B c #734AC9",
"V c #694BD1",
"C c #694AE3",
"Z c #A1A7FF",
"A c #BCC2FF",
"S c #D7DBFF",
"D c #D9DEFF",
"F c #E6F3FF",
"G c #F4F4FF",
"H c #FFF5FF",
"J c #F4FCFF",
"K c #FBFCFF",
/* pixels */
"444s44444444s44dss52ssssggp625sds4444444444",
"4444444444444444ds244sssga,4445s444444444s4",
"s44444444444444442442ssss4224444s4444444444",
"4444444s4s44444444s,55ss4444244444444s44444",
"4444444s444444444,4,22424555ssppss4444444s4",
"44444444s4444444ssss44245ds4ssaas444444s444",
"s44444444444444sppss45,4sds444sps4444444444",
"44s4444444444s4sssss44s6s444444s4444s444444",
"4444444444444444s25554ss454,425454444444444",
"44s444444s54444466,5s4::556;6s5544444444444",
"44444s4444s44444245,g:@O=*5s,ssdd4s444s444s",
"4s54444444444444d4,s,$AGCr544shss4444444444",
"44444s444s44444454::$tFKm05s464444444444444",
"4444444s444s444422-@.AJKNwess,,24444s444s44",
"4444444444444s44-# uJJKHMw5,p,4544444444444",
"s444444444444442$SGJJKJHN93,p,555444444s444",
"4s444444444ss6s:#DGGZyKHn832452s444444444s4",
"4544444444444s52$@XXoiKHn82454sss4444444444",
"s44444s444444444::*27xJHB034sspss44444s4444",
"44444s4444444444ssd,>cJHBq35hhpss4444444444",
"444444444444444ssss17kJHM934ss24544444s4444",
"44s44444s444444ssh4;7kJHM935ss24444444444s4",
"44444s4444444444p,4:>cJHN93sssss444d4444444",
"444444444s444444s646>jJHNq34sssss4444444444",
"44s444444s44444442s;7cGHB83525sss4444444454",
"4s444444444444444dsp7kJHBq36244s44444444ss4",
"4444444s444444444ssp>lJHN82sd4244444444s444",
"44444444444s4s4ssssf7kJHBqes,4444s444444444",
"444444d444444s44sds,<bJHn83sss,2444444s4444",
"44444444444444442s2f<vJHVq34spss44444444444",
"444s444444444444s;d:1:+%=355,fss444s4444444",
"4s444444s44444sss446,ssp55551sshd444444444s",
"444444444444s444446444ss454444ss44444444444",
"4444s44444444444444s444444444444444444445s4",
"444s44444444s54444s444444444444444444s44444",
"44444444s44444s44444444444444444444s4444s44",
"4444s5s4444s4444444444444444s4s44444s444444",
"4444s444444444444444s44444444444444444444s4",
"s44444444444444s4s444444444444444444444s444",
"44444444444444444444444ss4445s44s4444444444",
"44444444s44s4444444445444444444444444444444",
"4444444s44444444444s4s444444444444s44s44s44",
"444s444544444s44444444444s444ss444444444444"
};
