/* XPM */
static char *blue__[] = {
/* columns rows colors chars-per-pixel */
"43 43 20 1",
"  c #0000AA",
". c #0000B9",
"X c #3A00AA",
"o c #6600AA",
"O c #0000C8",
"+ c #003AD5",
"@ c #0066E3",
"# c #903AAA",
"$ c #B666AA",
"% c #3A90F2",
"& c #66B6FF",
"* c #DB90B9",
"= c #FFB6C8",
"- c #90DBFF",
"; c #B6FFFF",
": c #FFDBD5",
"> c #DBFFFF",
", c #FFFFE3",
"< c #FFFFF2",
"1 c gray100",
/* pixels */
"                                           ",
"                                           ",
"                                           ",
"                                           ",
"                                           ",
"                                           ",
"                                           ",
"                                           ",
"                                           ",
"                                           ",
"                                           ",
"                                           ",
"            .-<#        O;111,o            ",
"            +><#       %1111111*           ",
"           .-1<#      @11=   &11$          ",
"          @111<#     .-1:X   .-1:X         ",
"       O;11111<#     +>1$     @1<#         ",
"       O;11*@1<#     @1,o     O;1$         ",
"            @1<#     &1:X     .-1*         ",
"            @1<#     &1:X     .-1=         ",
"            @1<#    .-1=      .-1=         ",
"            @1<#    .-1=       &1:X        ",
"            @1<#    .-1=       &1:X        ",
"            @1<#     &1:X     .-1=         ",
"            @1<#     &1:X     .-1*         ",
"            @1<#     %1,o     O;1$         ",
"            @1<#     +>1$     @1<#         ",
"            @1<#     .-1:X   .-1:X         ",
"            @1<#      @11=   &11$          ",
"            @1<#       %1111111*           ",
"            @1<#        O;111,o            ",
"                                           ",
"                                           ",
"                                           ",
"                                           ",
"                                           ",
"                                           ",
"                                           ",
"                                           ",
"                                           ",
"                                           ",
"                                           ",
"                                           "
};
