/* XPM */
static char *blue_[] = {
/* columns rows colors chars-per-pixel */
"43 43 108 2",
"   c #26085E",
".  c #190A69",
"X  c #060F76",
"o  c #170784",
"O  c #1B0B87",
"+  c #13028F",
"@  c #1C058C",
"#  c #170C8C",
"$  c #02168C",
"%  c #161481",
"&  c #0A0C96",
"*  c #06059F",
"=  c #060A99",
"-  c #0D0E9D",
";  c #140595",
":  c #1C0692",
">  c #140C94",
",  c #190B96",
"<  c #16059C",
"1  c #1A049C",
"2  c #150A99",
"3  c #001390",
"4  c #101092",
"5  c #220681",
"6  c #24048B",
"7  c #2C018D",
"8  c #371681",
"9  c #3C1C87",
"0  c #22089D",
"q  c #3A0B95",
"w  c #3D1B94",
"e  c #293798",
"r  c #0C06A4",
"t  c #0909A4",
"y  c #0D04AB",
"u  c #0D0AAB",
"i  c #1301A7",
"p  c #1E01A3",
"a  c #1B08A0",
"s  c #1206A8",
"d  c #1A01AD",
"f  c #1109AE",
"g  c #0700B1",
"h  c #0C04B5",
"j  c #0C09B2",
"k  c #0E02BB",
"l  c #1302B4",
"z  c #1C02B4",
"x  c #1409B3",
"c  c #1401BE",
"v  c #1B01BC",
"b  c #2501A3",
"n  c #2900A3",
"m  c #2D00AF",
"M  c #350DAC",
"N  c #2100B5",
"B  c #2100BD",
"V  c #2738A2",
"C  c #3236AC",
"Z  c #3238A8",
"A  c #302FBB",
"S  c #461C98",
"D  c #4817A6",
"F  c #4721AA",
"G  c #4656AE",
"H  c #4F5AA9",
"J  c #714DB9",
"K  c #0F02C2",
"L  c #1401C2",
"P  c #1902C3",
"I  c #190AC5",
"U  c #1300C8",
"Y  c #1B01CA",
"T  c #3635C1",
"R  c #717FD8",
"E  c #7578ED",
"W  c #7975FF",
"Q  c #9477D3",
"!  c #9C78D8",
"~  c #8D72E3",
"^  c #6780DC",
"/  c #7382D3",
"(  c #B8A0D2",
")  c #B998E2",
"_  c #B69FED",
"`  c #BB99ED",
"'  c #A29AFF",
"]  c #BC93FD",
"[  c #91A7FD",
"{  c #DABDFE",
"}  c #B9C0FF",
"|  c #BFCBFF",
" . c #D7C1FF",
".. c #F6CDFF",
"X. c #EFD6FF",
"o. c #EDD8FF",
"O. c #D7E7FF",
"+. c #DAE4FF",
"@. c #E6EBFF",
"#. c #F6EFFF",
"$. c #FFEEFF",
"%. c #E4F3FF",
"&. c #EAF4FF",
"*. c #EBFEFF",
"=. c #F4F5FF",
"-. c #FDF4FF",
";. c #F4FBFF",
":. c #FBFAFF",
/* pixels */
"L L c L c c c c c c c c L c L L c c c l K K L c v c L c k K P P P c c c c c c c L c c ",
"L L P L c c c L P c c c c c L L L L l c k k L c c c K L K k L v L c c c c c c c c c c ",
"c c L L c c c c c c L c L L c L P L c c c c c c c c c K c c L L L c c c L c c c c c P ",
"P L L c c L c c c c c c L L L L L c c c c c l k c c k c c c L L L c c c c c c L c c c ",
"c c c c c L c c c c L c c L L L L L c c c k c c K L c l c c c P c c c c L c c c c c c ",
"c L c c c c c c c c c c L L c L K L k l k c L L L L l l l c L c c c c L c c c L c L c ",
"c c c c c c c P c c c c L L L L L L c l h k L Y L L c c c k L L c P c L c c c c c c L ",
"c L c P c c c c P c c c L c L L U L c c c c L U L c L L L c L c c c c c c c c c c c c ",
"c c L c c c c c c c c c L c c L L c P l c U K K K L c c v l k L c c L c c c L c c c c ",
"c c c c c L c P c c c P k k L c U P l z d y x l c l v c l c c c c c c c c L c c c L c ",
"c c c c c c c c c c P L k c k L c h * & > # o @ b d l P L P L k L c c c c c L c c c c ",
"c c c L c c c c c c L l c I k j y & Z @.=.=.#.-.~ 6 p z c P c L c c c c c c c c c L c ",
"c P c L L c L L c L k c k k k j 3 [ :.-.-.=.;.=.-.-.S n N L L L L c c c c c c P c c c ",
"c c L L L L L c L c k c k k j t ^ *.-.{ . % X H :.-...q d c P L L c c P c c c c c c L ",
"L L L L L L L L c k c k k K h T &.=.] 7 1 r y & G ;.-.! p c c c c c c c L c c c c c c ",
"c c L c c L c c k c c k k x k W -.-.D m l k K j $ O.-.) 1 c P c c c L c c c c c L c c ",
"c c L L L k c l x c c c K k h ' $.X.M N L k L j $ O.$.) 1 c c B c c c c c c c c c c c ",
"c c L L L L L c l k k c I k g s @ : d v l L K u V &.-.` a k P P c L c L c c c L c L c ",
"c c L U U U U L L L U c h k I l x y v c c K K t / ;.$.J s K L L c c c c P c c c c c c ",
"l c K U U U U U U L P l l c k K K K l c L l t C @.:.{ 7 l L k L c c c P c c c c c L c ",
"c c c c K L L U L P L P L L P L c L k c c u e %.:.$.F p l L c c L c c c c c L c c c c ",
"c c c c L c c l c c L Y Y L c l c l k j t C ;.:.-.9 b N l l l c c c c c c c c c c L c ",
"c c l c c c c c v c Y L U L l x l k x & R ;.-.-.w b N c I L U L c c c c P c c c c c c ",
"l c c L c c l l v c L Y L U c k c r 4 } ;.;.o.. b z c L k L L L c L c c c c c L c c P ",
"L L L L c c l v c c c L c L K K h - O.;.-. .@ d c P L k c L c L c c c c c c c c c c c ",
"c L L L c c l c c c c c k k K j = +.:.-._ 5 d U L U c l l L L c c c c L c c c c L c c ",
"c L L L c c c l l c c c k k k - | =.-.Q @ s c L U U c c c c c v P c c c L c c c c c c ",
"c c L L c c c c c c k c h j u E *.:.(   O 2 > ; < ; : 1 z c c l c c c L c c c L c c P ",
"L c L L L L L L c c L k x u & +.:.:.:.:.-.:.;.:.:.-.-.{ 1 l L U L c c c c c c c c c c ",
"c c c L L U L U U c L L x s A @.=.=.:.:.-.:.;.:.:.-.$.{ 1 l U K L c c c c P c c L c c ",
"c c l L c c c v c U L c k k h j a , : , + ; > > ; 1 0 1 z c L U L c c c c c L c c c c ",
"c c c c c l c c L L L U k c L k K L c c c L c c c P c L l l L K L c c c L c c c c c L ",
"c c c c c c c c c L P L c c c L L L c c c c c c c P c c c c c P c c c L c c c c L c c ",
"c c c c c c c c c c c c c c c c c c c c c c L c c c c c c L c c c c c c c P c c c c c ",
"L c c c c c c c c c L c c c c c c L c L c c c c c c c c c c c L c c c c c c L c c c c ",
"c c c c c L c c c c c c c c L c c c c c c P c c c c L c c c c c c L c c c c c c c L c ",
"c c c c c L c c L c c c c c c c L c c c c c c c c L P c c c c c c c c L c c c c L c c ",
"c c c c c c P c c c c c L c L c c c c c c c L c c c c c c c c c c L c c c c c L c c c ",
"L c c c c L c c c c c L c L c c c c c c c L c c c L c c c c c L c c P c c c c c c c c ",
"c c c L c c c c c c c c c c c c c c P c c c c L c c c c L c c c c c c c c L c c c c L ",
"L c c c L c c c L c c c L c c c c c c P c c c c c c L c c c c c c c c c c c c c P c L ",
"c c c L c c c L c c c c c c c P c L c c c c c c c c c c c c c P c c L c c c L c c c c ",
"c c c c c c c c c c L c c c c c c c c c c c L c L c c c L c c c c c c c c L c c c c c "
};
