/* XPM */
static char *blue_[] = {
/* columns rows colors chars-per-pixel */
"43 43 124 2",
"   c #130E72",
".  c #1A097C",
"X  c #121071",
"o  c #18137A",
"O  c #35176F",
"+  c #250B79",
"@  c #361073",
"#  c #0F0985",
"$  c #0F0B8C",
"%  c #1A0483",
"&  c #140B85",
"*  c #1A038C",
"=  c #15098F",
"-  c #031581",
";  c #081283",
":  c #05108E",
">  c #0A128E",
",  c #050F93",
"<  c #0B0D92",
"1  c #030D9A",
"2  c #080B9C",
"3  c #160297",
"4  c #1D0395",
"5  c #100D90",
"6  c #1B0895",
"7  c #120299",
"8  c #1E009F",
"9  c #02129B",
"0  c #161098",
"q  c #240285",
"w  c #24018E",
"e  c #28008B",
"r  c #2B009E",
"t  c #220999",
"y  c #340F93",
"u  c #3B1295",
"i  c #3E1C95",
"p  c #33159B",
"a  c #39249D",
"s  c #0C06A3",
"d  c #0B0AA3",
"f  c #0704AB",
"g  c #0D06AE",
"h  c #0A08AC",
"j  c #1505A2",
"k  c #1A03A4",
"l  c #140EA2",
"z  c #1F0AA3",
"x  c #1503AC",
"c  c #1B00AC",
"v  c #0110A7",
"b  c #0E04B5",
"n  c #0C0AB2",
"m  c #0D02BC",
"M  c #0E0AB9",
"N  c #1201B4",
"B  c #1A01B3",
"V  c #100AB4",
"C  c #1401BE",
"Z  c #1901BC",
"A  c #1209BA",
"S  c #2201A2",
"D  c #2200AA",
"F  c #310EAA",
"G  c #3110A7",
"H  c #2202B3",
"J  c #2100BC",
"K  c #2E3AAA",
"L  c #3636B2",
"P  c #46229C",
"I  c #4320A0",
"U  c #3F51BD",
"Y  c #5254AB",
"T  c #684EA5",
"R  c #6754AD",
"E  c #0E01C2",
"W  c #1401C2",
"Q  c #1A01C3",
"!  c #1108C2",
"~  c #1403C8",
"^  c #1903C9",
"/  c #1209C8",
"(  c #3132C0",
")  c #484FC4",
"_  c #435AC0",
"`  c #6F51C3",
"'  c #717FD8",
"]  c #767EED",
"[  c #737CF5",
"{  c #907ACD",
"}  c #997ECB",
"|  c #9A76D8",
" . c #AE91E5",
".. c #B997FF",
"X. c #B698F8",
"o. c #B89AFE",
"O. c #8FACE8",
"+. c #98A9E1",
"@. c #92A3FE",
"#. c #B7BEFF",
"$. c #BDBEFF",
"%. c #D6BBFF",
"&. c #DEBFFF",
"*. c #B5C4FF",
"=. c #B6C9FF",
"-. c #B8CFFF",
";. c #CCC0FF",
":. c #EED4FF",
">. c #F3D6FF",
",. c #F3D9FF",
"<. c #F9DDFF",
"1. c #DEE3FF",
"2. c #DAECFF",
"3. c #E1E6FF",
"4. c #E9E3FF",
"5. c #E6EFFF",
"6. c #F7EFFF",
"7. c #FEEBFF",
"8. c #EAF0FF",
"9. c #E9FBFF",
"0. c #F4F3FF",
"q. c #FDF4FF",
"w. c #F2FBFF",
"e. c #FCFAFF",
/* pixels */
"W W C C W Q C C W W W W C b m W E C C C m M m m W Q ~ ~ W C W C C W C C C W C C C C C ",
"E W C C W W C C C C W E b C C W W W C C m m m m C W W W W C C C C C C C C C C W C W C ",
"W C C C W Q C C C N E W W E W E E C C W W Q W W C A W W C C C C W C C W C C C C C C C ",
"C C N C W C C C b C W W W W W Q C C W W W Q W W C N C C C C N C C C C C C Q C C C C W ",
"C C C C W W C C C N C W W W C C N C C C Z Z C W C C W W C C C m m W C C C W C C W C W ",
"C C N C W W C N b C W W W W Z C Z B C C C C W W C W W C C C W W C Q C C C C C C C C C ",
"Q C C C C C C m E W W Q W Z N Z Z Z W Z C C E E W W C C C C C C C C C C C C C W C C C ",
"W W W C E W m W W Q W C C C C C C C W W C W W W W W C C m C W C C C W C C W C C W C C ",
"Q Q Q W C b E E E W W C C C C W C C C ! W W C C W E N B C C C W W C C C C C W C C C C ",
"W W Q E C C C C Q Q C C C C b ! m A g g B c c N C C C C C m W W C C W C C W C C C C W ",
"C W W E C b C N C N N A W E / / M h = & & = t 8 B Z C m ^ ^ C m C C C C C C Q C Q C C ",
"Z C W W C b C C C N Z C W E m h 1 ) 0.7.6.6.7.a 4 c C C W m C C C C C W C C C C C C C ",
"C C C C C N C C N Z b W m E h > 2.w.q.7.e.0.w.e.X.q c C m W W C C C C C C C C C C W C ",
"Z C C C m C W C Z N W ~ E n 2 *.9.e.{ + . X +.w.q.| k C C C Q W Q C C C C C W C C C C ",
"Q W C C C W W W N C ^ ~ E h K 8.q.} * k B 7 X =.q.&.S Q Z C b C C C C W W C C C C C C ",
"Q W W C C C W W Z Q W Q ~ h [ 8.7.i B Q Q b v @.e.>.F Q W C C N C C C C C C W C C W C ",
"Q W Q W C C W W W C C C W m g s k x N C Q b 9 @.e.<.G W m m C b C C C C W C C Q C C C ",
"W W W C C C W W W Z N N W W W C m Q N N x l ; 1.q. .r Q Z Q b C C C C C C C C C C C C ",
"C C C C N C C C C B N C W W C C W b V s =   3.0.7.I c C N Z C m C C C C C C C C C C W ",
"Z C N C C C W W C C C C W Q C C W C g $.0.0.e.4.O q B Q Z Z Q W W C C W W C C W W C C ",
"W W C C C C W W Q W Q C C C C C C C h #.0.6.e.e.>.@ S C W Q C W W C C C W C C W C C C ",
"W C C C C W W W W Q Q W C C C C Q m n 2 # o Y w.q.,.p c Z C W W C C C C C C C C C C W ",
"C C C C W W W W W C C W C W W W W W b M b x s L 8.0.o.e c C W C C C C C C C C C W C C ",
"C C C C C W W W C C C W E C b x N C E E m W E d =.w.:.u c C m m W C C W C C C W C C C ",
"C C C C C C W m C N C E E n < $ 6 k C W C C E d O.9.>.u c C C C C C C W C C C C C C Q ",
"C C C C C C W W m b ! W E V #.0.;.% D C B C M 9 -.w.%.e H Q b C C C C C C C C C C C C ",
"C W W W C W W E W Q m W ! f ] w.e.T w J C b v _ w.e...r B Q W W C W W C W C C C C W C ",
"C Z W W E E W W m W E C E n : 1.q.q.` * 6 = Y 8.e.<.y D Z W W W C C C C C C Q C C C C ",
"C C W W C C C C W C C A E m M ( 5.w.e.q.q.e.0.e.7.P D J Q m m C C C W C C C W C C C C ",
"C W W W W m C C Z C C C E E E f : ' 0.e.q.q.q.R q r B C C C ! m C C C C W C C C C W C ",
"N C W W W C C C C Q C Q C C N A h d 0 = 7 z 7 j B N B C Q W m W C W C Q C C C C C C C ",
"m C C W W C C C W W W W C N b C m m N C Q ~ W ! m Q N C C W W Q C C C C C C W C C C W ",
"C C C C W C C W C Q W C C C C C C C C C C W W W W C C C W C C C W C Z W C C C C C C W ",
"C W C C C C C C C C W C C C C C W C C C C C C C C C C C C C C C C C C C C W C W W C C ",
"C W W C C C C W C C W C C W C C C C C C C C C W W C C C C C C C C W W C C C C C Z C C ",
"C C C C W C C Z C C C C C C C C C C W C C W C C C C C C W C C W C C C C C C W C W C C ",
"C C C C C C C C W C C W C W C C C C C C C C C C C C C C C C C C C C C C C C W C C C C ",
"C W W C C W W C C C C C C C C C C W Q C C W C C W C W C W C C C C W W C C Q C C C W C ",
"C C W C C W C C C C C C C C W C C C W C C W W C C C W C C Z W W C W C C C C W C C W C ",
"C C C C C C C C C C C W C C W Z C C C C C C C C C C C C C C C C C C C C C C C C C C C ",
"C C C C C C C C W C C C C C C C C C C C C C C C C W C W C C W C C C W C C C C C C C C ",
"C W C W C C W C C C C W W C C W C W Q C C C W C C Z C C C C C C W C C C C C W C Q C C ",
"C W C Z W C C C C W C Z W C C C C C C C W C C C C W C C W C C C C C C C C W W C C C C "
};
