/* XPM */
static char *blue_[] = {
/* columns rows colors chars-per-pixel */
"43 43 15 1",
"  c #1401C0",
". c #1400CA",
"X c #143AE0",
"o c #6E00C0",
"O c #1466EA",
"+ c #953AC0",
"@ c #B966C0",
"# c #4590F5",
"$ c #B9B6EA",
"% c #FFB6D5",
"& c #95DBFF",
"* c #DCFFFF",
"= c #FFFFEA",
"- c #FFFFF5",
"; c gray100",
/* pixels */
"                                           ",
"                                           ",
"                                           ",
"                                           ",
"                                           ",
"                                           ",
"                                           ",
"                                           ",
"                                           ",
"                                           ",
"                                           ",
"                       X*-+                ",
"                      .&;-+                ",
"                      #;;-+                ",
"                     X*;;-+                ",
"                    .&;$;-+                ",
"                    #;%O;-+                ",
"                   X*=oO;-+                ",
"                  .&;@ O;-+                ",
"                  #;%  O;-+                ",
"                 X*=o  O;-+                ",
"                .&;@   O;-+                ",
"                #;%    O;-+                ",
"               X*=o    O;-+                ",
"               #;;;;;;;;;;;;%              ",
"               #;;;;;;;;;;;;%              ",
"                       O;-+                ",
"                       O;-+                ",
"                       O;-+                ",
"                       O;-+                ",
"                                           ",
"                                           ",
"                                           ",
"                                           ",
"                                           ",
"                                           ",
"                                           ",
"                                           ",
"                                           ",
"                                           ",
"                                           ",
"                                           ",
"                                           "
};
