/* XPM */
static char *blue_[] = {
/* columns rows colors chars-per-pixel */
"43 43 125 2",
"   c #15067B",
".  c #19057E",
"X  c #1C0879",
"o  c #15127D",
"O  c #200A76",
"+  c #24027B",
"@  c #120787",
"#  c #150B81",
"$  c #1B0C81",
"%  c #1D058C",
"&  c #0E0690",
"*  c #070D97",
"=  c #0B0F97",
"-  c #030C99",
";  c #0C099D",
":  c #140693",
">  c #1A0594",
",  c #140995",
"<  c #1C0B95",
"1  c #16039D",
"2  c #1B0299",
"3  c #15099A",
"4  c #1B099D",
"5  c #081194",
"6  c #041A92",
"7  c #05109D",
"8  c #0A129B",
"9  c #22048A",
"0  c #2D0089",
"q  c #3D0F8B",
"w  c #2D0B95",
"e  c #2A019F",
"r  c #3E1192",
"t  c #381F9E",
"y  c #3A238B",
"u  c #372094",
"i  c #0A04A4",
"p  c #050AA7",
"a  c #0B09A4",
"s  c #0B05AD",
"d  c #0609AE",
"f  c #0B08AB",
"g  c #1602A4",
"h  c #1B02A4",
"j  c #120BA7",
"k  c #1403AC",
"l  c #1A02AB",
"z  c #140CAF",
"x  c #1E08A8",
"c  c #0410A2",
"v  c #0D14A0",
"b  c #0510A8",
"n  c #0502B1",
"m  c #0D02B6",
"M  c #0B0BB1",
"N  c #0700B9",
"B  c #0E01BC",
"V  c #0608BD",
"C  c #1301B5",
"Z  c #1A01B5",
"A  c #130AB4",
"S  c #1401BE",
"D  c #1A01BC",
"F  c #1608BD",
"G  c #1908B9",
"H  c #2204A0",
"J  c #2B01A1",
"K  c #2000AB",
"L  c #3B17AF",
"P  c #2201B3",
"I  c #2600BC",
"U  c #2239AD",
"Y  c #243EB0",
"T  c #471B8E",
"R  c #462482",
"E  c #401CB0",
"W  c #4453B0",
"Q  c #7058AE",
"!  c #0F02C1",
"~  c #1401C2",
"^  c #1801C3",
"/  c #150BC2",
"(  c #1400CA",
")  c #1900CB",
"_  c #4455C7",
"`  c #4351D4",
"'  c #737AD5",
"]  c #737EEA",
"[  c #7678F1",
"{  c #757AFC",
"}  c #8C7C99",
"|  c #9A7CBC",
" . c #967AD1",
".. c #8C79E4",
"X. c #9473E4",
"o. c #6A84D2",
"O. c #B99ADD",
"+. c #A5A2D1",
"@. c #979FFF",
"#. c #BC97E4",
"$. c #BB96FF",
"%. c #90A8EE",
"&. c #8FAAF9",
"*. c #97A2F1",
"=. c #C0BEFF",
"-. c #D3BEFF",
";. c #DAB9FF",
":. c #B4C6FF",
">. c #BBC0FF",
",. c #DDC7F5",
"<. c #DBC0FF",
"1. c #EFD9FF",
"2. c #F4D3FF",
"3. c #CFE1FF",
"4. c #D1E2FF",
"5. c #D3EBFF",
"6. c #DBF4FF",
"7. c #E2E5FF",
"8. c #FEEDFF",
"9. c #EAF7FF",
"0. c #EBFDFF",
"q. c #F5F5FF",
"w. c #FDF4FF",
"e. c #F3FBFF",
"r. c #FCF9FF",
/* pixels */
"~ ~ S m A S S ^ ^ ~ ~ ! ! ~ ~ ^ ~ ~ D ~ ! ! ! S C C ~ ( ^ D S D S S ~ S S ~ S S S S S ",
"~ ~ S m S S D ^ ) ~ ~ ! ! B S ~ ~ ~ ~ ~ ! ! ~ S C D ~ ~ ^ D S B S S S S S S S ~ S ~ S ",
"~ ( ~ S S D S ^ ~ ~ S S S B ~ ~ ~ S S S S ~ ~ ~ D D ~ ~ ~ ~ S B ~ S S S S ~ S S S S S ",
"~ ~ S S S S S ~ S S S m A S ~ ~ B S S S S ~ S S ~ S S ~ ~ ~ ! B S S S ~ S S S S S ~ S ",
"~ ~ S B S S ~ S S D m S C S ~ ~ ~ B D S ~ B S D S S ! ! ( ~ ! B S ~ S S S S S S S ~ S ",
"~ ~ ~ S B S ~ S S S S C S D ^ ~ S S S S ~ ~ ~ ~ S S B B ! ( ! S S S S S S S ~ S S S ~ ",
"~ ~ ~ ~ ! ~ ~ S S C C S C S ~ ~ B S ~ ^ ^ ^ ^ ^ ~ S D B ~ ~ S ~ S S ~ D S ~ ~ S S ~ S ",
"S S ~ ! ~ ! ~ S S S D D S S ~ ~ S S ~ ^ D ~ ^ ^ ~ D D S ~ ~ D S ~ S S S S S S S S S D ",
"S S ~ S ~ ~ ! ~ ~ S S S ~ ~ / ~ S D C S S ~ ! / ~ B S S S D C D S S S ~ S S S S S ~ S ",
"S S S ~ ~ ! ! ~ S B ~ S ( ~ B B ~ S C C S ! / ! B B S S ~ D D C S S S S S S S ~ S S S ",
"S D S ~ ~ S B S ~ ~ ^ ~ ~ B / A A S m S S B ~ m B m C C S ) ~ ) ~ S S S S S S S S S S ",
"S S S ^ ~ S ~ B ~ ~ ~ ^ ~ B n s g : , , , : : , 3 4 l G D ~ ( ) ~ ~ S S ^ S S S S ~ S ",
"S S ~ ~ S S S S S ~ ^ ~ S m M { q.r.w.r.w.w.w.w.w.8.E P C C / ! ~ S S ~ S ~ S S S S ~ ",
"S S ~ S D D S B S ~ ~ ~ S M p @.r.r.r.r.w.w.w.w.w.8.L I D D ~ B S S S S ~ D S S S S S ",
"S ~ S S S C S C S ^ ~ S m f c &.w.,.X > , , , & , 2 Z D m B ~ ~ S ~ S ~ S S S ~ ~ S S ",
"~ ~ ~ S D S S S S S ~ S m f 7 >.w.O.e S A B B ! ! ~ ^ ^ S ~ ~ B S S S S S S S S S S S ",
"~ ! S S S D ^ ~ S ~ S B S A * =.8.#.2 ~ B ~ ! S B ! ^ D S S S S S S ~ S S ~ ~ S S S ~ ",
"! S S S S S ^ ^ / m S S m s 5 7.8.| X = & 3 1 g k m G D D S S D S S S S S S S S S S S ",
"~ ! S S S S S S ~ ~ ~ B C f 6 3.w.} +.e.r.w.w. .% l C C S ^ B ~ ~ S S ~ S ^ S S S ~ S ",
"! ~ S D ~ S C S ~ ( S S m p Y 6.r.w.r.r.r.r.w.8.8.u x G S ! ! ~ ~ S S S S S S S S S S ",
"S S C D S S C C S B ~ S ! M Y 6.w.w...% < @ ' e.w.1.w l D S ~ ~ ^ S S S S S S S S S ~ ",
"S S S C S S S S ~ ~ S S ~ s ` 9.8.y 2 P D C v W e.w.$.J Z ~ S S S S S S S ~ S S ~ S S ",
"~ S S S ( ~ ( ~ ~ ! B / C C A i 1 g Z ~ B B n = :.q.2.T l ^ S S S S S S S S S ~ S D ~ ",
"^ S S C ~ ~ ~ ~ ~ ~ ~ ~ D D S S S C ^ ~ S S / f o.0.8.T K ~ S S S ~ S S S ~ S S S S S ",
"~ ^ S D S S S S S S m ~ ^ ^ D B S S ~ ~ ^ ~ ~ a o.0.8.T h ~ S S S S ~ S S S S S ~ D S ",
"~ S S S B S S S B m / S ~ C j 3 g k S ~ ^ ~ / ; %.e.2.q h S B S S S S S S ~ ~ S S S S ",
"D S S ~ S ! ~ ! ~ B S S ~ A 4.0.<.% l D S ^ N 8 5.e.;.0 P S F N S S S ~ S S ~ S S ~ ~ ",
"S S S S ~ ! ~ S S F C C ~ a &.0.w.R 9 h l g - ] e.r.X.J Z S B m S S S S S S S S S S S ",
"S B S S ~ ! S S S A S S ~ M U 6.r.8.Q X   o *.q.w.<.: Z S ~ S S S ~ S S S S S S S ~ S ",
"! S D S ! ~ D S S B S S ~ m b _ e.r.8.8.8.q.e.w.;.+ g B ~ ~ S S S S S S S ~ S S S S S ",
"~ ~ S S ~ ~ S S S S S ~ ~ S B d - [ 8.8.q.q.8.u < h G S ~ ^ S S S S D S S ~ ~ S S S S ",
"~ ~ S ~ ( ~ ~ ~ ~ S ~ S ~ ~ ! ! V a <   o @ % e Z S S S ~ ~ S m ~ S ~ S S S S S S ~ S ",
"~ S S ~ ~ ~ ~ ~ S S S S ~ S ~ ~ S C C k j k l Z S ~ S S S ^ S S S ~ S S ~ S S ~ S S ~ ",
"S S S S S ~ S S S S S S S S S S ~ S S S S S S S S S S S S S S S S S S S S S S S S S S ",
"S S S S S D ~ S S S S S S S S S S S S S S S S ~ S S S S ~ S S S ~ S ~ S ~ S ~ S S S S ",
"S S ~ S S S S S ~ S S ~ S S ~ S S ~ S S ~ S S S S ~ S S S S S ~ S S S S D S S S ~ S S ",
"S ~ S S S ~ S S S ~ ~ D ~ S S S S S ~ ~ S S S S S S S S S S S S S S S S S ~ S S S S S ",
"S S S ~ S S ~ S S S S S S S S ~ S S S D ~ S S S S ~ ~ S ~ S S S S S S S S S S ~ S ~ S ",
"S S S S S ~ S S S S S S S S S S ~ S S S S S S ^ S ~ S S S ~ S ~ ~ S S S S S S S S S S ",
"S ~ S S S S S S ~ S ~ S S ~ S S S S S ~ S S S S S S S S S D S S S S ^ S S ~ S S S ~ S ",
"S S S S S S S S S S ~ S S S ~ S S S S ~ S S ~ S S S S ~ S S ~ S S ~ S S ~ S S ~ S S S ",
"S S ~ S S S ~ ~ S S S S S S S S ~ S S S S S S S S ~ S D S S S S S S S ~ S S S S ~ D S ",
"~ S S S S ~ S D ~ S S S S S S ~ S S S S ~ S S S S ~ S S ~ S S S S S S S S S S S S S ~ "
};
