/* XPM */
static char *blue_[] = {
/* columns rows colors chars-per-pixel */
"43 43 146 2",
"   c #0D057C",
".  c #1F067E",
"X  c #1A0878",
"o  c #161072",
"O  c #14127F",
"+  c #270576",
"@  c #24097C",
"#  c #421C7F",
"$  c #0D0889",
"%  c #160784",
"&  c #1E0384",
"*  c #150B83",
"=  c #1D0982",
"-  c #16058E",
";  c #19088B",
":  c #04108A",
">  c #151182",
",  c #1D118F",
"<  c #0D0596",
"1  c #0F0798",
"2  c #030D9B",
"3  c #090E9E",
"4  c #160395",
"5  c #1D0393",
"6  c #10069A",
"7  c #1C069E",
"8  c #110C9C",
"9  c #001093",
"0  c #0A1291",
"q  c #02119A",
"w  c #240086",
"e  c #24038B",
"r  c #331682",
"t  c #3E128B",
"y  c #200594",
"u  c #200A90",
"i  c #21029D",
"p  c #300092",
"a  c #370F94",
"s  c #32109B",
"d  c #3E1B9B",
"f  c #2A3F9C",
"g  c #3C3896",
"h  c #010CA5",
"j  c #0B0AA6",
"k  c #0E07AD",
"l  c #0309AB",
"z  c #0C0AA9",
"x  c #1505A6",
"c  c #1C02A3",
"v  c #1409A3",
"b  c #1402AC",
"n  c #1C01AB",
"m  c #100AA8",
"M  c #0111A5",
"N  c #0816AD",
"B  c #0D03B5",
"V  c #0609B7",
"C  c #0D09B2",
"Z  c #0E02BC",
"A  c #030DBD",
"S  c #0C08B9",
"D  c #1502B4",
"F  c #120AB4",
"G  c #1808B0",
"H  c #1401BF",
"J  c #1A01BC",
"K  c #2400A6",
"L  c #3D0FA5",
"P  c #3311A4",
"I  c #2400B5",
"U  c #2900B2",
"Y  c #2500BD",
"T  c #203AAB",
"R  c #343CA4",
"E  c #3737A9",
"W  c #3038B7",
"Q  c #3236BB",
"!  c #42169D",
"~  c #401D9F",
"^  c #402782",
"/  c #492297",
"(  c #4616A0",
")  c #461AA3",
"_  c #432AAC",
"`  c #5157AB",
"'  c #6E4EB9",
"]  c #6951B3",
"[  c #0607C1",
"{  c #0E01C1",
"}  c #1401C2",
"|  c #1902C3",
" . c #1409C7",
".. c #1601C8",
"X. c #1A06C9",
"o. c #2501C5",
"O. c #4456C6",
"+. c #4053D4",
"@. c #6B4DC7",
"#. c #6B7CE4",
"$. c #7077EB",
"%. c #6E7DF2",
"&. c #8C78BD",
"*. c #9D6EDE",
"=. c #8B76D3",
"-. c #9D75D6",
";. c #9372DB",
":. c #6D80E6",
">. c #8E9EF5",
",. c #919FFF",
"<. c #BA94E7",
"1. c #B89CE7",
"2. c #AF9CFF",
"3. c #94A2FE",
"4. c #99A2FF",
"5. c #C4BAFF",
"6. c #CBBCFF",
"7. c #DAB6FF",
"8. c #D0BCFF",
"9. c #B3C5FF",
"0. c #BFC2FF",
"q. c #B5C9FF",
"w. c #CEC1FF",
"e. c #D8C6F0",
"r. c #D8C1FF",
"t. c #DBCBF8",
"y. c #F0CEFF",
"u. c #EED0FF",
"i. c #EED9FF",
"p. c #F5D6FF",
"a. c #F0DBFF",
"s. c #D4E2FF",
"d. c #DAEEFF",
"f. c #DEF4FF",
"g. c #EDE2F3",
"h. c #ECE5FF",
"j. c #E2EEFF",
"k. c #E9E8FF",
"l. c #FEECFF",
"z. c #E3F2FF",
"x. c #EBF0FF",
"c. c #EEFCFF",
"v. c #F3F4FF",
"b. c #FDF4FF",
"n. c #F3FAFF",
"m. c #FCFAFF",
/* pixels */
"H H H H H H } H H H H H H H H H H H H } D H H H H H H H | } H H H H H H H H H H H H H ",
"} H H H H H H H } H H H H } H H H H { } H H H H } } H H } } Z D H H H H H H H H H H } ",
"H H H } H } H H H H H H H H H H H H ....Z H H D } ..} H } Z H H H H H H H H H H H H H ",
"H H H H H H H H H H H } H H H } H H } ..H H D H } { H } } } H D H H } H H H H | H H H ",
"H H H H H H H } H H H H H H } H H H } } H H Z Z Z { { ......H H H } H H H H H H H H } ",
"H H | H H H H H H } H H H H H H H H } } H H H } H Z } } ....} } H H H H H } H H H } H ",
"H H H H } H H H H H H H H H H H H H H H H H } } H H H } } } } { H H } H J } H H H H H ",
"H H H H H H H H H H H H } H H H H Z Z H H H } H J H H H } } } Z H H H H H H H H H H H ",
"H H H H H H } H H H } H H H H H H H H D H } H D D H H H } | H H H H H H H H H } H } H ",
"H } H H H H H H H H H H H H H H H H D H | Z Z H H H H H | } D J H H H H H H H H H H H ",
"H H H H H H H H H } H H H H H H D } Z ...... .Z D B | ..| | H D H } H H H H H H H H H ",
"H H H } H H } H H H H H H H H H H B C F x c < < 7 n D H H H H H J H H H H } H H H H H ",
"H H H H H H H H H H H H H H H H H z : 3.b.b.m.b.w.@ K b D H H } H H H H H H H H J } H ",
"} H H } H H H H H H H H | H H H k Q z.n.m.m.b.m.m.l.@.i b Z H } H H } H H } H H } H H ",
"H H H H | H H H H H H H H H H k 0 s.n.m.=.. ; E j.n.y.t n H } { } H H } H H H H H H H ",
"H H H H H H H } } H H H H H H j 3.c.m.&.e n D j f j.l.*.c H } } H H H H H H H } H H H ",
"} H } H H Z { ..} } D H H Z A h d.v.r.+ 7 D } H 2 0.l.7.n J H J H H H H } H H H H } H ",
"} } | } H H } { { H H D J H A +.c.m.;.e 4 x D D m 1 u y b H H H H H H H H H H H H H H ",
"H } } } H H H } ..Z } J H B l %.m.b.d i ; * * - - 7 x b H } H | | H H H H H } H H H H ",
"H H H } D H H H } Z H H D C N 3.m.i.r _ h.m.v.l.6.= c D D ..} ..} H H H H H J } } H H ",
"Z Z } } H H H H H } ..| } C 2 3.m.g.t.b.v.v.m.v.m.b.' e H { } H H H H H H H H H H H H ",
"H H H H D H H J H Z ..{ Z C 9 q.m.m.m.w.o >   g k.m.l./ b Z } Z H H } H H H H H H H H ",
"H H H H H H H H H H | { H F q 9.m.m.] 5 x m G 6 R k.b.<.K H H H H H H H } H H } H H } ",
"} H H H H H H H D H }  .} V q 3.m.e.w I H } H B 3 4.m.p.P J H J } H H H H H H H H H H ",
"} H H H H H H H H D H Z } Z h 3.m.p.L Y | ..Z V h #.m.b.) U H H H H H H H H H H H H | ",
"} H H H H H } | H D Z H } Z V $.m.m.! U o.{ Z V M :.m.b.! U H Z } H H H H } H H H H H ",
"H H H H H H } | H H B H } { S W z.m.-.p b } | C q >.m.a.s Y H H H H H H H H H } H H H ",
"H H H H H H | } H F H H  ...Z 3 q.n.b.# 5 b b 8 R j.m.1.7 J H H } H H H H H H H H H H ",
"H H } } H } } } } H Z Z ..} } l T f.m.b.^ X O ` v.m.y.a n | H } } H H H H H } H H H H ",
"D H } { } { } } } H H Z | } H S M O.m.m.l.l.v.n.m.b.~ K J H ..H } H H H H H H H } H H ",
"H H } } } } } } } Z H H | | H B V z $ 5.l.l.v.v.2.& c J H | H H } H H H H H H H } H H ",
"J D ..} Z } H | } } { H H | H H } Z F x - ; = % 5 n D H H H H } H H H H | H H H H H H ",
"H H H } H H H H H H H H H H H H } H H D b b x b D H H H H H H H H H J } H H } H H H H ",
"H H H H H H H } H H H H } H H H H H H H H H H H } H H H H H } H H H } H H H H H H H H ",
"H H H H H H H H H H H H H H H H H } H H H H H H H H H H H H H H H H H H H H H H H H H ",
"H H H H } H H H H | H H H H H } H H H H H } H H H H H H H } H H H H H H H } H } } H H ",
"H H H H H H H H H H H H H H H H H H | H H H H H H H H H H H H H } H H H H } H J H H } ",
"H } H H H H H } H H H | H } H H H H H H } H H H H H H H } H H H H H H H H H H H H H H ",
"H H H } } H H H H H H H H H H H H H H H H H } H H H } H H H H } H H } H H H H H H H H ",
"H H H H H H H H } H H H H H } H H } H H H H H H H H J } H H H H H H H H H H H } H } H ",
"} H H H H H H H H H H H H H } H H | H H H H H H H H H H H H H H H H H H H H H H H H H ",
"H H H H | H H H H H H H H H H H H H H H H H H H H H H H H H } H H } H H } H H H H H | ",
"H H H H H H H } H H H } H H H H H H H H H H } H } H H } H H H H H H H H H H H H H H H "
};
