/* XPM */
static char *blue_[] = {
/* columns rows colors chars-per-pixel */
"43 43 95 2",
"   c #131858",
".  c #12116F",
"X  c #14067F",
"o  c #150C7E",
"O  c #190A7F",
"+  c #140C85",
"@  c #1A0A85",
"#  c #140B8A",
"$  c #0E0C93",
"%  c #0A0A9C",
"&  c #1E0393",
"*  c #140A91",
"=  c #1C019B",
"-  c #11089F",
";  c #081693",
":  c #0A1299",
">  c #2B0187",
",  c #2B008D",
"<  c #21009C",
"1  c #330E9C",
"2  c #34149B",
"3  c #0B04A5",
"4  c #0308A4",
"5  c #0A0AA0",
"6  c #0E05AC",
"7  c #020AAD",
"8  c #0E08AC",
"9  c #1400A5",
"0  c #1D00A4",
"q  c #1009A5",
"w  c #1305AA",
"e  c #1A02AC",
"r  c #1908AD",
"t  c #0413A2",
"y  c #0C03B4",
"u  c #0608B3",
"i  c #0E01BC",
"p  c #0C08BD",
"a  c #1403B5",
"s  c #1C00B2",
"d  c #1401BF",
"f  c #1900BD",
"g  c #1608BD",
"h  c #2503A0",
"j  c #2000AD",
"k  c #2C00A9",
"l  c #2E0DB6",
"z  c #2602BE",
"x  c #3612B4",
"c  c #263BAB",
"v  c #3034B9",
"b  c #481D93",
"n  c #451F98",
"m  c #4B228C",
"M  c #50228F",
"N  c #425AB0",
"B  c #0F02C1",
"V  c #1401C2",
"C  c #1901C3",
"Z  c #1708C7",
"A  c #1A03C8",
"S  c #4956C9",
"D  c #4A53D2",
"F  c #6A48C0",
"G  c #7149C4",
"H  c #7352C3",
"J  c #747FEB",
"K  c #9573BF",
"L  c #9A75C5",
"P  c #9B75CA",
"I  c #9679CB",
"U  c #7285CA",
"Y  c #6C82D5",
"T  c #8F9EFF",
"R  c #9B97FF",
"E  c #9E99FF",
"W  c #BA99F2",
"Q  c #B894FE",
"!  c #BE98FD",
"~  c #99ACF8",
"^  c #B2C4FF",
"/  c #E5D0FF",
"(  c #E9D2FF",
")  c #F1D8FF",
"_  c #D4E4FF",
"`  c #D8E9FF",
"'  c #E6E4FF",
"]  c #FFE7FF",
"[  c #FFECFF",
"{  c #E3F4FF",
"}  c #EDFBFF",
"|  c #F6F3FF",
" . c #FDF2FF",
".. c #F2FBFF",
"X. c #FCFAFF",
/* pixels */
"d d d d d d d B d d f d d d V V B d i d V V V d d d B V d d V V V d d d V d d d d d d ",
"C d d d d d d d a d d d d d B V V i i d V V V d d d V V i d V A V d d d d d d d f V d ",
"d f d V i d d d d d d d d d V V Z V d d d V d d d d d d d d V V d d d d d d d d d d d ",
"d d d d V B d d d f d d d f d V V V d i d d d d d d d a V d d d V d d d d d d V d V d ",
"d d d d d d d d d f d f d V V V V V d i V V d f C V d B B V V V f V d d d d V d d d d ",
"d d d V i V d d d d d d V V B V C V d d d V V f C V i V B V d d d d d d d d d d d d d ",
"d V d d V i V d V C V V V V d d C d d a i d V d f d d i d a d d d d d d d d d d d d d ",
"d d d d d d d d V V f V d d d d f d a d i d d d f d V B a d d a d d f V d d d d d V d ",
"V V d d d d d d V d V d V d d y d d a d i i d d V C A d i g d d d d d g d d d d d V d ",
"C d d d i d d d V Z V V V d g i a d V B d a d d C d V V i a d d d d d V V d V d d d d ",
"V V d d i V d d V V V d a d y i V V V V d i a d d d f f d d Z i d d d d d d d d d d d ",
"d V d d a d V d V V V V d y g a a a a r w q w 3 9 r 9 e d A i V V d d d d d d d d d d ",
"V V d d d d d d V A d i d g 8 3 # + + @ + + + + + o O & e f d d d f d d d d d V d d d ",
"V V d d d a d d V B V d i y a R | [  .[  . .| |  . . .( l C d f d d d d d d d d f V d ",
"V V V d d a d d V V Z i i y u R |  .[  . . .| | |  . .) x f a d d d d d d d d d d d d ",
"V V d d d i d d d V i V g y y q # o O @ @ + o .   '  .L < f f a d d d d V d d d d V d ",
"V d d d d d d d d d V d d d a a w 9 w w 3 a w $ U } [ b 0 a d d d d d d d d f d d d d ",
"d d d V V d d d d d d d d V V d V V i a Z V i % ^ ..! , 0 a f d d d d d d V d V V d d ",
"d d d d d d d d d g d d d d d V V V V g a V u D ..X.F < s a d V V d d d d d d d V d d ",
"d d d d d d V d d V d d d d d V A B i i V y t T X./ 2 j a d V V V d d d d d d d d d d ",
"d d d d d d d d d d V d d d d d V V V B V 8 c {  .L & a i i Z V C d d d d d d d d d d ",
"d V d d d d d d d d d d d V d d d d V B i 4 Y } ] M 0 d d i V V V d d d d V d d d d d ",
"d f d d d V d d V d d d d d d d a d V B p : ` X.! , s d d d V C V d d V d d d d d d V ",
"d d V d d d d d d d d d f d d d d d d a 7 S ..X.G k f i i V d d d d d f d d d d d d d ",
"V d d d d V d d d V d d d d V d V d d u : ^ X.) 1 z d V V V d a d d d d d d V d d d d ",
"d d d d d d d d d d d d d d d d V d d 6 c {  .K h C V V V V a d d d d d d d d d d g V ",
"d d d d d V d d d d d V V d d d V V V 5 ~ } [ m 0 V V V C d d a d d d d d d d d V d d ",
"d d V d d d d d d d d d d d d d d d u v { X.W , s V V d C V i B d d d d V d d d d d d ",
"d V d d d d f V d d d d d d d d V g 4 J X. .H < d V a d d V d d V d d V d d d d d d d ",
"d d d d d d V g d V d d d d d d d 6 ; _  .) 2 s a V d d d V C d f d d d f d d d d d V ",
"d d d d d d d d d d d d d d d V V 8 N }  .P = V V V d f V B d f d d d V V d d V d d d ",
"d d d V d d d d d d d d d V V V V 8 _ } [ n s V B V d d B V f f d d d d d d d d d d d ",
"d V d d d d d d d V d V d d d d V a q - = e d d d d d d d d V d d d d d V d d f V d d ",
"d d d d d V d d d d d d d d d d d d V V d d d d d d V d d d d d d d d V d d d d d d d ",
"d V d d d d d d f d d d d d d V d d d V d d d V d d d d d d V d d d d d d d d V d d V ",
"d d d d d d d d d V d d d d d d V f d d d d d d d d d d d d d d V d d d d d d d d d d ",
"d d V d d d V d d d V d d V d d d d d d d g d d d V d d d f d d d d d d d d d d V d d ",
"d d f d d d d d d d d d d d d d d d d d d V d d d d d d d V d d d d V d d d d d d d d ",
"d d d d V d d d d d d d V g d d d V d d d V d d d d d V d d d d d d f d d V d d d d d ",
"d V d d d d d d V d d d d V f d d d d d d d d d d d d d d d V d d d V d d d d d d d d ",
"d d d d d d V d d d d d d d d d d d d d d V d V d d d d d d V d d d d d d d C d d d d ",
"d V d d d d d d d d V d d d d V d V d d d d d d d d d d d d d d d d V d d d d d d d d ",
"d d f V d d d d d d d d d d d d d f d d d d d d d V d V d d d d d d d d d d d d V d d "
};
