/* XPM */
static char *blue_[] = {
/* columns rows colors chars-per-pixel */
"43 43 143 2",
"   c #250956",
".  c #170867",
"X  c #191166",
"o  c #0F0F7F",
"O  c #1C0E70",
"+  c #1D047A",
"@  c #07167D",
"#  c #09157D",
"$  c #21087D",
"%  c #492676",
"&  c #060F84",
"*  c #0A068F",
"=  c #0C0C8C",
"-  c #130B84",
";  c #1A0B82",
":  c #15028F",
">  c #1F0489",
",  c #100D8E",
"<  c #06128C",
"1  c #0B158E",
"2  c #11108F",
"3  c #0E0390",
"4  c #070D95",
"5  c #01069E",
"6  c #0E0699",
"7  c #0C0B9A",
"8  c #160696",
"9  c #1E0090",
"0  c #1B0A96",
"q  c #15039D",
"w  c #1C019A",
"e  c #15099D",
"r  c #0D1095",
"t  c #04139E",
"y  c #270285",
"u  c #2B0481",
"i  c #24018A",
"p  c #2E008D",
"a  c #3F1B87",
"s  c #34128A",
"d  c #240293",
"f  c #220A92",
"g  c #220699",
"h  c #29009C",
"j  c #3D1C9C",
"k  c #0C00A6",
"l  c #0A0BA3",
"z  c #0604AD",
"x  c #0B05AB",
"c  c #050BA8",
"v  c #0C08AC",
"b  c #1201A2",
"n  c #1C04A3",
"m  c #1208A4",
"M  c #1503AB",
"N  c #1E02AC",
"B  c #100AAA",
"V  c #1A08AA",
"C  c #0010A3",
"Z  c #0A12A5",
"A  c #0D11A8",
"S  c #0D03B4",
"D  c #0709B3",
"F  c #0C09B3",
"G  c #0605BB",
"H  c #0E02BC",
"J  c #0C08BF",
"K  c #1301B6",
"L  c #1B01B3",
"P  c #130AB5",
"I  c #1B09B5",
"U  c #1401BF",
"Y  c #1A00BC",
"T  c #1008BD",
"R  c #2300A5",
"E  c #2000A8",
"W  c #3515A7",
"Q  c #2300B1",
"!  c #2400B9",
"~  c #3639AE",
"^  c #2D34BB",
"/  c #3431BC",
"(  c #431E90",
")  c #431AAA",
"_  c #4B57A3",
"`  c #4D59A1",
"'  c #465BAC",
"]  c #5057A8",
"[  c #475BB4",
"{  c #714DAF",
"}  c #6B49BA",
"|  c #724FB7",
" . c #7550BA",
".. c #0F02C1",
"X. c #1401C2",
"o. c #1902C3",
"O. c #1501C9",
"+. c #1A00C8",
"@. c #2203C1",
"#. c #4A54C3",
"$. c #4B51CD",
"%. c #5052C3",
"&. c #4E50D9",
"*. c #6D7EC4",
"=. c #757CD4",
"-. c #6E78E9",
";. c #987AB8",
":. c #8B7ECD",
">. c #947BCF",
",. c #8F78D2",
"<. c #9672D2",
"1. c #9875D3",
"2. c #9772DB",
"3. c #8D73EE",
"4. c #9472E3",
"5. c #9776E9",
"6. c #6C80E1",
"7. c #9FA6DD",
"8. c #929EFF",
"9. c #AB9BF3",
"0. c #BC9BF4",
"q. c #8DA0FE",
"w. c #93A4F2",
"e. c #91A3F9",
"r. c #9EA1FE",
"t. c #C09EDB",
"y. c #DDBEFD",
"u. c #B7C4FF",
"i. c #D1C9F2",
"p. c #D8C1FF",
"a. c #ECD8FF",
"s. c #F4DDFF",
"d. c #D6E1FF",
"f. c #DBE5FF",
"g. c #E7EDFF",
"h. c #FEECFF",
"j. c #E4F4FF",
"k. c #EFF6FF",
"l. c #EDFEFF",
"z. c #F4F4FF",
"x. c #FDF4FF",
"c. c #F4FBFF",
"v. c #FBFAFF",
/* pixels */
"....X.X.X.X.U Y U U U U U U U X.H X.X.U K K U K U K K U U U o.Y U U U U X.U U U U U U ",
"X.X.U X.U X.U U U U X.U U U U X.X.H X.U U U U U K U U U U X.X.U X.U U U U U U U X.U U ",
"..X.X.X.Y U U o.U U U U X.U H H X.U U U U X.X.X.U U U Y O.O.U U U U U U U Y X.U U U U ",
"X.U U X.X.U U U X.U U ..U U X.U ..U U U o.O.O.X.U T U U O.X.U H U U U U U U U X.U X.U ",
"U X.U o.U U U X.U U U U U X.U U X.U K Y o.O.X.T ..X.X.O.X.X...H U U U U X.Y U U U U U ",
"o.o.Y U U U U U X.H H X.H H U U U U U U X.X.X.K ....O.X.X...U H U U U U U U U U U U X.",
"Y Y Y X.U U U U U U U U X.U U U U U X.U U K U U U H ..X.X.H X.X.X.U U U X.U U X.X.U U ",
"Y X.U U U X.U U X.U U U U X.U U U U X.X.U H U U H K X.U U X.X.X.X.X.U U U U U U U U Y ",
"X.U X.U U H X.U X.U U o.U U o.U X.T U o.S X.S U U U K Y K K U X.Y X.U U U U U U U U U ",
"U U U U X.T H X.T X.U U U Y U U H H K S P k M M L Y Y Y Y U U H U U X.U U U U U U X.U ",
"U X.U H H ..H X.U X.U U X.U U T U S l 4 = - ; f n Y Y o.T o.H U U U U U X.U U X.U U U ",
"U U U X.X.H ..U U Y Y U U U U S x r #.z.z.z.z.h.3.d N Y U H O.X.U U X.U U U U U X.U U ",
"U U U U U H H X.U U Y X.U U J x 1 f.x.x.z.z.z.c.x.x.( R K O.X.X.X.U U U U U U U U Y X.",
"U U U U H X.U U U U U X.U H G A e.c.x.;.O o # _ c.x.y.i N H O.X.X.U U U X.U U X.U U U ",
"X.U U U X.U X.U Y Y U U H H G ^ j.x.0.u q x B = *.c.h.| V U K U U U X.U U U U U U X.U ",
"X.X.X.U U U U U U X.U T G S ..&.c.v.2.d I ..U l [ l.x.1.q o.Y K Y U U U U U U U U U U ",
"X.O.X.U U U U U X.X.H H G K T / j.c.<.p L U X.B ' c.h. .n U K U X.U U U U U U U U U X.",
"X.X.X.U U U U U H H X...U H U 7 w.l.h.( g V b = f.c.y.u b U T U Y U U X.U U X.U U U U ",
"U U U U Y U U K U K U U X...O.S 4 f.x.x.,.. _ l.c.h.j R K X.X.H U U U U U U U U U X.U ",
"U U U U U U U U U T U O.X.....J c & 7.z.x.x.l.l.i.  g L Y X.U O.U X.U U X.U U U U Y U ",
"U U U K U U X.U K K o.o.O.X...z Z # f.c.v.x.l.l.x.% i Q ! o.O.U U U U U Y U U U U X.U ",
"H U U U U X.X.H U U o.X.O.H F l -.k.v.x.7.X ` c.x.h.4.d L o.U X.U U X.U X.X.U U U U U ",
"X.X.U K X.X...X.U X.o.+.X.S 5 #.v.x.p.+ * q 6 2 r.v.x.>.q X.U X.T X.X.U U U U U U U U ",
"X.U U U X.X.X...X.U +.+.U P t u.x.s.s n M S U k < u.v.a.W Y X...U U U U U U X.U U U X.",
"X.X.Y U U X.X...U X.X.X.H F t f.x.t.d M U T U S C -.v.x.) ! Y X.U U U U o.U U U Y U U ",
"..X.U U U X.X.H T K X.o.T z C f.x.p.i L U Y U z t q.v.x.) ! Y U U U U U U U U U X.U U ",
"X.X.U Y X.X.H H K S U U T S c e.v.v.a h Q U G l @ g.h.y.0 Y Y K U U U X.U U U U U U X.",
"X.X.U U U X.U T K P U T H T D ^ j.v.h.} i 0 * ~ j.z.h.{ n H U K U U U U U U U X.X.U U ",
"U U U U X.Y X.U K K K ..U H J v $.k.v.z.v.x.v.v.x.h.5.d I U S U U U U U U X.U U U U U ",
"U U U U U U U U U U X.K U T H K v r =.c.v.v.v.x.9.$ w E K H Y U U U U U U U U U U U U ",
"U U X.U U X.U U X.X.X.U U X.U K U k e 3 8 8 8 e V M M K O.X.X.H U U X.U U Y U U U U X.",
"X...X.X.U Y U X.X.X.X.X.U U o.K U T U U U O.o.....X.U U o.X...X.X.U U U U X.X.U U U U ",
"X.U U U U X.U X.X.X.X.U U U Y X.U U U U U X.U U X.X.U U o.U X.X.U U U U U U X.U U U U ",
"U U U U U U U Y U U U U U U X.U U U U U U U U X.U U U U X.U U U U U X.U U U U U X.Y U ",
"U U X.U U U U U U U U U X.U U U U U U U U X.U Y U U U U U U U X.X.U U U U U U U U U U ",
"U U U U U X.U U U U U X.U U U U U X.U U U U U U U U X.U U U U U U U U U X.U U U X.U U ",
"X.U X.U U U U U U U X.U U U U U U X.U U U U U U U U U U X.U U U U U U U U U U U U U U ",
"U U U U U U U X.U U U U U U U X.U U Y X.U U U U U X.U U U U U U U U U X.Y U X.U U U U ",
"U X.U U U U U U U U U U U o.U U U U U U X.U U o.U U U U Y U U U U U U U X.U U U X.U X.",
"U U U U X.U U U U X.U U U U U U U U X.U U U U U U U X.U X.U U X.X.U U U U X.U U U U U ",
"U U U X.U U U U U U U U U U U U U U U U X.U U U U X.U U U U U U U U U U U U X.U U U U ",
"U U U Y U U X.U U U U X.U X.U U X.U U U U U U U Y U U U U U X.U U X.U U U U U U X.U U ",
"X.U X.U U U U U U X.U Y U X.U U U U U U U U U X.X.U X.U U U U U U U U U U X.Y X.U U U "
};
