/* XPM */
static char *blue_[] = {
/* columns rows colors chars-per-pixel */
"43 43 128 2",
"   c #0E1565",
".  c #19057E",
"X  c #100D78",
"o  c #21067B",
"O  c #210F7D",
"+  c #42247E",
"@  c #0F078E",
"#  c #090C8D",
"$  c #1C0287",
"%  c #120F84",
"&  c #180E81",
"*  c #1A048A",
"=  c #170889",
"-  c #04128F",
";  c #0A148D",
":  c #02188F",
">  c #16168E",
",  c #070990",
"<  c #080C91",
"1  c #060C9D",
"2  c #0C0D9B",
"3  c #160296",
"4  c #1D0395",
"5  c #160893",
"6  c #1F0894",
"7  c #15049A",
"8  c #1C039B",
"9  c #15089B",
"0  c #1C0999",
"q  c #00149B",
"w  c #0D129C",
"e  c #121598",
"r  c #220082",
"t  c #2E0086",
"y  c #240195",
"u  c #25009B",
"i  c #323C95",
"p  c #0504A6",
"a  c #0E02A1",
"s  c #0409A3",
"d  c #0A0BA5",
"f  c #0503A9",
"g  c #0A05AD",
"h  c #0C0BAC",
"j  c #1406A5",
"k  c #1B03A3",
"l  c #1A0DA3",
"z  c #1604AC",
"x  c #1A00AC",
"c  c #0D14A0",
"v  c #1111A5",
"b  c #0500B3",
"n  c #0D03B4",
"m  c #0D0BB2",
"M  c #0E02BC",
"N  c #1302B4",
"B  c #1C01B3",
"V  c #1808B3",
"C  c #1401BE",
"Z  c #1A01BD",
"A  c #1109BB",
"S  c #2000A4",
"D  c #2200AF",
"F  c #320EA2",
"G  c #3F1DA5",
"H  c #3513A8",
"J  c #2402BB",
"K  c #2D3AAC",
"L  c #47248A",
"P  c #2E40A2",
"I  c #3F56B3",
"U  c #4853A5",
"Y  c #425BB7",
"T  c #4651BB",
"R  c #6754A5",
"E  c #694FB4",
"W  c #6E4EBB",
"Q  c #794AB2",
"!  c #6D52B9",
"~  c #7252B7",
"^  c #0F01C1",
"/  c #1401C2",
"(  c #1902C2",
")  c #140AC1",
"_  c #1402C9",
"`  c #1A02C8",
"'  c #1509CA",
"]  c #1809C8",
"[  c #504ECD",
"{  c #704FC4",
"}  c #767FDA",
"|  c #7479EE",
" . c #9673C7",
".. c #8874E5",
"X. c #969AFF",
"o. c #9C99FF",
"O. c #BC9BE2",
"+. c #95A0EF",
"@. c #95A8EC",
"#. c #BDBFFF",
"$. c #C09DDD",
"%. c #C39CE4",
"&. c #CCBCFF",
"*. c #D4BAFF",
"=. c #DCBDFC",
"-. c #B5C3FF",
";. c #BAC3FF",
":. c #BAC8FF",
">. c #C2C5FC",
",. c #C8CBFF",
"<. c #DAC1F6",
"1. c #DBC2FF",
"2. c #DDDFFF",
"3. c #EED7FF",
"4. c #EDDAFF",
"5. c #F5DEFF",
"6. c #D5E5FF",
"7. c #DAE1FF",
"8. c #D3E9FF",
"9. c #E3EEFF",
"0. c #FDEEFF",
"q. c #E0F0FF",
"w. c #EEF6FF",
"e. c #ECFCFF",
"r. c #F4F5FF",
"t. c #FEF3FF",
"y. c #F4FBFF",
"u. c #FCF9FF",
/* pixels */
"_ ^ C C N N Z Z C / / M C / / / / ^ / / C N C M M ^ / / ` ( C N C C C C C C C C C C C ",
"_ / C N N C C / / / C C C M / Z / C / / C C C M ^ M / / _ / Z C C C C C C / / C C / C ",
"^ / C C C C C / / / C n C C C C C C C C ^ / M C C C / / / / Z C C / C / C / C C C C C ",
"/ / C C C C C / / C C C C C C C N N C C _ ^ / / C C C C / ^ C M C C C C C C C C C / Z ",
"C C C C C C / / / / C C C N Z C Z Z Z C ^ / / / C C C C ^ ^ M A C C C C C C C C / C / ",
"N C C C C / / ^ ^ C C N N C C C C C / / M C / / / Z C Z ^ ^ M C C C C C C / C C C C C ",
"Z C C C ^ / / ^ ^ C N C Z C / Z C C C / / Z / / / / / / ^ ^ ^ / ( C C C C C C / C C C ",
"N C / / / / ^ / C C C C C / / / C M / ^ _ Z Z / / M / / / / / / / C / C C / C C / C C ",
"Z Z C / ^ / M M C N Z / / / / ^ C C / M ` / C C M n Z C C C C Z C C C C C C C C C C C ",
"Z / / ^ / C C A C C ( M / ^ _ _ n m j l 3 3 0 7 k N n C N Z C C C C C / C C / C / C C ",
"/ / Z ^ C M n C C C C / _ ^ / M g , } w.u.t.t.1.o 4 z C Z Z M _ / C C C / C C C C Z / ",
"Z C / / M C C C C Z / _ M M ) h e 2.y.u.u.u.t.t.t...4 x C M ' M / C / C C C / Z / C C ",
"C / / C M C C N C Z ^ / M C f < -.y.t.W $ 5 > 7.w.t.{ u N / / _ C C C C C / C C C C / ",
"C Z ^ / M C C C C _ / / M m h | y.u.~ y J C g - 8.y.=.t x / n C C C / C C C C C C C C ",
"C C ^ C / C C C / _ / Z A p 1 #.t.<.$ B / / A d Y e.0.Q x / Z C C C / C C C C / / C C ",
"C C / / ^ C C C / Z _ C n d w 2.t.$.7 Z _ / Z g : 6.t.%.k ^ N N C C C C Z / C C C C C ",
"C Z ( / / M M C _ / _ / n h w 2.0.$.3 / Z C / g q -.t.<.y Z M A C C C C C C C / C C / ",
"C C / / / C C M / / ^ / A p 1 ;.t.=.* z N C N h - -.u.<.4 Z Z C C C C / C C C C C C Z ",
"N C / / / / A C M ( / C C n m | u.u.E y B / n 2 i w.u.5.u J Z C Z / / C / C C C C C C ",
"N N / / / / C n N C C C ^ ) b 1 6.y.t.! * 9 @ o.y.y.t.3.H Z Z Z C C C C C C / C C / C ",
"C A Z / / / C N N N Z ( ^ ^ ] h K q.y.y.u.t.t.t.,.>.t.1.u ` / / / C C C C / C C C C C ",
"N C / _ / / M N V C C Z ` / ^ b s ; +.y.u.u.t.R   :.t.=.9 ` / / C C C C C C C C C / C ",
"C Z / _ / Z M C M Z ( C C M Z A A n j 3 9 9 4 = P q.t.O.k C n C C C C C C C C / C / C ",
"/ / / / / C C C C C ` / Z M n g 9 k B ( ^ M N 9 Y e.t. .8 / Z A C / C C C / C C C C C ",
"^ / / Z C C C M C / / / / M m o.t.4.F B C A n w @.y.t.L k / Z Z Z C C C C C / C / C C ",
"/ / / C C C C / _ ^ / ^ C n h [ u.t.W y k a 2 T e.u.*.r D / ` Z ( C / C / C C C C C C ",
"C C C C C Z M C ^ ^ / M C M n v :.r.0.+ O X U e.t.0.G D N C / _ / C C C C C / C Z C C ",
"C C N Z C C C M M / C M ) M M s K 9.t.t.0.r.y.u.t.E S Z ` C M C C C C C C C C C C / / ",
"N M C Z Z C C C C C M C / M ^ M p 2 X.r.y.t.t.&.* k B C M ] C A C C C C C C C C C / C ",
"M C C C C / / M C M C Z Z _ / / / g v # % . . 5 z Z M A / ^ n N C C C C C / C C C C C ",
"M C C C / / _ / / / C Z C Z / C / N g V a z z N C ^ C C / _ C C C C C C C C / C C / C ",
"C M Z Z / / / / M _ C C Z C C Z C ( ( Z ( N / _ _ ^ C Z / / Z N C C / C C ( C C C C C ",
"C M / C / / Z / Z C C Z C C C C C / C Z C C / / / / C C / / C C C C C C C C C C C C C ",
"C C Z C C C C / C / / C / C / C C C C C C C C C Z C C C C C C C C / C C C / C / / C C ",
"/ C / C C C C C C / C C C C C C / C / Z C C C / C C C C C C C C C / / C C C C C C C C ",
"C C C C C / C C C C C C C / C C C C C C / C C C / C C / / C C C Z C C C C C / C C C ( ",
"C C / C C C C / C C / C C C C C C C / C C C / C C C / C C C C / C / C C C C C C C C / ",
"/ C C C C C C C C C C C C / / C C C C C C C C C / Z C C C C C C C C / C C / ( C C C C ",
"C C C C / C C C / C C C C C Z C C / C / / C / Z C C C C / C C C C / C C C C / C / C C ",
"C C / C C C / C C C / C C C / C C C C C C C C C C C / C C C / C C C C C C C C C C C C ",
"C / C C C C / C C / C / C C C / C C C C C C C C C C C C C C C C C / C C / C / Z C / C ",
"C C C C / C C C C C C C C C C C C / C / / C / C C C / C C / C C C C C C C C C C C C / ",
"C C C / Z C C C Z / C C C / C C C C C C C C C C / C C C C / / C C C C / C C C C C C C "
};
