/* XPM */
static char *bluever[] = {
/* columns rows colors chars-per-pixel */
"14 43 245 2",
"   c #040301",
".  c #080705",
"X  c #090806",
"o  c #0A0907",
"O  c #0B0A08",
"+  c #09090B",
"@  c #090B0A",
"#  c gray4",
"$  c #0B0B0B",
"%  c #0A0C0B",
"&  c #0D0C0A",
"*  c #0E0D0B",
"=  c #0B0B0D",
"-  c #0C0C0C",
";  c gray5",
":  c #0E0E0E",
">  c #11100E",
",  c #110F10",
"<  c #0F1110",
"1  c #101010",
"2  c #111111",
"3  c #101211",
"4  c #111312",
"5  c #131313",
"6  c #141311",
"7  c #121413",
"8  c #151515",
"9  c #141615",
"0  c #191816",
"q  c #1D1D1F",
"w  c #201F1D",
"e  c #1C2021",
"r  c #1E2223",
"t  c #262624",
"y  c #292927",
"u  c #2A2927",
"i  c #27282A",
"p  c #2B2B29",
"a  c #2C2B29",
"s  c #2D2D2B",
"d  c #2F2E2C",
"f  c #2C2D2F",
"g  c #302F2D",
"h  c #31302E",
"j  c #2E2F31",
"k  c #2F3130",
"l  c #2F3032",
"z  c #323230",
"x  c #333230",
"c  c #343331",
"v  c #363533",
"b  c #343537",
"n  c #383735",
"m  c #383836",
"M  c #393836",
"N  c #3A3937",
"B  c #373938",
"V  c gray22",
"C  c #3A3839",
"Z  c #383A39",
"A  c #3B3A38",
"S  c #393B3A",
"D  c #3C3B39",
"F  c #3D3C3A",
"G  c #3D3D3B",
"H  c #393A3C",
"J  c #3A3A3C",
"K  c #3B3B3D",
"L  c #3D3B3C",
"P  c #3B3C3E",
"I  c #3C3E3D",
"U  c #3F3E3C",
"Y  c #3F3D3E",
"T  c #403F3D",
"R  c #41403E",
"E  c #42413F",
"W  c #3F4140",
"Q  c #3F4042",
"!  c #404241",
"~  c #434240",
"^  c #414342",
"/  c #444341",
"(  c #454442",
")  c #464543",
"_  c #414244",
"`  c #424345",
"'  c #434446",
"]  c #474644",
"[  c #484745",
"{  c #494846",
"}  c #4A4947",
"|  c #4B4A48",
" . c #4C4B49",
".. c #4D4C4A",
"X. c #4E4D4B",
"o. c #4E4C4D",
"O. c #4F4E4C",
"+. c #504F4B",
"@. c #504F4D",
"#. c #51504C",
"$. c #51504E",
"%. c #52514F",
"&. c #525051",
"*. c #535250",
"=. c #545351",
"-. c #555450",
";. c #555452",
":. c #565553",
">. c #585755",
",. c #595854",
"<. c #5A5955",
"1. c #595856",
"2. c #5A5957",
"3. c #5B5A56",
"4. c #5C5B57",
"5. c #5B5A58",
"6. c #5C5B59",
"7. c #5D5C58",
"8. c #5E5D59",
"9. c #5D5C5A",
"0. c #5E5D5B",
"q. c #5F5E5C",
"w. c #605F5D",
"e. c #61605C",
"r. c #61605E",
"t. c #62615F",
"y. c #63625E",
"u. c #64635F",
"i. c #636260",
"p. c #646361",
"a. c #666561",
"s. c #656462",
"d. c #666563",
"f. c #656364",
"g. c #676664",
"h. c #676566",
"j. c #686765",
"k. c #6A6965",
"l. c #696866",
"z. c #6A6967",
"x. c #6B6A66",
"c. c #6B6A68",
"v. c #6C6B69",
"b. c #6D6C68",
"n. c #6E6D69",
"m. c #6D6C6A",
"M. c #6F6E6A",
"N. c #6F6E6C",
"B. c #706F6D",
"V. c #71706C",
"C. c #72716D",
"Z. c #73726E",
"A. c #74736F",
"S. c #757470",
"D. c #767571",
"F. c #777674",
"G. c #787773",
"H. c #787775",
"J. c #7B7A76",
"K. c #7D7C78",
"L. c #807F7B",
"P. c #81807C",
"I. c #82817D",
"U. c #84837F",
"Y. c #868583",
"T. c #878682",
"R. c #878684",
"E. c #888783",
"W. c #898884",
"Q. c #8A8985",
"!. c #8B8A86",
"~. c #8C8B89",
"^. c #8D8C88",
"/. c #8E8D89",
"(. c #8F8E8A",
"). c #8F8E8C",
"_. c #908F8D",
"`. c #91908C",
"'. c #91908E",
"]. c #93928E",
"[. c #94938F",
"{. c #939290",
"}. c #949391",
"|. c #959490",
" X c #969591",
".X c #959492",
"XX c #969593",
"oX c #979692",
"OX c #989793",
"+X c #989795",
"@X c #999894",
"#X c #9A9995",
"$X c #9B9A96",
"%X c #9C9B97",
"&X c #9D9C98",
"*X c #9D9C9A",
"=X c #9F9E9A",
"-X c #9F9E9C",
";X c #A1A09C",
":X c #A2A19D",
">X c #A2A19F",
",X c #A4A39F",
"<X c #A5A4A0",
"1X c #A6A5A1",
"2X c #A7A6A2",
"3X c #A9A8A6",
"4X c #AAA9A7",
"5X c #ABAAA6",
"6X c #ACABA7",
"7X c #ABAAA8",
"8X c #ADACA8",
"9X c #AEADA9",
"0X c #ADACAA",
"qX c #B1B0AE",
"wX c #B3B2B0",
"eX c #B5B4B2",
"rX c #B6B5B3",
"tX c #B7B6B4",
"yX c #B8B7B5",
"uX c #B9B8B4",
"iX c #B9B8B6",
"pX c #BAB9B7",
"aX c #BBBAB8",
"sX c #BEBDBB",
"dX c #C8C7C5",
"fX c #D2D1CD",
"gX c #D2D1CF",
"hX c #D3D2D0",
"jX c #D4D3D1",
"kX c #D5D4D2",
"lX c #D6D5D3",
"zX c #D7D6D4",
"xX c #D9D8D6",
"cX c #DBDAD8",
"vX c #DCDBD9",
"bX c #EEEDEB",
"nX c #F0EFEB",
"mX c #F4F3F1",
"MX c #FAF9F5",
"NX c #F9F8F6",
"BX c #FAF9F7",
"VX c #FBFAF8",
"CX c #FCFBF9",
"ZX c #FDFCFA",
"AX c #FFFFFD",
/* pixels */
"mX.X<XF.w.u o   . X O O h sX",
"dXnXfX7XXXv.6.5.9.%.] E N 0 ",
"$XBXlX8X XH.t.t.q.5.O.{ K 2 ",
"$XBXlX8X XH.t.t.t.q.*. .K 2 ",
"$XBXlX8X XH.t.t.r.9.$.| K 2 ",
"&XBXkX8X XD.7.7.0.;...{ S - ",
"&XBXkX8X XS.4.4.6.=. .[ Z $ ",
"&XBXkX6X|.Z.3.3.:.O.) E V # ",
"&XBXkX5X[.Z.3.3.*...~ U B # ",
"oXVXlX9X@XH.1.;.;. .R F l = ",
"oXVXlXqX%XJ.4.,.-. .R F l % ",
"oXVXlXwX*XK.8.3.-. .R L l % ",
"oXVXzXwX-XL.u.e.<...U C l = ",
"oXVXzXeX;XI.a.y.4.@.E D l = ",
"oXVXzXuX,XY.l.d.q.*./ U l % ",
"+XCXxXtX,XT.b.k.t.5.{ T l % ",
"+XCXxXyX,XE.n.x.p.6.} R k % ",
"+XCXxXpX1XQ.V.M.j.w.X./ l $ ",
"+XCXxXpX1X!.C.V.l.r.O.) l $ ",
"+XCXxXaX1X^.S.Z.c.p.%.} I @ ",
"+XCXxXaX1X^.S.Z.v.s.=...I @ ",
"+XCXxXaX1X^.S.Z.N.d.:...P # ",
"+XCXxXpX1X/.G.D.n.d.:.X.Q 1 ",
"+XCXxXpX1X/.G.D.n.d.:.X.Q 1 ",
"OXCXxXpX1X/.G.D.n.d.:.X.W < ",
"$XBXcXiX2X^.S.A.n.g.>.@.^ 7 ",
"$XBXcXyX1X!.A.C.m.g.>.O.' 5 ",
"$XBXcXrX,XW.C.V.v.d.:.X.' 5 ",
"$XMXcXeX:XW.V.B.c.s.:.X.` 5 ",
"%XVXzXqX=XU.z.l.h.i.;.O._ 8 ",
"%XVXzX0X#XP.d.s.f.r.*...! 8 ",
"%XVXzX3X XJ.t.q.t.q.#.} ` 9 ",
"&XNXjX4X].Z.6.6.2.1.+.} J , ",
"&XNXjX3X`.M.=.*.&.$.{ / S 1 ",
"&XNXjX3X(.x.O.X.o.../ Y H 1 ",
"$XCXgX3X).d.[ )  .) T G b ; ",
"$XCXgX3X).d.[ ) ] R A m j = ",
"$XCXgX3X).d.[ ) R D v z f + ",
"$XAXhX7X}.c.] E T M g s r 3 ",
"OXAXzX7X{.c.] E U n d p e 4 ",
"#XZXxX4X{.z.) R D c a y i : ",
"<XNXkX3X'.l.( T N x u t q 5 ",
"bX~.vX>XR.[ w 0 6 > * & 6 _."
};
