/* XPM */
static char *bluehor[] = {
/* columns rows colors chars-per-pixel */
"43 14 238 2",
"   c #080705",
".  c #090806",
"X  c #0A0907",
"o  c #0B0A08",
"O  c #0D0C0A",
"+  c #11100E",
"@  c #131210",
"#  c #141311",
"$  c #151412",
"%  c #161513",
"&  c #19191B",
"*  c #1D1D1F",
"=  c #201F1D",
"-  c #1E1F21",
";  c #1F2024",
":  c #202123",
">  c #262624",
",  c #272725",
"<  c #232428",
"1  c #27282A",
"2  c #2A2A28",
"3  c #2C2C2A",
"4  c #28292D",
"5  c #2A2E2F",
"6  c #2C2D2F",
"7  c #302F2D",
"8  c #31302E",
"9  c #2C2D31",
"0  c #2D2E30",
"q  c #2F3130",
"w  c #2D3132",
"e  c #2F3032",
"r  c #333230",
"t  c #323335",
"y  c #363634",
"u  c #373634",
"i  c #343537",
"p  c #393836",
"a  c #3A3937",
"s  c #363739",
"d  c #393738",
"f  c #343839",
"g  c #37383A",
"h  c gray22",
"j  c #3B3A38",
"k  c #3B3B39",
"l  c #39393B",
"z  c gray23",
"x  c #3C3B39",
"c  c #3A3C3B",
"v  c #3D3C3A",
"b  c #3D3D3B",
"n  c #3E3D3B",
"m  c #393A3C",
"M  c #3A3A3C",
"N  c #3A3B3D",
"B  c #3D3B3C",
"V  c #3B3D3C",
"C  c #3C3E3D",
"Z  c #3F3E3C",
"A  c #403F3D",
"S  c #41403E",
"D  c #42413F",
"F  c #3C4041",
"G  c #3F4042",
"H  c #404241",
"J  c #434240",
"K  c #414342",
"L  c #444341",
"P  c #454442",
"I  c #464543",
"U  c #414244",
"Y  c #424345",
"T  c #434446",
"R  c #474644",
"E  c #484745",
"W  c #494846",
"Q  c #4A4947",
"!  c #4B4A48",
"~  c #4C4B49",
"^  c #4D4C4A",
"/  c #4E4D4B",
"(  c #4F4E4C",
")  c #4F4D4E",
"_  c #504F4D",
"`  c #504E4F",
"'  c #51504E",
"]  c #51514F",
"[  c #52514F",
"{  c #515151",
"}  c #525250",
"|  c #535250",
" . c #545351",
".. c #545253",
"X. c #555450",
"o. c #555452",
"O. c #565553",
"+. c #555354",
"@. c gray33",
"#. c #575654",
"$. c #585753",
"%. c #585755",
"&. c #5A5955",
"*. c #595856",
"=. c #5A5957",
"-. c #5B5A56",
";. c #5C5B57",
":. c #5A5859",
">. c #5B595A",
",. c #5A5A5A",
"<. c #5C5B59",
"1. c #5D5C58",
"2. c #5E5D59",
"3. c #5D5C5A",
"4. c #5D5D5B",
"5. c #5E5D5B",
"6. c #5F5E5A",
"7. c #5F5E5C",
"8. c #605F5D",
"9. c #61605C",
"0. c #60605E",
"q. c #61605E",
"w. c #61615F",
"e. c #62615F",
"r. c #63625E",
"t. c #64635F",
"y. c #615F60",
"u. c #626260",
"i. c #636260",
"p. c #636162",
"a. c #626262",
"s. c #646361",
"d. c #646263",
"f. c #666561",
"g. c #656462",
"h. c #666563",
"j. c #676662",
"k. c #676664",
"l. c #676566",
"z. c gray40",
"x. c #686765",
"c. c #686667",
"v. c #696864",
"b. c #696866",
"n. c #6A6967",
"m. c #6C6B67",
"M. c DimGray",
"N. c #6B6A68",
"B. c #6C6B69",
"V. c #6E6D69",
"C. c #6E6D6B",
"Z. c #6F6E6A",
"A. c #6F6E6C",
"S. c #706F6D",
"D. c #71706C",
"F. c #72716D",
"G. c #74736F",
"H. c #747371",
"J. c #757470",
"K. c #757472",
"L. c #777672",
"P. c #777775",
"I. c #787773",
"U. c #797874",
"Y. c #7A7977",
"T. c #7B7A76",
"R. c #7D7C78",
"E. c #7E7D79",
"W. c #7E7D7B",
"Q. c #7F7E7C",
"!. c #807F7B",
"~. c #807F7D",
"^. c #81807C",
"/. c #82817D",
"(. c #83827E",
"). c #84837F",
"_. c #868581",
"`. c #878684",
"'. c #888783",
"]. c #898884",
"[. c #8B8A86",
"{. c #8C8B89",
"}. c #8D8C88",
"|. c #8D8C8A",
" X c #8F8E8C",
".X c #908F8B",
"XX c #91908C",
"oX c #92918D",
"OX c #91908E",
"+X c #93928E",
"@X c #94938F",
"#X c #939290",
"$X c #949391",
"%X c #959490",
"&X c #969591",
"*X c #959492",
"=X c #969593",
"-X c #979692",
";X c #989793",
":X c #989795",
">X c #999894",
",X c #9A9995",
"<X c #9B9A96",
"1X c #9C9B97",
"2X c #9D9C98",
"3X c #9E9D99",
"4X c #9D9C9A",
"5X c #9E9D9B",
"6X c #9F9E9A",
"7X c #A09F9B",
"8X c #A1A09C",
"9X c #A3A29E",
"0X c #A5A4A0",
"qX c #A6A5A1",
"wX c #A7A6A2",
"eX c #C0BFBD",
"rX c #C8C7C5",
"tX c #E0DFDD",
"yX c #E1E0DE",
"uX c #E3E2E0",
"iX c #E4E3E1",
"pX c #E6E5E3",
"aX c #E8E7E5",
"sX c #E9E8E6",
"dX c #EAE9E7",
"fX c #ECEBE7",
"gX c #ECEBE9",
"hX c #EEEDEB",
"jX c #F0EFEB",
"kX c #F4F3F1",
"lX c #F6F5F3",
"zX c #FAF9F5",
"xX c #F9F8F6",
"cX c #FAF9F7",
"vX c #FBFAF8",
"bX c #FCFBF9",
"nX c #FFFEFC",
"mX c #FFFFFD",
/* pixels */
"hX0X3X;X,X<X<X<X2X2X2X1X1X1X1X<X<X;X:X:X:X:X:X:X:X:X:X-X-X-X-X-X-X-X-X2X2X2X<X<X<XrXkX",
"{.xXvXnXmXbXbXbXxXxXxXvXvXvXvXzXcXbXbXbXbXbXbXbXbXbXbXvXvXvXvXvXvXvXvXcXcXcXcXcXcXjX*X",
"eXhXpXyXpXaXaXaXpXpXpXiXiXiXiXsXsXgXgXgXgXgXgXgXgXgXgXdXdXdXdXsXsXsXsXpXpXpXuXuXuXfX}.",
"`.OXOX#X#X X X X.XoX+X&X;X6X7X9XqXqXqXqXqXqXqXqXqXwX0X0X9X8X5X4X1X,X>X%X&X%X&X&X&X=X8.",
"k.W.W.Q.~.Y.Y.Y.R.^./.'.[.XX+X&X>X<X<X<X<X,X,X,X,X>X-X%X@XXX X|.[.].'.(.).)._._._.Q.L ",
"7 | o.o.O.| | | -.9.t.m.V.G.L.T.E.!.!.!.!.E.E.E.E.T.U.K.G.F.Z.v.j.f.s.t.f.f.n.n.n.8.% ",
"= P I I R E E E ' #.<.e.s.n.C.F.J.I.I.I.I.J.J.J.J.D.Z.b.x.f.r.2.;.=.*.-.1.1.e.e.e.<.X ",
"$ j v Z S L Q ^ ) ..*.e.d.l.b.B.A.Z.Z.Z.Z.S.C.B.N.n.k.e.q.6.1.$.$.%.%.*.<.7.e.q.3.8.  ",
"# a j v Z J W ~ ) +.=.e.d.l.c.N.C.V.V.V.V.A.B.N.n.b.h.8.5.;.&.X.X.o.o.O.=.3.e.q.<.3.  ",
"+ r r u p n L I (  .*.7.7.i.s.h.k.h.h.h.h.h.g.s.e.8.3.| [ _ ^ ~ ~ ~ ~ ( '  .7.3.=.[ . ",
"O > , 2 3 y k b D I Q Q ~ ( ` / _ / / / / ^ ^ Q W P D A n x d B v v v D P E ~ ! R D o ",
"# * 1 : - 0 t i m M M Y T U U K H G G G G V C C V q e e e e e e e e e h l N c c z a 8 ",
"j & ; < 4 e t i m m M N N N N F F s s s s f f f f w e 6 9 9 5 w w w e s g m N N z @ H.",
"tXP.M.z.a.w.w.u.+.+.+.{ { } ] } } >.>.>.>.4.4.4.4.0.y.p.p.p.u.0.0.0.0.:.,.,.@.@.@.$XlX"
};
