/* XPM */
static char *dot_[] = {
/* columns rows colors chars-per-pixel */
"14 14 187 2",
"   c #39B6D6",
".  c #3BB5DA",
"X  c #52B7C9",
"o  c #4BA7D0",
"O  c #4FADD1",
"+  c #49AEDA",
"@  c #50AED4",
"#  c #44BDDC",
"$  c #4BBAD8",
"%  c #59BDD5",
"&  c #65BACF",
"*  c #62AED2",
"=  c #67B2D2",
"-  c #75B4D3",
";  c #7EBAD4",
":  c #79BAD8",
">  c #49B2E1",
",  c #46BCE2",
"<  c #43BDE4",
"1  c #4FBFE7",
"2  c #46B8EA",
"3  c #42BAEE",
"4  c #4DBBEC",
"5  c #4CBFEC",
"6  c #52BCE6",
"7  c #57BEE9",
"8  c #53BEF4",
"9  c #63B7E3",
"0  c #60BAEE",
"q  c #79BDE4",
"w  c #66B8F0",
"e  c #55C0D2",
"r  c #74C9DE",
"t  c #44C1ED",
"y  c #4BC2ED",
"u  c #49C4ED",
"i  c #50C0F0",
"p  c #53C5F7",
"a  c #58C5F0",
"s  c #5EC8F0",
"d  c #5FCAF4",
"f  c #56C8FA",
"g  c #54C9FE",
"h  c #5ACAF8",
"j  c #62C5EC",
"k  c #6BC3EB",
"l  c #7CCDEB",
"z  c #6ED1E8",
"x  c #64CBF6",
"c  c #6EC0FA",
"v  c #6CC5FF",
"b  c #62C8F8",
"n  c #64CEF8",
"m  c #6ECFF9",
"M  c #75C7F7",
"N  c #7FC3F0",
"B  c #78C5F3",
"V  c #7EC5F1",
"C  c #72C9F4",
"Z  c #79C8F1",
"A  c #7FCDF1",
"S  c #7BCFF4",
"D  c #75C5FA",
"F  c #7BC4F9",
"G  c #7CC5F8",
"H  c #6ED1F0",
"J  c #69D1F4",
"K  c #6AD1F4",
"L  c #6ED5F8",
"P  c #70D5F1",
"I  c #73D5F0",
"U  c #74D9F5",
"Y  c #7EE1FF",
"T  c #85BFD3",
"R  c #9ABFDA",
"E  c #A6BCC9",
"W  c #A6BEC8",
"Q  c #A1B1D5",
"!  c #A6B9D9",
"~  c #A7BFDB",
"^  c #B0BED8",
"/  c #88C4CF",
"(  c #95C1CC",
")  c #8CC4D5",
"_  c #87C3DF",
"`  c #99CCD0",
"'  c #92C2D9",
"]  c #99C6DD",
"[  c #95C8DD",
"{  c #ABC3CD",
"}  c #ADC3CE",
"|  c #A3C4D5",
" . c #A8CFD6",
".. c #ADCED7",
"X. c #A4C7DA",
"o. c #A8CBDF",
"O. c #B2CAD4",
"+. c #B1D2DB",
"@. c #8BC4E1",
"#. c #8DC5E0",
"$. c #87C8E4",
"%. c #81CAEB",
"&. c #82CBEE",
"*. c #9ACEE6",
"=. c #8FDAEF",
"-. c #94DDE6",
";. c #95D8E8",
":. c #96DAEF",
">. c #9CDBED",
",. c #87DCF0",
"<. c #88DDF2",
"1. c #8FDCF0",
"2. c #8BD8F6",
"3. c #92DAF0",
"4. c #93DAF0",
"5. c #90DCF3",
"6. c #9BDEF1",
"7. c #9ADEF3",
"8. c #9BD6FE",
"9. c #A0CDE4",
"0. c #A9C8E5",
"q. c #A6D5E7",
"w. c #A4D2E9",
"e. c #A5DAE8",
"r. c #BCD4E0",
"t. c #BEDDE0",
"y. c #B1DDE8",
"u. c #A3C8F2",
"i. c #A2D0F1",
"p. c #A2DCF2",
"a. c #A3D9F5",
"s. c #B4D9F3",
"d. c #B2DDF0",
"f. c #9FE2EB",
"g. c #9DE4FA",
"h. c #9EE6FC",
"j. c #9CEBFC",
"k. c #A1E0F2",
"l. c #A0E1F5",
"z. c #A7E1F7",
"x. c #A1E4F7",
"c. c #AEE7FB",
"v. c #B7E0F2",
"b. c #B8E2F2",
"n. c #B1E7FF",
"m. c #B1EAFE",
"M. c #B8F0FF",
"N. c #C3C4E2",
"B. c #C4D7E5",
"V. c #C5D7E5",
"C. c #C5DCE4",
"Z. c #DFDCE7",
"A. c #CAE2E6",
"S. c #C4E8E6",
"D. c #C8E0EC",
"F. c #D5E4E9",
"G. c #D9E6EE",
"H. c #C2E6F4",
"J. c #DEE8F1",
"K. c #D4F4FF",
"L. c #DEF6FA",
"P. c #D8F0FC",
"I. c #DDFAF8",
"U. c #E4F3F6",
"Y. c #E8F8F7",
"T. c #E6F0F9",
"R. c #E1F3FD",
"E. c #E6F5FC",
"W. c #E6F4FF",
"Q. c #E9F2FB",
"!. c #ECFCFC",
"~. c #FFFCF6",
"^. c #F1F8FE",
"/. c #F5FAFE",
"(. c #F1FFFF",
"). c #F4FFFF",
"_. c #F7FFFF",
"`. c #FAF8F9",
"'. c #FFFEFA",
"]. c #FFFAFF",
"[. c #F8FFFF",
"{. c #F9FFFF",
"}. c #FAFFFF",
"|. c #FBFFFF",
" X c #FCFFFF",
".X c #FEFFFF",
"XX c gray100",
/* pixels */
"XXXX.X^.Q.J.G.F.F.U.(.)./. X",
".X.X{.W.V.E } { W O.C.R.[.|.",
"_.Y...w.a.n.m.c.z.M.*.] D.).",
"!.A.( k.g.x.l.6.:.h.7.>. .I.",
"L.+.) 1.<.=.4.3.5.r ,.j.` S.",
"H.[ 2.I P l %.&.A Y U z /  .",
"v.#.S K J Z V N B m L H T | ",
"d._ k s d M G F D b n j ; o.",
"d.@.C a h 0 w c v 8 4 x - s.",
"K.9.* 6 y 5 i p g 3 2 7 $.q.",
"P.X.: @ 1 , < u t f > o p.y.",
"E.r.' = O $ #   . + 9 q b.t.",
".X}.B.0.i.& X e % 8.u.Q Z.'.",
"`..XT.^ ~ e.f.-.;.R ! N.].~."
};
