/* XPM */
static char *circle[] = {
/* columns rows colors chars-per-pixel */
"14 14 2 1",
"  c #3C41FF",
". c gray100",
/* pixels */
"..............",
"....      ....",
"..          ..",
"..          ..",
".            .",
".            .",
".            .",
".            .",
".            .",
".            .",
"..          ..",
"..          ..",
"....      ....",
".............."
};
