/* XPM */
static char *ep6ayGfx[] = {
/* columns rows colors chars-per-pixel */
"100 40 113 2 ",
"   c #000000",
".  c #0E0000",
"X  c #0A0A0A",
"o  c #140000",
"O  c #1F0000",
"+  c #141414",
"@  c #220000",
"#  c #2B0000",
"$  c #330000",
"%  c #3A0000",
"&  c #222222",
"*  c #440000",
"=  c #4A0000",
"-  c #570002",
";  c #5C0002",
":  c #5D0308",
">  c #640001",
",  c #6C0105",
"<  c #610208",
"1  c #63090E",
"2  c #68090F",
"3  c #75060D",
"4  c #77080F",
"5  c #790A11",
"6  c #6D1218",
"7  c #7C1017",
"8  c #711218",
"9  c #7E141A",
"0  c #7F181E",
"q  c #7B1C22",
"w  c #7D2227",
"e  c #404040",
"r  c #82141B",
"t  c #82181F",
"y  c #821C22",
"u  c #8B1C23",
"i  c #842127",
"p  c #85242A",
"a  c #88292E",
"s  c #93242B",
"d  c #832E34",
"f  c #892C31",
"g  c #9C2D34",
"h  c #8C3136",
"j  c #8D3539",
"k  c #8F383C",
"l  c #9F3037",
"z  c #903A3E",
"x  c #A2333A",
"c  c #A7383F",
"v  c #913D41",
"b  c #9B3D43",
"n  c #AB3C43",
"m  c #934145",
"M  c #954549",
"N  c #97494D",
"B  c #984B4E",
"V  c #9A4E51",
"C  c #895053",
"Z  c #9B5255",
"A  c #9D5558",
"S  c #9F595C",
"D  c #AF4047",
"F  c #A5474E",
"G  c #A6484E",
"H  c #B3444B",
"J  c #B7484F",
"K  c #B84950",
"L  c #A05C5E",
"P  c #A15E60",
"I  c #A46365",
"U  c #A56668",
"Y  c #A7696B",
"T  c #A86C6E",
"R  c #A96F70",
"E  c #AB7374",
"W  c #AF7B7B",
"Q  c #B3777C",
"!  c #B07D7E",
"~  c #C26C71",
"^  c #B17F80",
"/  c #B48484",
"(  c #B58887",
")  c #B68989",
"_  c #B88E8E",
"`  c #BB9493",
"'  c #BD9897",
"]  c #BE9B9A",
"[  c #C09E9D",
"{  c #C1A09F",
"}  c #C3A4A2",
"|  c #C5A8A6",
" . c #C7ACAA",
".. c #C8AFAD",
"X. c #C9B1AF",
"o. c #CAB4B1",
"O. c #CDB9B6",
"+. c #CFBCBA",
"@. c #D0BFBC",
"#. c #D1C1BE",
"$. c #D2C4C1",
"%. c #D5CAC6",
"&. c #D6CCC9",
"*. c #D9D2CD",
"=. c #DAD5D1",
"-. c #DCD9D4",
";. c #DFDFDA",
":. c #DFE0DB",
">. c #E0E2DD",
",. c #E3E7E2",
"<. c #E5EBE6",
"1. c #E7F0EA",
"2. c None",
/* pixels */
"2.2.2.2.2.2.2.2.2.2.2.2.2.2.2.2.2.2.2.2.2.2.2.2.2.2.2.2.2.2.2.2.2.2.2.2.2.2.2.2.2.2.2.2.2.2.2.2.2.2.2.2.2.2.2.2.2.2.2.2.2.2.2.2.2.2.2.2.2.2.2.2.2.2.2.2.2.2.2.2.2.2.2.2.2.2.2.2.2.2.2.2.2.2.2.2.2.2.2.2.",
"2.2.2.2.F b b b b b b b b b b b n m b b b b b b b b b b b b b b b b b b b b b b n m b b b b b m b b b b b b b b b b b b b b b b b b m n b b b b b b b b b b b b b b b b b b b b b b b b F 2.2.2.2.2.2.2.",
"2.2.Q n n H J K K K K K K K K K K K K J K K K K K K K K K K K K K K K K K K K K K K J J K K K K K K K K K K K K K K K K K K K K K K K J K K K K K K K K K K K K K K K K K K K K K K J J H n ~ 2.2.2.2.2.",
"2.2.g x n n J J K K K K K K K K K K K J K K K K K K K K K K K K K K K K K K K K K K J J K K K K K K K K K K K K K K K K K K K K K K K J K K K K K K K K K K K J K K K K K K K K K K J J n n n C 2.2.2.2.",
"2.w s s x n H H H H H H J H H H D H H H H H H H H H H H H H H H H H H H H H H H H H H H H H H H J H H H H H J H H J H H J H H H H H H H H H H H H H H H H H H H H H H D H J H H H H H n n n x d e 2.2.2.",
"2.6 t u s g x x g g g g g g g g g g g g g g l x l g g g g g g g g g g g l g g g g x g g l g g g g g g g g g g g g g g g g g g g g g g g g g g l g l g g g g g g g g g g g g g g g x x c x g g i & 2.2.2.",
"2.1 5 5 r u u t r r r r r r r r r r r r r t y t t r r r r t t r r t t t r r t t t t r r t r r 7 r r t t r r t r r r r t r r t t t r r r t t t t t r t r r r t t r r r r r r r r r t u s g s s t + 2.2.2.",
"2.: 3 3 3 5 r 5 r 5 5 5 4 5 5 4 5 5 5 5 Z X.} #.O.A 5 5 V X.L 5 Q X.[ o.L M O.{ | ` 7 / { j 5 7 L ! } *.h f o.a 4 4 L [ t 5 ( [ S 5 9 ( { { ' { | / ) 9 5 a ..E 5 4 5 5 5 5 5 5 5 5 r t u u t 8 X X 2.2.",
"2.; , , , 3 5 3 4 4 5 5 5 5 5 5 5 5 5 5 I { 0 h  .:.9 5 Y ` 9 7 | L p ` p S [ i I I 7 } A 5 i / B q a +.t m O.7 5 5 W ! 5 7 } Z 7 5 N W h X.z A _ L &.i r L Y r 5 5 5 5 5 5 5 5 5 r 4 r t t r 2     2.2.",
"2.; , , 3 3 r r 5 4 5 5 5 5 4 5 5 5 5 0 O.Z 4 5 P <.t i +.z 4 k @.y 5 y i  .B 5 0 9 B ..0 9 _ Y 5 5 7 h 9 [ Y 5 5 t #.h 5 B ..t 5 5 p t T ] 7 t i L >.a B I r 3 5 5 5 4 5 5 5 5 5 5 4 4 5 5 3 <     2.2.",
"2.- , , , 4 5 5 5 5 4 5 4 3 r 3 5 5 5 S X.t 5 4 W #.7 U +.5 9 ] %.` Z 5 L :.` R 9 4 ..R 5 I ..0 5 5 5 5 N #.i 5 5 E [ r 7 ..T 5 5 5 4 9 %.V 5 4 5 M 1.^ I 5 r 3 5 5 5 5 5 5 5 5 3 r 4 r 5 5 3 <     2.2.",
"2.- , , , 3 5 5 5 5 5 5 4 r 4 4 5 4 0 #.S 5 5 i X.Z i #.S 5 M *.N z t r +.W m a 5 M &.a 9 *.S 5 5 5 5 5 o.E 5 5 f *.j 5 m *.i 5 5 5 5 Y #.y 5 5 5 j >.I 5 5 , r 5 5 5 5 5 4 5 5 4 4 4 4 5 3 , ;     2.2.",
"2.- , , , 4 5 5 r 4 r 4 5 4 r 4 5 5 V %.i 5 5 R ) 7 I O.t 5 ' _ 5 5 5 Z +.p 5 5 9 { / 5 M ,.f 5 5 7 5 k *.k 5 9 _ @.5 7 ] / 5 y 9 5 y #.T 5 5 5 5 / ..r r 3 3 3 5 5 5 5 5 5 5 5 4 r 3 4 4 4 , ;     2.2.",
"2.- , , , 3 5 5 3 4 4 4 5 5 4 4 5 0 } ( 0 i T ! 0 9 O.Y 4 h #.m 4 5 9 { W 5 5 5 j -.p 5 U <.M t z U 5 T =.m f W -.E 5 z *.m f ` i 7 V =.y 5 5 5 a &.P 5 3 3 r 3 5 5 5 5 5 5 5 5 4 3 r 4 4 3 , >     2.2.",
"2.- , , , 3 4 4 4 4 3 4 3 r 4 r 5 I +.| / ! z 7 7 S #.Z 7 ` o.z 5 5 L +.T 7 5 i ( O.i 5 p O.&.` U t 5 B &.+.W M #./ y ) $.[  .U 5 z { | t 5 5 p / #.N 5 3 r r 3 5 5 5 5 5 5 5 5 4 4 4 4 r 3 , ;     2.2.",
"2.- , , , 3 r 4 r 4 r 4 4 4 4 4 4 7 9 9 7 7 5 5 4 7 9 7 5 9 r 5 5 5 7 9 7 5 5 5 9 9 5 5 5 7 9 9 5 5 5 5 9 9 5 5 9 9 5 9 9 9 9 5 5 7 0 9 5 5 5 5 9 r 7 5 3 r , 3 4 5 5 5 4 5 5 5 r 3 r 3 3 3 , >     2.2.",
"2.- , > , 3 5 5 4 5 5 5 5 5 5 5 5 5 5 5 5 5 5 5 5 5 5 5 5 5 5 5 5 5 5 5 5 5 5 5 5 5 5 5 5 5 5 5 5 5 5 5 5 5 5 5 5 5 5 5 5 5 5 5 r 3 3 3 r 3 r 3 3 3 r , 3 3 r r 5 5 5 5 5 5 5 5 5 5 5 5 5 4 , ;     2.2.",
"2.- , , , 3 5 5 5 5 5 5 5 5 5 5 5 5 5 5 5 5 4 5 5 5 5 5 5 5 5 5 5 5 5 5 5 5 5 5 5 5 5 5 5 5 5 5 5 5 5 5 5 5 5 4 5 5 5 5 5 5 5 5 3 3 r 3 r 3 3 3 r 3 3 r r 3 3 3 5 5 5 5 5 5 5 5 5 5 5 5 5 4 , ;     2.2.",
"2.- , , , 4 5 5 5 5 5 5 5 5 5 5 5 5 4 5 3 r r 4 5 5 5 5 4 5 5 5 5 5 5 5 5 5 5 5 5 4 5 5 5 4 5 5 5 5 5 5 5 5 5 5 5 5 5 5 5 5 5 4 , r r 3 3 , r r 3 3 3 r r 3 3 r 5 5 4 5 5 5 4 5 5 5 4 5 5 3 , <     2.2.",
"2.- , , , 3 5 5 5 5 5 5 5 5 4 5 5 5 5 5 4 4 4 4 5 5 5 5 5 5 5 5 5 5 5 5 5 4 5 5 5 5 5 5 5 5 5 5 5 5 5 5 5 5 5 5 5 5 5 5 5 5 5 5 r 3 3 3 3 r 3 3 r r 3 3 , r 3 3 5 5 5 5 5 5 5 5 5 5 5 5 5 3 , ;     2.2.",
"2.- , , , 4 5 5 4 5 5 5 5 5 5 5 4 4 r 4 4 4 4 r 5 5 5 5 5 5 5 5 5 5 5 5 5 5 5 5 5 5 5 5 5 5 5 5 5 5 5 5 5 5 5 5 5 5 5 5 5 5 5 5 3 3 r r 3 3 r 3 3 3 3 3 r 3 r 3 5 5 5 5 5 5 5 5 5 5 5 5 5 3 , ;     2.2.",
"2.- , , , 4 5 5 5 5 5 5 4 5 5 5 r 4 3 4 r 3 4 3 5 5 5 5 5 5 5 5 5 5 4 5 5 5 5 5 5 5 5 5 5 5 5 5 5 4 5 5 5 5 5 4 5 5 5 5 5 5 5 5 r , 3 3 r r , 3 3 r r 3 r 3 3 3 5 4 5 5 5 5 5 5 5 4 5 5 5 3 , <     2.2.",
"2.- , , , 3 5 5 5 5 5 5 5 5 5 5 4 4 r 3 r 4 4 r 5 5 5 5 5 a ! R p 5 5 N / / ( Y y Y k 5 5 I / A h / / / W i 5 E W M 5 4 5 5 5 5 3 r 3 r 3 3 3 r 3 r 3 3 , 3 r r 5 5 5 5 5 5 4 5 5 5 5 5 5 4 , ;     2.2.",
"2.- , , , 4 5 5 5 5 5 5 5 5 5 5 r 4 4 4 4 4 4 3 5 5 5 5 5 j X.z 7 5 5 T ' k ) / 9 } Z 5 5 I ] a m X.m I | t 5 ..L t 5 5 5 5 5 5 3 r 3 3 3 r 3 r r , 3 r r 3 3 3 5 5 5 5 5 5 5 5 5 5 5 5 5 4 , ;     2.2.",
"2.- , , , 4 5 5 5 5 5 5 5 5 4 5 3 4 r 4 4 4 r r 3 r 3 3 5 / ! 5 5 5 t O.v 5 f i t O.m 5 y ` a 5 ` E 4 i h 5 v o.y 5 5 5 5 5 5 5 3 3 r r 3 3 3 3 4 3 4 3 4 4 4 4 5 4 5 5 5 3 4 4 5 5 5 5 5 3 , <     2.2.",
"2.- , , , 3 5 5 5 5 5 5 5 5 5 5 4 4 4 4 3 r 3 3 3 4 3 r i *.f 5 5 5 L *.S m 5 5 a -.a 9 ( h 5 j :.U B 7 5 9 } T 5 5 5 5 5 5 5 5 r , 3 3 3 r r 3 4 r 4 r r 4 r 4 5 5 5 5 4 r 3 r 5 5 5 5 5 3 , ;     2.2.",
"2.- , , , 3 5 5 5 5 5 5 5 5 5 5 4 r r 3 4 4 4 3 3 r 3 r ^ ` 7 5 5 y o.] W M 5 5 k 1.y T Z 5 7 ` X.W L 5 5 m =.y 5 5 5 5 5 5 5 5 3 r 3 r 3 3 r 3 4 r 4 4 3 4 r 3 5 5 5 5 5 5 4 4 5 5 5 5 5 3 , ;     2.2.",
"2.- > , , 3 4 5 5 5 5 4 5 5 5 5 4 4 4 4 3 r 4 r 4 4 4 i &.z 5 r 5 A $.9 5 7 5 5 A ;.P U 5 5 k %.k 5 9 5 5 ' _ 5 7 5 5 5 5 5 5 5 3 r 3 3 r 3 , r 4 3 4 r 4 4 4 4 5 5 5 5 4 5 5 5 5 5 5 5 5 3 , ;     2.2.",
"2.- , , , , 4 5 5 5 5 5 5 5 5 5 4 r 3 4 4 r 4 4 4 r 5 T +.5 h T 5 o.W 5 m S 5 5 E >./ 9 5 5 !  .5 a T 5 k $.v 9 E i 5 5 5 4 5 5 , r 3 3 3 r 3 r 4 4 4 r r 3 4 3 4 r 4 4 r 4 4 r 5 5 5 4 4 3 , ;     2.2.",
"2.- > > , , 3 3 4 5 5 5 5 5 4 5 4 3 r 4 4 3 3 r 4 3 z &.+.[ #.m T :. .` +.f 5 5 ) X.5 5 5 M -.+.` #.Z y [ >.` O.E 5 5 5 5 5 5 5 r 3 3 r 3 4 3 3 r 3 4 3 4 4 4 r 4 4 4 r 4 4 4 4 5 5 4 5 5 3 , ;     2.2.",
"2.= ; ; ; > , 3 4 3 4 4 5 5 5 5 4 4 r 4 4 r 3 4 4 r r a a a p 5 p f f f p 5 5 5 y q 5 5 5 i f f f a 5 7 a f f a 7 5 5 5 5 5 5 5 r 3 3 r r 3 r 3 r 4 4 r r 3 4 4 4 r 4 4 4 r 4 4 4 5 4 4 3 , , -     2.2.",
"2.= - - - - - , 3 3 3 4 4 4 4 4 4 4 3 3 4 4 3 3 4 4 3 3 5 3 5 5 4 4 4 4 4 4 4 5 4 4 4 4 4 4 4 4 4 4 4 4 4 4 4 4 4 4 4 4 4 4 4 4 3 3 3 3 3 3 4 4 , 3 3 3 4 4 4 3 3 3 4 4 3 4 4 4 4 4 4 3 3 > > -     2.2.",
"2.% = = * * = ; > , , , , , , , , , 2 , , , , , , , , , , 2 , , , , , , , , , , , , , , , , , , , 2 , , , , , , , , , , , , , , , , , , , 2 , , , , , , , , , 2 , , , , , , , , , , , > > ; ; *     2.2.",
"2.2.= * % % % % % * * = = = = = = = = = = = = = = = = = = = = = = = = = = = = = = = = = = = = = = = = = = = = = = = = = = = = = = = = = = = = = = = = = = = = = = = = = = = = = = = * * * % * O     2.2.",
"2.2.@ % % $ # # # # # # # # # # # # # # # # # # # # # # # # # # # # # # # # # # # # # # # # # # # # # # # # # # # # # # # # # # # # # # # # # # # # # # # # # # # # # # # # # # # # # # # $ @     2.2.2.",
"2.2.2.o O # @ @ O @ O O O O O O @ @ O O O O O O O O O O @ @ O O O O O O O O O O O O O O O O O O O O @ @ O O O O O O O O O O O @ O O O O @ @ O O O O O O O O O O @ @ O O O O O O O O O O o .       2.2.2.",
"2.2.2.2.                                                                                                                                                                                        2.2.2.2.",
"2.2.2.2.2.2.                                                                                                                                                                                2.2.2.2.2.2.",
"2.2.2.2.2.2.2.2.2.2.2.2.2.2.2.2.2.2.2.2.2.2.2.2.2.2.2.2.2.2.2.2.2.2.2.2.2.2.2.2.2.2.2.2.2.2.2.2.2.2.2.2.2.2.2.2.2.2.2.2.2.2.2.2.2.2.2.2.2.2.2.2.2.2.2.2.2.2.2.2.2.2.2.2.2.2.2.2.2.2.2.2.2.2.2.2.2.2.2.2.",
"2.2.2.2.2.2.2.2.2.2.2.2.2.2.2.2.2.2.2.2.2.2.2.2.2.2.2.2.2.2.2.2.2.2.2.2.2.2.2.2.2.2.2.2.2.2.2.2.2.2.2.2.2.2.2.2.2.2.2.2.2.2.2.2.2.2.2.2.2.2.2.2.2.2.2.2.2.2.2.2.2.2.2.2.2.2.2.2.2.2.2.2.2.2.2.2.2.2.2.2."
};
