/* XPM */
static char *iMc2PAgf[] = {
/* columns rows colors chars-per-pixel */
"100 50 86 1 ",
"  c #0D1516",
". c #0F1718",
"X c #0F1819",
"o c #121B1C",
"O c #141F20",
"+ c #162122",
"@ c #1A2425",
"# c #1D2728",
"$ c #1F2829",
"% c #252525",
"& c #202728",
"* c #232C2D",
"= c #272F30",
"- c #282F30",
"; c #273031",
": c #2B3334",
"> c #2F3738",
", c #2F3838",
"< c #333434",
"1 c #363738",
"2 c #333C3D",
"3 c #3A3C3C",
"4 c #383F40",
"5 c #374040",
"6 c #3C4344",
"7 c #3F4748",
"8 c #434545",
"9 c #414748",
"0 c #444A4A",
"q c #4A4C4C",
"w c #4A4F50",
"e c #4C5354",
"r c #535555",
"t c #505758",
"y c #55595A",
"u c #5B5D5D",
"i c #5C5F60",
"p c #5C6162",
"a c #626565",
"s c #636768",
"d c #666B6B",
"f c #6B6D6D",
"g c #696F70",
"h c #6E7272",
"j c #727474",
"k c #727778",
"l c #757A7A",
"z c #7A7D7D",
"x c #7A7F80",
"c c #7E8383",
"v c #828585",
"b c #838788",
"n c #868A8A",
"m c #8A8D8E",
"M c #8B8F90",
"N c #8D9293",
"B c #929595",
"V c #939798",
"C c #969A9A",
"Z c #9A9D9D",
"A c #9C9FA0",
"S c #9DA1A1",
"D c #A2A4A5",
"F c #A4A7A8",
"G c #A6A9AA",
"H c #AAACAD",
"J c #ACAFB0",
"K c #AEB1B1",
"L c #B2B5B5",
"P c #B4B7B8",
"I c #B6B9B9",
"U c #BABDBD",
"Y c #BCBFC0",
"T c #BEC1C1",
"R c #C1C3C4",
"E c #C4C7C8",
"W c #C7CACA",
"Q c #C9CBCB",
"! c #CFD0D0",
"~ c #D4D4D4",
"^ c #DBDCDC",
"/ c #E5E5E5",
"( c #EBECEC",
") c #F4F4F4",
"_ c #FFFFFF",
"` c None",
/* pixels */
"````````````````````````````````````````````````````````````````````````````````````````````````````",
"````````````````````````````````````````````````````````````````````````````````````````````````````",
"``````````````````````ooXoOooOOoOOOO++++++++@+++++@+++++#++++++++o+o+oooooooooo`````````````````````",
"``````````````````Xooooo+o++O++O++++++++++++#++@+++@++++#++#+@++++++++++++++ooooooo`````````````````",
"```````````````XoXOooOO+++@+@@@@@@@@@@@#########$####@########@@@@@@@@@@+++++++O+ooooX``````````````",
"``````````````ooXO++6dbCGUEWWWWQQQQQWQQQQQQQQQQQQQQQQQQQQQQQQQQQQQQQWWWWQQETHZbg7+oXoXoX````````````",
"````````````XXooo5kGITTTTTRRTRRRTTTRTTTRTTTTTTTTTTTTTTTTTTTTTTTTRRTRRTRRTTTTTTUUIGl7oooXX```````````",
"```````````Xooo1cGKKPPIUUUUUUUUUTTUTTUTTTTTTTTYTTTTTTTTTTTYTTTTTUYTUYYUUYUUUIUIPPKKGb5oXoX``````````",
"``````````Xoo$gZDGHKLPIIUUUUUUUUTTTTTYYTYTTTTTTTTTTYYYYYTTTTTTTTYYYYYYYYYUUUUIILKJGFSZh*oXX ````````",
"`````````ooo:zNZDDHKPIUYTTTTRRRTTTTTRTTTTTTTTTTTTTTRRRTRTTTTTTTTTTRTRTRTTTTTUUIIKJGSZCNx,oXX ```````",
"````````Xoo2lmNZDGKLIUYTTTTRRRRRTTTTRRRRTETETETTRRRRRRRRTTTWTTTTRRRRRRRRTTTTTUUIPKGSZNnbl5oX ```````",
"```````XXo1hcnNZDHLLIUUUTUTTTTTTTTTTTTTTTTTTETTTTTTTRTTTTTTTTTTTTTTTYYTTTTTUTTUIIKJGZVnxlg2XXX``````",
"``````XXo;phxnVSFHLLLKLLLIIIUUUUTTUUUUUUYYTYYITYUTUUUUUUUUUITYPPLLLIPIIUUUUUUUIIPKHFABnxhdp*XX `````",
"````` Xo+epgxnASHHHFDDADASHLLKKKKKKKJKKLLIIIIIIIIIILKKKJHHHHJGGSDDDDDGKLLIILLLKKJGFACNnzhpye+XX ````",
"`````XXo4epgcNASDAMlzMCaivCSDDNBCCCCCZZDFGKKKKKKKKGDACBvnBMvxlcxcmvzcvZDFHHHGFDZBzhjjhflhpt72XX ````",
"```` XX@5wpkcNSCvvI(__ThdjcnvlafMVMnBVmzbCSDGGGGDCmBDFKILAvaykS~___)FszxvBvMVvhmD!(~cfkzhpe6,@   ```",
"````X.o*40pkcVCxJ)____)UHJKKKLLDnBQ)__!vhcmBBBBVMcL)________/ZrqaB^(LfufzmzidD)__(Crsklckpe2-%o. ```",
"````.oo*,wdxnVcpF)______________Iy8qfL!BauadzviavvnR___(ICCCHEIfqqqn/_^zhzzn)___)H8rdkcclse4-oo...``",
"``` .o@-6ihvNVNcg/____jqqrruyyfm~vqqrquT_~U/_FalzccR___H3<8qq8rarrraH_~auffm____^r8pkbMmcki6-@oo. ``",
"```..o@<0plmVCVcj/____h<38rrryrqqaauaauR_____ZrazzzR___S<8raafauqqaaB_(B8ujL___(v1rfcNVVmxsw<&o...``",
"``` oo%3edcMCCVvj/____j1qiffjjfffqrfljz!_____SrijzzR__/v<rflvvzzjdldv(_Qqrv____~q8scMCAVNcht2*Oo. ``",
"``  oo*6thvNCCBvj/____j8rfzvvvmvvzlzvzC^_____LiufazQ___Z3rfznmmmnvvjhK_~arL___(v1rjmVAACVcky6=Oo. .`",
"``  oO-6yknVCNjzn(____h8rfzvvmmmMmmmnhT)_____/zqdjI____^nrralvnmmvvZ~__)Hf____~8qsvBCSAAVnkp6-Oo.  `",
"`` .o@-8ilnVCVvD)_____DvmzlzhlvmMNmmvlE____)__ArahffH(___^BvDjfzvvhffZ)_)~___/z1rlmVAAASCmlp9:%o. .`",
"``..oo<8ikmVCVzin(___________TvuffrvDI(__)HR__KuijkfrrfD/____)ElfljfaF/______!8qfvBZSASZVMlp7,@o.  `",
"`` .o@-8ikmVCVkx(_______^Bfuuufzvnzif!___QfH__!frjczjauqrZ(____/Bufjfuv_____/j1ylmCSSSZZCmxp7:@o...`",
"``  o@-6yknVZVmhx(____Zq14quahlcnnjfU____TjI__)BrfvmmvzharfU____(BiffafQ____Q3qdvBZSSSAZVnlp7;+o.  `",
"``  oo*6yhnNCVNch/____f<3rahlcvmNMvldR___(U^___GudcNVVNncjil!___)Hrfjfz~___/h3ylmCZSSAAZVnky7;+o.. `",
"``  .o*2tgcMVCVcj/____h3rdzvmMNBBMvjv^__(l%a!__UauzMCZCVBnljL___!a8aljB____E3qdvNZSSASAZNcht4-oo.  `",
"`` .oo&1wpcMVACnj/____j8ujvMMBmnjuiaI)__S8<qL_)/vrhvBVCCBmzzU___!uqahc/___^a2ulmZASSSAAVmcse1%oo. .`",
"```..o@:7phnNVVnj/____j8rhzvchjBDzhhQ___n38qK!nnf8ujvvnnvxfm/___QaqahA____E1qdcVZSSSAAZBvki9:#o.. ``",
"```..oo%2epcmVVcv(____UfwajvZ^_Lfaan^__!a3rrF)(EBFUDZBBBBZQ_____Qiruv(___^a1ykMCSSSSAZVMcge3*@o.  ``",
"``` ..o@,7ikcchiL)___________(NiuafW___Up7ppJ)__/NlQ____________TewgQ____~r8scVZSSSAZZNckp9,$o... ``",
"````..o@$,wplnmcauufvZ^____)Lseturv^____StpkK(___^N88vR)_Qhwqqrlc50gG_(^UCa8hnCZSSSSCNccse5*@o. ..``",
"````...o#;6tdlcnzjarq06n()Da0qydaaaaljar7tcctyhhiw08qq0eyrqqqq3877sxr88138rdcMCSSSZCVccgy6:%oo.. ```",
"```` ..oO$,7tgzcvczjffyquq8qyahcvvcjaurrtccccgptrryuasdpauasfjgfggccjfapadhznVZZZZCNccgp0:$@oo...```",
"`````..XoO*<9ydlxvnnccxhauaakccNNNmbzljjcccccccchjklcccclcccnnnvccSccccczvvMVCCZSCNccgy71*@oX...````",
"`````..Xoo@*<9tphxbnmmmczllccNVCCCBNMmnnccKcKcccnnmNNNNNMmMNBBBBcSCcScCcmNBBVVCVNcckdt75*#oo....````",
"``````X..oo@*:6epdhxcnnnvbnncVNNNBNNMMmNcGGccGccNNNNNVNVNNVVVVNNcSScCVcCNMNNNMncckgpe7,*@ooX...`````",
"```````...oo@&:27tpshklzxzxcccccccbccvcvccccccccvccccccccccccccvccccccccvcccxzlhdpt75:*@ooXX  ``````",
"````````X.XooO&*,47wtppppggdgpggggggggggggggggggggpcgggggggggggggggggggggggpdppy775,=#++o...X.``````",
"```````` XXXooo@#=:2667eweeeett7eeeet7eeteeetteeeeeteettttt7ttt7t7t77tt7eeeew7755,;$@+oo..o. ```````",
"`````````XXXoooo++#*;;,,1,2255452222555555525255225525225555525555557555,4,,,::;*+#++ooX o..````````",
"```````````X..ooXO++@###$$$$$$$$************;****;****;;*****;***$$***##$#*$$#@@+++oooXXX. `````````",
"````````````XXoXXOoOo++++++@@++@+++@@#+#########*##############+++#++++++++++OOOOoooXXoXX```````````",
"`````````````XXXXXXoooXOOOOOO+++++++++++++#+++++#+++++++++++++++++++++++++OOOOoooooXoXXX````````````",
"```````````````oXOXoXOOXXOXOoOOo+OOO++OO++++++++++++++++++++++++OOOO+OoOoOooOoooooXoXo``````````````",
"``````````````````XXOXXO+XOoOoOO+OOO+++++++++++++++++++++++++++++OOOOOOOOoOoooXooXXo````````````````",
"`````````````````````oooooooOOOoOOOOO++++++++++++$#+#@++++@++@+++o+OOoOOooOooooo````````````````````",
"````````````````````````````````````````````````````````````````````````````````````````````````````"
};
