/* XPM */
static char *eraser[] = {
/* columns rows colors chars-per-pixel */
"120 50 22 1",
"  c black",
". c #3A0000",
"X c #00003A",
"o c #660000",
"O c #000066",
"+ c #903A00",
"@ c #B66600",
"# c #DB903A",
"$ c #FFB666",
"% c #003A90",
"& c #0066B6",
"* c #3A90DB",
"= c #66B6FF",
"- c #90DBB6",
"; c #FFDB90",
": c #FFFFB6",
"> c #90DBFF",
", c #B6FFFF",
"< c #DBFFDB",
"1 c #FFFFDB",
"2 c #DBFFFF",
"3 c gray100",
/* pixels */
"333333333333333333333333333333333333333333333333333333333333333333333333333333333333333333333333333333333333333333333333",
"333333333333333333333333333333333333333333333333333333333333333333333333333333333333333333333333333333333333333333333333",
"333333333333333333333333333333333333333333333333333333333333333333333333333333333333333333333333333333333333333333333333",
"333333333333333333333333333333333333333333333333333333333333333333333333333333333333333333333333333333333333333333333333",
"333333333333333333333333333333333333333333333333333333333333333333333333333333333333333333333333333333333333333333333333",
"333333333333333333333333333333333333333333333333333333333333333333333333333333333333333333333333333333333333333333333333",
"333333333333333333333333333333333333333333333333333333333333333333333333333333333333333333333333333333333333333333333333",
"333333333333333333333333333333333333333333333333333333333333333333333333333333333333333333333333333333333333333333333333",
"333333333333333333333333333333333333333333333333333333333333333333333333333333333333333333333333333333333333333333333333",
"333333333333333333333333333333333333333333333333333333333333333333333333333333333333333333333333333333333333333333333333",
"333333333333333333333333333333333333333333333333333333333333333333333333333333333333333333333333333333333333333333333333",
"333333333333333333333333333333333333333333333333333333333333333333333333333333333333333333333333333333333333333333333333",
"333333333333333333333333333333333333333333333333333333333333333333333333333333333333333333333333333333333333333333333333",
"333333333333333333333333333333333333333333333333333333333333333333333333333333333333333333333333333333333333333333333333",
"333333333333333333333333333333333333333333333333333333333333333333333333333333333333333333333333333333333333333333333333",
"333333333333333333333333333333333333333333333333333333333333333333333333333333333333333333333333333333333333333333333333",
"31+              *333@             =33333333333@   &333333333333$       =3333331+              *333@             =333333",
"31+              *333@              %233333333:o   O,333333333$          X>33331+              *333@              %23333",
"31+  %233333333333333@  %23333331+   &33333333#     *33333333;.  X>333;.   =3331+  %233333333333333@  %23333331+   &3333",
"31+  %233333333333333@  %233333333@  X>3333331+     %23333331+  %233333:o  %2331+  %233333333333333@  %233333333@  X>333",
"31+  %233333333333333@  %233333333;.  =333333;.      =333333:o  *3333333$   =331+  %233333333333333@  %233333333;.  =333",
"31+  %233333333333333@  %233333333:o  *333333@  %<+  &333333:o  *3333333:o  *331+  %233333333333333@  %233333333:o  *333",
"31+  %233333333333333@  %233333333;.  =33333:o  *3$  X>333331+  X>33333333333331+  %233333333333333@  %233333333;.  =333",
"31+  %233333333333333@  %233333333#  O,33333$  O,3:o  *333333$     &333333333331+  %233333333333333@  %233333333#  O,333",
"31+             %2333@  %23333331+   *333331+  &333@  O,333333$        O,3333331+             %2333@  %23333331+   *3333",
"31+             %2333@              =333333;.  =333;.  *33333333;.        *33331+             %2333@              =33333",
"31+  %233333333333333@           X>33333333@  O,3331+  %233333333333:o     %2331+  %233333333333333@           X>3333333",
"31+  %233333333333333@  %233331+   &333333:o            =333333333333331+   *331+  %233333333333333@  %233331+   &333333",
"31+  %233333333333333@  %2333333#   *33333$             &333@  %233333331+  %231+  %233333333333333@  %2333333#   *33333",
"31+  %233333333333333@  %23333331+  O,3331+  %2333333@  X>33#  O,33333333#  O,31+  %233333333333333@  %23333331+  O,3333",
"31+  %233333333333333@  %23333333$   =333;.  *3333333;.  *33;.  *33333333@  %231+  %233333333333333@  %23333333$   =3333",
"31+  %233333333333333@  %23333333:o  %233@  O,33333331+  O,31+   =333333;.  *331+  %233333333333333@  %23333333:o  %2333",
"31+  %233333333333333@  %233333333@  X>3:o  &333333333#   =33:o   %2333@   O,331+  %233333333333333@  %233333333@  X>333",
"31+              O,33@  %233333333;.  *3$   =333333333:o  %233:o          %23331+              O,33@  %233333333;.  *333",
"31+              O,33@  %2333333331+  X-o  O,3333333333@   *3333:o      O,333331+              O,33@  %2333333331+  X>33",
"333333333333333333333333333333333333333333333333333333333333333333333333333333333333333333333333333333333333333333333333",
"333333333333333333333333333333333333333333333333333333333333333333333333333333333333333333333333333333333333333333333333",
"333333333333333333333333333333333333333333333333333333333333333333333333333333333333333333333333333333333333333333333333",
"333333333333333333333333333333333333333333333333333333333333333333333333333333333333333333333333333333333333333333333333",
"333333333333333333333333333333333333333333333333333333333333333333333333333333333333333333333333333333333333333333333333",
"333333333333333333333333333333333333333333333333333333333333333333333333333333333333333333333333333333333333333333333333",
"333333333333333333333333333333333333333333333333333333333333333333333333333333333333333333333333333333333333333333333333",
"333333333333333333333333333333333333333333333333333333333333333333333333333333333333333333333333333333333333333333333333",
"333333333333333333333333333333333333333333333333333333333333333333333333333333333333333333333333333333333333333333333333",
"333333333333333333333333333333333333333333333333333333333333333333333333333333333333333333333333333333333333333333333333",
"333333333333333333333333333333333333333333333333333333333333333333333333333333333333333333333333333333333333333333333333",
"333333333333333333333333333333333333333333333333333333333333333333333333333333333333333333333333333333333333333333333333",
"333333333333333333333333333333333333333333333333333333333333333333333333333333333333333333333333333333333333333333333333",
"333333333333333333333333333333333333333333333333333333333333333333333333333333333333333333333333333333333333333333333333",
"333333333333333333333333333333333333333333333333333333333333333333333333333333333333333333333333333333333333333333333333"
};
