/* XPM */
static char *greyhor[] = {
/* columns rows colors chars-per-pixel */
"43 14 99 2",
"   c #94B6DE",
".  c #B8BBC0",
"X  c #8EB6E3",
"o  c #8FB8E6",
"O  c #93B7E2",
"+  c #94B9E5",
"@  c #9ABBE3",
"#  c #95BCE9",
"$  c #9BBEEC",
"%  c #A1BFE3",
"&  c #B5C0C4",
"*  c #BBC7D2",
"=  c #BBCBDA",
"-  c #9CC0E7",
";  c #9EC2EC",
":  c #9DC9F4",
">  c #A4C3E4",
",  c #AAC6E4",
"<  c #ACC8E7",
"1  c #A3C5EC",
"2  c #AAC6E9",
"3  c #A4C9EE",
"4  c #ADC9EA",
"5  c #B2C7E2",
"6  c #B4CDE7",
"7  c #B8C9E3",
"8  c #B2CDEB",
"9  c #BACEEC",
"0  c #BED3EB",
"q  c #A3C4F1",
"w  c #A3CCF5",
"e  c #AACBF4",
"r  c #A2CFF9",
"t  c #AACFF8",
"y  c #B5CFF0",
"u  c #A3D4F5",
"i  c #A9D3F5",
"p  c #AAD9F6",
"a  c #A6D7F8",
"s  c #ABD5F9",
"d  c #A7D8F8",
"f  c #ABD8F9",
"g  c #B4D3F3",
"h  c #BBD4F3",
"j  c #B4DEF4",
"k  c #B9D8F7",
"l  c #B0D3FB",
"z  c #B2DFFC",
"x  c #B5E4FA",
"c  c #BCE4FB",
"v  c #BBE8FA",
"b  c #C4CDCE",
"n  c #C5D0CF",
"m  c #C3CED0",
"M  c #C5D1D2",
"N  c #C9D3D4",
"B  c #C3D3DB",
"V  c #D1D1D2",
"C  c #D1D4DD",
"Z  c #DDDFDE",
"A  c #E1E0DE",
"S  c #CBD7E7",
"D  c #C8DDE0",
"F  c #C3D5EA",
"G  c #C8D7EC",
"H  c #C2D8ED",
"J  c #CCDCEC",
"K  c #DCDFE2",
"L  c #D1DEEE",
"P  c #CADDF2",
"I  c #D5DDF0",
"U  c #DDE1E4",
"Y  c #D3E0EE",
"T  c #DAE3EC",
"R  c #C1E6FC",
"E  c #CAE4FA",
"W  c #C5EAFD",
"Q  c #CBEDFD",
"!  c #D5E1F1",
"~  c #DBE5F2",
"^  c #DFE8F5",
"/  c #D1EEFC",
"(  c #DEEEFB",
")  c #CDF2FD",
"_  c #D2F3FE",
"`  c #DDFBFF",
"'  c #EEEDEB",
"]  c #E3EBF5",
"[  c #E8EFF7",
"{  c #E5EEF8",
"}  c #E9EFFA",
"|  c #E7F0F9",
" . c #EBF2FA",
".. c #E5FDFF",
"X. c #E8FDFF",
"o. c #F3F5F1",
"O. c #F1F4FB",
"+. c #F7FFFF",
"@. c #F9FEFF",
/* pixels */
"o.' U U U U U U U U U U U U U U U U U U U U U U U U U U U U U U U U U U U K K K Z A @.",
"Z V @.@.@.+.+.+.@.@.@.@.@.+.@.@.@.@.@.@.@.@.@.+.+.@.@.@.@.@.@.@.@.@.+.+.@.@.@.@.@.K V ",
". } } } }  . . .O.O. . . .| | | { { ] ] { { { { { ] ] ] { { } { [ }  . . . . . . .O.C ",
"b T ~ ~ ^ ^ ~ ^ ] ] ] ] ~ ~ ! Y L L L J J Y ! Y L L L L I ! ! ! T ~ ~ T ~ ~ ~ ~ ~ ~ } ",
"m S G J J J J J J J J J G F 0 0 0 0 0 0 0 0 0 0 0 0 0 0 9 9 F F F F G G G G G G F G ^ ",
"* G 0 0 F F H H 0 0 0 h 8 8 4 > > > > > , , , , , , , , < 4 4 8 8 6 9 9 9 9 9 8 8 5 S ",
"* 7 6 6 6 6 6 6 < < > > @ @ O         O @ @ @ @ @ @ @ @ @ @ @ > 1 > 2 2 1 > > % @ , P ",
"= 9 8 8 8 8 8 < 4 3 1 ; + O O X X X O O + $ $ $ $ + @ $ $ 1 1 1 1 1 3 1 1 ; ; - - > P ",
"= 9 g g g y 8 8 1 1 ; $ # + o o X o + # # $ $ ; $ $ $ $ q q q e e e e w w ; 1 ; ; 3 E ",
"= h k k k g g g i w w w w w : : : : : w r w w w w t s s t s l s s s s f a f f f a i E ",
"B J R R c j j j p d a a u u u u u u d a d p p p p z x x c c c v v v v x x x x x x x ` ",
"& ( / / Q Q Q W W R R R R R R R R R W W W W W Q Q Q Q Q ) Q _ _ _ _ ) ) ) ) ) ) ) Q B ",
"b B X.X.X.X.X.X...............................X.X.....X...X.X.X.X.X.X.X.X.X.X.....D & ",
"@.T N N N N N N N N M M M M M M M M m M M M M M M b n n b b M b m m M M M M M M m N o."
};
