/* XPM */
static char *greyver[] = {
/* columns rows colors chars-per-pixel */
"14 43 101 2",
"   c #9FB2B6",
".  c #A4B4B6",
"X  c #AFB4B7",
"o  c #A4B6B9",
"O  c #A8B7BA",
"+  c #A7B9BA",
"@  c #A9B9BA",
"#  c #B1B5B9",
"$  c #B5BBBD",
"%  c #B9B9B9",
"&  c #94B5DE",
"*  c #97B9DF",
"=  c #ACBFC3",
"-  c #B7BFC1",
";  c #BABFC2",
":  c #8EB6E3",
">  c #8FB8E6",
",  c #92B7E2",
"<  c #94B9E5",
"1  c #9ABBE3",
"2  c #96BDEC",
"3  c #9BBDEB",
"4  c #A1BFE3",
"5  c #B4C2C3",
"6  c #B8C0C2",
"7  c #9CC0E7",
"8  c #96C1ED",
"9  c #9DC2ED",
"0  c #9DC4F1",
"q  c #9ECEF5",
"w  c #A4C3E4",
"e  c #A9C5E3",
"r  c #ADC8E5",
"t  c #A3C5EC",
"y  c #AAC6E9",
"u  c #A5CAEF",
"i  c #AECAEA",
"p  c #B2C7E2",
"a  c #B3CCE6",
"s  c #BACEE6",
"d  c #B3CCEA",
"f  c #BACEEC",
"g  c #BED3EB",
"h  c #A2C5F2",
"j  c #A4CCF3",
"k  c #A9CBF5",
"l  c #B3CEF1",
"z  c #A4D2F5",
"x  c #A8D5F5",
"c  c #ADDCF6",
"v  c #A3D3F9",
"b  c #ABD4F8",
"n  c #ADDDF9",
"m  c #B6D1F2",
"M  c #B9D4F7",
"N  c #B3DBF6",
"B  c #BED4F9",
"V  c #B3DEFB",
"C  c #BCDEFA",
"Z  c #BFE9F7",
"A  c #B5E1FC",
"S  c #BBE5FB",
"D  c #BFE9F9",
"F  c #C5C5C3",
"G  c #C5CCD2",
"H  c #DCDBD9",
"J  c #CDD7E0",
"K  c #C2D4EB",
"L  c #CAD7ED",
"P  c #C5D8EC",
"I  c #CBDAED",
"U  c #D1DDEE",
"Y  c #CADBF1",
"T  c #DDE6E3",
"R  c #D4E2EF",
"E  c #DAE5EF",
"W  c #CFEDF7",
"Q  c #C3E7F9",
"!  c #CBE2FA",
"~  c #C3EBFA",
"^  c #CDEDFB",
"/  c #D5E3F2",
"(  c #DAE5F1",
")  c #D3EDF6",
"_  c #DFEDF6",
"`  c #D0E1FB",
"'  c #D4EDF9",
"]  c #C9F0FF",
"[  c #D5F2F6",
"{  c #D5F3FC",
"}  c #D9F4FB",
"|  c #EAEAEC",
" . c #E0E7F6",
".. c #E3EBF5",
"X. c #EAEEF6",
"o. c #E6EDF9",
"O. c #EAEFF9",
"+. c #EAF2F7",
"@. c #EDF4FB",
"#. c #EFFFFF",
"$. c #F1F5FC",
/* pixels */
"G J _ / ` ! Y I / R ..@.| H ",
". #.' ! B M f s s K U  .$.% ",
"@ [ Q C M l d a g P R o.O.$ ",
"O [ Q C M m d a K P / o.@.$ ",
"o ' Q C M m d a K P R o.@.$ ",
". ) Q N m d d d K P R o.@.- ",
". ) Z N l d i d K P / o.$.- ",
". ) Z N l i i a P I / O.$.- ",
"o W A x u t i r g P R O.$.6 ",
". ^ A v h t t e g P / X.$.; ",
". ^ A v 0 9 t w g P / X.$.6 ",
". ^ V q 0 3 1 1 d g U o.$.$ ",
". ^ V q 9 < < 1 d g U o.$.$ ",
"  ^ A q 8 < , 1 d d I ..@.$ ",
"  ^ A v 8 > , , i a I ..@.$ ",
"  ^ V q 2 : : & w a P E @.# ",
"  ^ V q 2 : : & w a P E @.# ",
"  ^ V q 8 > : & w r P E @.# ",
"o { V q 8 < , & w a I E +.# ",
"o ^ V z 0 < , 1 w a I E @.# ",
"o ^ V v 0 2 < 1 w d I ( @.# ",
". { S z 9 3 3 1 e a I ( @.# ",
". { S x 9 9 3 * e a I ( @.X ",
". { S x 9 9 3 1 e a I ( @.# ",
"o { S x h 2 < 1 e a Y ( @.# ",
"o { S b h 3 < 1 e a Y ( @.# ",
"+ { S x h 9 1 1 e a I ( @.# ",
"O { S n h 3 3 1 e a Y ( @.# ",
"o { Q N k h 3 1 r a L ( @.# ",
"O } Q N k h t 1 i d L  .@.# ",
"O } Q V k h t 1 i a L ..+.# ",
"O } ~ A b k t w d d I  .+.# ",
"O } ~ A b k t t a s I ..+.# ",
"O } ~ A b k t w a s I ..+.# ",
"+ } ~ V x k t y f g U ..@.$ ",
"@ } ~ n z j t y f g U ..@.$ ",
"+ { D n z j t t f g U ..@.$ ",
"+ } Z c j 9 7 w f K U o.$.$ ",
"+ { D c j t 7 w f K U o.@.$ ",
"+ { D n j 9 7 4 d s I ..@.$ ",
"+ { D n j 9 7 1 d f I ..@.% ",
"5 [ ] x z u w e p g I @.X.F ",
"T = ' ^ ! ! Y Y I / ..X.# | "
};
