/* XPM */
static char *rivzLFka[] = {
/* columns rows colors chars-per-pixel */
"100 40 116 2 ",
"   c #000000",
".  c #0E0000",
"X  c #0A0A0A",
"o  c #140000",
"O  c #1F0000",
"+  c #141414",
"@  c #220000",
"#  c #2B0000",
"$  c #330000",
"%  c #3A0000",
"&  c #222222",
"*  c #440000",
"=  c #4A0000",
"-  c #570002",
";  c #5C0002",
":  c #5D0308",
">  c #640001",
",  c #6C0105",
"<  c #610208",
"1  c #63090E",
"2  c #68090F",
"3  c #75060D",
"4  c #77080F",
"5  c #790A11",
"6  c #6D1218",
"7  c #7C1017",
"8  c #711218",
"9  c #7E141B",
"0  c #7F181E",
"q  c #7B1C22",
"w  c #7D2227",
"e  c #404040",
"r  c #82131A",
"t  c #81181F",
"y  c #821D23",
"u  c #8B1C23",
"i  c #842126",
"p  c #86252A",
"a  c #87282D",
"s  c #882A2F",
"d  c #93242B",
"f  c #832E34",
"g  c #892C31",
"h  c #9C2D34",
"j  c #8C3136",
"k  c #8E353A",
"l  c #8F383D",
"z  c #9F3037",
"x  c #903A3F",
"c  c #A2333A",
"v  c #A7383F",
"b  c #913D41",
"n  c #9B3D43",
"m  c #AB3C43",
"M  c #944245",
"N  c #954649",
"B  c #97494C",
"V  c #984B4F",
"C  c #9A4F52",
"Z  c #895053",
"A  c #9B5255",
"S  c #9D5659",
"D  c #9F595B",
"F  c #AF4047",
"G  c #A5474E",
"H  c #A6484E",
"J  c #B3444B",
"K  c #B7484F",
"L  c #B84950",
"P  c #A05C5E",
"I  c #A15E60",
"U  c #A36264",
"Y  c #A56768",
"T  c #A7696B",
"R  c #A86D6E",
"E  c #A96F70",
"W  c #AB7374",
"Q  c #AF7A7B",
"!  c #B3777C",
"~  c #B07D7E",
"^  c #C26C71",
"/  c #B28282",
"(  c #B68A8A",
")  c #B98F8F",
"_  c #B9908F",
"`  c #BB9493",
"'  c #BD9897",
"]  c #BE9B9A",
"[  c #C09E9D",
"{  c #C1A09F",
"}  c #C3A4A2",
"|  c #C5A9A7",
" . c #C6ACAA",
".. c #C8AEAB",
"X. c #C9B1AF",
"o. c #CAB4B1",
"O. c #CDB9B6",
"+. c #CFBDBA",
"@. c #D0BEBB",
"#. c #D0C1BE",
"$. c #D2C5C2",
"%. c #D4C9C5",
"&. c #D6CDC9",
"*. c #D8CFCC",
"=. c #D8D1CD",
"-. c #DBD6D2",
";. c #DDDAD5",
":. c #DEDED9",
">. c #DFE0DB",
",. c #E1E3DE",
"<. c #E2E6E0",
"1. c #E4E9E4",
"2. c #E6EFE9",
"3. c #E7F0EA",
"4. c #E8F2EC",
"5. c None",
/* pixels */
"5.5.5.5.5.5.5.5.5.5.5.5.5.5.5.5.5.5.5.5.5.5.5.5.5.5.5.5.5.5.5.5.5.5.5.5.5.5.5.5.5.5.5.5.5.5.5.5.5.5.5.5.5.5.5.5.5.5.5.5.5.5.5.5.5.5.5.5.5.5.5.5.5.5.5.5.5.5.5.5.5.5.5.5.5.5.5.5.5.5.5.5.5.5.5.5.5.5.5.5.",
"5.5.5.5.G n n n n n n n n n n n n n n n n n n n n n n n n n n n n n n n n n n n n n n n n n n n n n n n n n n n n n n n n n n n n n n n n n n n n n n n n n n n n n n n n n n n n n n n H 5.5.5.5.5.5.5.",
"5.5.! m m J L L L L L L L L L L L L L L L L L L L L L L L L L L L L L L L L L L L L L L L L L L L L L L L L L L L L L L L L L L L L L L L L L L L L L L L L L L L L L L L L L L L L L K J m ^ 5.5.5.5.5.",
"5.5.h c v J J L L L L L L L L L L L L L L L L L L L L L L L L L L L L L L L L L L L L L L L L L L L L L L L L K L L L L L L L L L L L K L L L L L L L L L L L L L L L L L L L L L L K L m m v Z 5.5.5.5.",
"5.w d d c m J J J J J J J J J J J J J J J J J J J J J J J J J J J J J J J J J J J J J J J J J J J J J J J J J J J J J J J J J J J J J J J J J J J J J J J J J J J J J J J J J J J J J m m v c f e 5.5.5.",
"5.6 t u d h c h h h h h h h h h h h h h h h h h h h h h h h h h h h h h h h h h h h h h h h h h h h h h h h h h h h h h h h h h h h h h h h h h h h h h h h h h h h h h h h h h z c c c v h h p & 5.5.5.",
"5.1 5 5 r u u u t r r r r r r r r r r r r r r r r r r r r r r r r r r r r r r r r r r r r r r r r r r r r r r r r r r r r r r r r r r r r r r r r r r r r r r r r r r r r r r t r t u d d h d 0 + 5.5.5.",
"5.: 3 3 4 r 5 5 5 5 5 5 5 5 5 5 5 5 4 5 5 5 5 5 5 5 5 5 5 5 5 5 5 5 5 5 5 5 5 5 5 5 4 5 5 5 5 5 5 5 5 5 5 5 5 5 5 5 5 5 5 5 5 5 5 5 5 5 5 4 5 5 5 5 5 5 5 5 5 5 5 5 5 5 5 5 5 5 5 5 r t u u t 8 X X 5.5.",
"5.; , , 3 5 5 5 5 5 5 5 5 5 5 5 5 5 5 5 5 5 5 5 5 5 5 5 5 5 5 5 5 5 5 5 5 5 5 5 5 5 5 5 5 5 5 5 5 5 5 5 5 5 5 5 5 5 5 5 5 5 4 5 5 5 5 5 5 5 5 5 5 5 5 5 5 5 5 5 5 5 5 4 5 5 5 5 5 5 5 r r r r 2     5.5.",
"5.- , , , 5 5 5 5 5 5 5 5 5 5 5 5 5 5 5 5 5 5 5 5 5 4 5 5 5 5 5 5 5 5 5 5 5 5 5 5 5 5 5 5 5 5 5 5 5 5 5 5 5 5 5 5 5 5 5 5 5 5 5 5 5 5 5 5 5 5 5 5 5 5 5 5 5 5 5 5 5 5 5 5 5 5 5 5 5 5 5 r 5 3 <     5.5.",
"5.- , , 3 3 5 5 5 5 5 5 5 5 5 5 5 5 5 5 5 4 5 5 5 5 5 5 5 5 5 5 5 5 5 5 5 5 5 5 5 5 5 5 5 5 5 5 5 5 5 5 5 5 5 5 5 5 5 5 5 5 5 5 5 5 5 5 5 5 5 5 5 5 5 5 5 5 5 5 5 5 5 5 5 5 5 5 5 5 5 5 5 4 , <     5.5.",
"5.- , , , 3 5 5 5 5 5 5 5 5 5 5 5 5 5 4 5 5 5 5 5 5 5 5 5 5 5 5 5 5 5 5 5 5 5 5 5 5 5 5 5 5 5 5 5 5 5 4 5 5 5 5 5 5 5 5 5 5 5 5 5 5 5 5 5 5 5 5 5 5 5 5 5 5 5 5 5 5 5 5 5 5 5 5 5 5 5 5 5 3 3 ;     5.5.",
"5.- , , , 4 5 5 5 5 5 5 5 5 5 5 5 5 s l b k y 5 5 y p p p p y 5 5 5 5 9 p p p 5 5 y g k x k p 7 4 5 5 5 5 5 5 5 5 5 9 g x g 7 5 5 p p p 7 5 5 p p p p y y y 5 5 p p a a a p 7 5 5 5 5 5 5 4 , <     5.5.",
"5.- , , , 4 5 5 5 5 5 5 5 5 5 5 j ) O.$.;.:.Q 5 5 ~ %.@.+.$.O.S 3 5 5 P %.#./ 5 x o.&.&.-.-.%.} g 5 5 5 5 5 5 5 5 x [ @.:.-.k 5 g O.$.o.y 5 I $.$.@.O.+.$.~ 7 M $.$.@.@.$.#.N 5 5 5 5 5 5 3 , ;     5.5.",
"5.- , , , 4 5 5 5 5 5 5 5 5 t ! o.A y 5 S <.C 5 5 l >.A g ` 2.O.5 5 5 p -.Y 5 5 y ] o.i g U &.4.o.9 5 5 5 5 5 5 P %.x 7 ' &.i 5 5 } ..5 5 p $.` B M A $.o.y 5 r o.[ j j { %.y 5 5 5 5 5 5 3 , ;     5.5.",
"5.- , , , 3 5 5 5 5 5 5 5 y } } 0 5 5 5 S ..7 5 9 | ..9 5 I 1.` 5 5 5 / %.p 5 5 b <.P 5 5 5 B <.<.i 5 5 5 5 5 j =.R 5 5 R I 5 5 N ,.S 5 5 g ` 7 5 g O. .p 5 5 I 1.g 5 5 ~ I 5 5 5 5 5 5 5 3 , <     5.5.",
"5.- , > , 3 5 5 5 5 5 5 9 } O.p 5 5 5 5 t i 5 5 A 1.U 5 5 } =.l 5 5 g >.( 5 4 9 } -.9 5 5 5 g *.:.y 5 5 5 5 5 / 2.( 5 5 5 5 5 9  .@.i 5 5 5 5 5 b +...g 5 5 i @...7 5 4 t 5 5 5 5 5 5 5 4 4 , ;     5.5.",
"5.- , , , 3 5 5 5 5 5 7 Q ,.N 5 5 5 5 5 5 5 5 9 X.;.0 5 B ,.I 5 5 5 ( 1.l 5 5 V >.Q 5 5 5 5 k :.o.9 5 5 5 5 5 { 4.<.A 5 5 5 5 B 2.Q 5 5 5 5 5 N &.$.p 5 5 5 E 1.! j g t 5 5 5 5 5 5 5 5 5 4 , ;     5.5.",
"5.- , , , 4 5 5 5 5 5 b ,.( 7 5 5 p ~ / D 5 5 I 1.+.R ) | B 5 5 5 l ;.{ 7 5 5 o.*.p 5 5 5 5 R 1.P 5 5 5 5 5 5 b %.4.<.D 5 5 y X.;.p 5 5 5 7 T 1...p 4 5 5 y *.-.o.o.' p 5 5 5 4 5 5 5 5 5 4 , <     5.5.",
"5.- , , , 3 5 5 5 5 5 } 2.k 5 5 5 5 R 3.S 5 7 #.-.Y >.-.g 5 5 5 5 ] ,.M 5 5 V 1.Q 5 5 5 5 i &.} 5 5 5 5 5 5 5 5 l %.4.[ 5 5 S <.~ 5 5 5 t / 1.' p 5 5 5 5 E <.I 9 9 r 5 5 5 5 5 5 5 5 5 4 3 , ;     5.5.",
"5.- , , , 4 5 5 5 5 s =.,.5 5 5 5 y o.#.y 5 C 1./ 5 <.-.g 5 5 5 j :. .5 5 9 | -.j 5 5 5 5 ( $.j 5 5 5 5 5 b 9 5 5 R 4.W 5 5 ..:.g 5 5 7 ` <.` t 5 7 5 5 y %.@.y 5 4 5 5 5 5 5 5 5 5 5 5 5 3 , ;     5.5.",
"5.- , , , 4 5 5 5 5 N ,.=.5 5 5 5 S 1.T 5 7 { -.j 5 1.-.g 5 5 5 / 1.A 5 5 l 1.' 7 5 5 5 Y $.l 5 5 5 5 5 N *.l 5 5 / =.s 5 b >.` 5 5 7 ` 1./ r 5 k } y 5 D 4.E 4 5 g / y 5 5 5 5 5 5 4 5 5 3 , <     5.5.",
"5.- , , , 3 5 5 5 5 M ,.4.A 9 t b O.+.9 5 g 1./ 5 5 -.:.x 5 5 t -.| 9 5 5 _ 3.V 9 p V { } i 5 5 5 5 5 5 } =.7 5 I =.C 5 5 ` -.j 5 t ' 2.~ a y C %.) 5 9 X.1.j q k @./ 5 5 5 5 5 5 5 5 5 5 4 , ;     5.5.",
"5.- , , , 4 5 5 5 5 t ` ,.:.@.o.} U p 5 b X.:.] i 5 ~ ,.O.k a [ >.X.j 5 ( =.,.$.o. .' N r 5 5 5 5 5 5 7 $.1.O.} [ N 5 7 Q *.=.I 5 I -.:.#.@.@.&. .p 9 ' -.;.+.O.%.O.g 5 5 5 5 5 5 5 5 5 5 4 , ;     5.5.",
"5.- , , , 4 5 5 5 5 5 r M S B k 9 5 5 5 i b b j 5 5 9 N B t 9 b x l 7 5 l M N N j y 5 5 5 5 5 5 5 5 5 5 j S S x 9 5 5 7 j b b y 5 i b b b b b l y 5 7 l b b b b b p 5 5 5 5 5 5 5 5 5 5 5 3 , <     5.5.",
"5.- , , , 3 5 5 5 5 5 5 5 5 5 5 5 5 5 5 5 5 5 5 5 5 5 5 5 5 5 5 5 5 5 5 5 5 5 5 5 5 5 5 5 5 5 5 5 5 5 5 5 5 5 5 5 5 5 5 5 5 5 5 5 5 5 5 5 5 5 5 5 5 5 5 5 4 5 5 5 5 5 5 5 5 5 5 5 5 5 5 5 3 , ;     5.5.",
"5.- , , , 3 5 5 5 5 5 5 5 5 5 5 5 5 5 5 5 5 5 5 5 5 5 5 5 5 5 5 5 5 5 5 5 5 5 5 5 5 5 5 5 5 5 5 5 5 5 5 5 5 5 5 5 5 5 5 5 5 5 5 5 5 5 5 5 5 5 5 5 4 5 5 5 5 5 5 5 5 5 5 5 4 5 5 5 5 5 5 5 3 , ;     5.5.",
"5.- > , , 3 4 5 5 5 5 5 5 5 5 5 5 5 5 5 5 5 5 5 5 5 5 5 5 5 5 5 5 5 5 5 5 5 5 5 5 5 5 5 5 5 5 5 5 5 5 5 5 5 5 5 5 5 5 5 5 5 5 5 5 5 5 5 5 5 5 5 5 5 5 5 5 5 5 5 5 5 5 5 5 5 5 5 5 5 5 5 5 3 , ;     5.5.",
"5.- , , , , 4 5 5 5 5 5 5 5 5 5 5 5 5 5 5 5 5 5 5 5 5 5 5 5 5 5 5 5 5 5 5 5 5 5 5 5 5 5 5 5 5 5 5 5 5 5 5 5 5 5 5 5 5 5 5 5 5 5 5 5 5 5 5 5 5 5 5 5 5 5 5 5 5 5 5 5 5 5 5 5 5 5 5 5 5 4 4 3 , ;     5.5.",
"5.- > > , , 3 3 3 5 5 5 5 5 5 5 5 5 5 5 5 5 5 5 5 5 5 5 5 5 5 5 5 5 5 5 5 5 5 5 5 5 5 5 5 5 5 5 4 5 5 5 5 5 5 5 5 5 5 5 5 5 5 5 5 5 5 5 5 5 5 5 5 5 5 5 5 5 5 5 5 5 5 5 5 5 5 5 5 5 4 5 5 3 , ;     5.5.",
"5.= ; ; ; > , 3 3 3 5 5 5 5 5 5 5 5 5 5 5 5 5 5 5 5 5 5 5 5 5 5 5 5 4 5 5 5 5 5 5 5 5 5 5 5 5 5 5 5 5 5 5 5 5 5 5 5 5 5 5 5 5 5 4 5 5 5 5 5 4 5 5 5 5 5 5 5 5 5 5 5 5 5 5 5 5 5 4 5 4 4 3 , , -     5.5.",
"5.= - - - - - , 3 3 3 3 3 3 5 3 4 4 4 4 3 4 4 4 3 3 4 4 3 5 3 3 4 4 4 4 4 4 4 4 4 4 4 4 4 3 4 4 4 4 3 3 4 4 4 3 5 3 3 4 4 4 4 3 4 4 4 4 4 4 4 4 4 4 4 4 4 4 4 4 4 3 4 4 4 4 3 3 4 4 4 3 3 > > -     5.5.",
"5.% = = * * = ; > , , , , , , , , 2 , , , , , , , , , , 2 , , , , , , , , , , , , , , , , , , , , , , , , , , , 2 , , , , , , , , , , , , 2 , , , , , , , , , , 2 , , , , , , , , , , > > ; ; *     5.5.",
"5.5.= * % % % % % * * = = = = = = = = = = = = = = = = = = = = = = = = = = = = = = = = = = = = = = = = = = = = = = = = = = = = = = = = = = = = = = = = = = = = = = = = = = = = = = = * * * % * O     5.5.",
"5.5.@ % % $ # # # # # # # # # # # # # # # # # # # # # # # # # # # # # # # # # # # # # # # # # # # # # # # # # # # # # # # # # # # # # # # # # # # # # # # # # # # # # # # # # # # # # # # $ @     5.5.5.",
"5.5.5.o O # @ @ O @ O O O O O O @ @ O O O O O O O O O O @ @ O O O O O O O O O O O O O O O O O O O O O @ O O O O @ @ O O O O O O O O O O @ @ O O O O O O O O O O @ @ O O O O O O O O O O o .       5.5.5.",
"5.5.5.5.                                                                                                                                                                                        5.5.5.5.",
"5.5.5.5.5.5.                                                                                                                                                                                5.5.5.5.5.5.",
"5.5.5.5.5.5.5.5.5.5.5.5.5.5.5.5.5.5.5.5.5.5.5.5.5.5.5.5.5.5.5.5.5.5.5.5.5.5.5.5.5.5.5.5.5.5.5.5.5.5.5.5.5.5.5.5.5.5.5.5.5.5.5.5.5.5.5.5.5.5.5.5.5.5.5.5.5.5.5.5.5.5.5.5.5.5.5.5.5.5.5.5.5.5.5.5.5.5.5.5.",
"5.5.5.5.5.5.5.5.5.5.5.5.5.5.5.5.5.5.5.5.5.5.5.5.5.5.5.5.5.5.5.5.5.5.5.5.5.5.5.5.5.5.5.5.5.5.5.5.5.5.5.5.5.5.5.5.5.5.5.5.5.5.5.5.5.5.5.5.5.5.5.5.5.5.5.5.5.5.5.5.5.5.5.5.5.5.5.5.5.5.5.5.5.5.5.5.5.5.5.5."
};
