/* XPM */
static char *QZoiH5r7[] = {
/* columns rows colors chars-per-pixel */
"100 46 91 1 ",
"  c #0D1516",
". c #0E1718",
"X c #0F1819",
"o c #101717",
"O c #101718",
"+ c #121C1C",
"@ c #151F20",
"# c #181F20",
"$ c #152122",
"% c #1A2425",
"& c #1E2728",
"* c #1E292A",
"= c #222B2C",
"- c #2C2D2D",
"; c #262F30",
": c #282F30",
"> c #273031",
", c #2A3434",
"< c #2F3738",
"1 c #2F3838",
"2 c #343535",
"3 c #333738",
"4 c #333A3B",
"5 c #3B3D3D",
"6 c #373F40",
"7 c #3C3F40",
"8 c #3D4444",
"9 c #3E4748",
"0 c #3F4949",
"q c #434545",
"w c #404748",
"e c #434A4B",
"r c #4B4D4D",
"t c #4A4F50",
"y c #4D5353",
"u c #4F5758",
"i c #4F5859",
"p c #535455",
"a c #535758",
"s c #53595A",
"d c #5A5D5D",
"f c #595F60",
"g c #5C6263",
"h c #626565",
"j c #646768",
"k c #65696A",
"l c #6A6C6D",
"z c #6A6F70",
"x c #6E7272",
"c c #727475",
"v c #727778",
"b c #747A7A",
"n c #7A7D7D",
"m c #7B7F80",
"M c #7D8282",
"N c #828586",
"B c #838788",
"V c #85898A",
"C c #8A8D8D",
"Z c #8B8F90",
"A c #8E9292",
"S c #929595",
"D c #939798",
"F c #96999A",
"G c #9A9D9D",
"H c #9C9FA0",
"J c #9DA0A1",
"K c #A3A4A5",
"L c #A4A7A8",
"P c #A6AAAA",
"I c #AAACAC",
"U c #ACAFB0",
"Y c #AEB1B1",
"T c #B2B5B5",
"R c #B6B7B8",
"E c #B6B9B9",
"W c #BBBEBE",
"Q c #BDBFC0",
"! c #BEC1C1",
"~ c #C4C5C5",
"^ c #C5C7C8",
"/ c #C5C8C8",
"( c #CBCBCB",
") c #D4D4D4",
"_ c #D7D8D8",
"` c #DBDCDC",
"' c #E3E4E4",
"] c #ECECEC",
"[ c #F4F4F4",
"{ c #FEFEFE",
"} c None",
/* pixels */
"}}}}}}}}}}}}}}}}}}}}}}}}}}}}}}}}}}}}}}}}}}}}}}}}}}}}}}}}}}}}}}}}}}}}}}}}}}}}}}}}}}}}}}}}}}}}}}}}}}}}",
"}}}}}}}}}}}}}}}}}}}}}}}}}}}}}}}}}}}}}}}}}}}}}}}}}}}}}}}}}}}}}}}}}}}}}}}}}}}}}}}}}}}}}}}}}}}}}}}}}}}}",
"}}}}}}}}}}}}}}}}}}}X+++X+@@@X$@@@$@@$$$$$$$$%$$$$$%$$$$$%%$$$$%$$$@$@@@@++++XX@X$X}}}}}}}}}}}}}}}}}}",
"}}}}}}}}}}}}}}}}X+++@+@@@@@@$$$$$$$%$%%%%%%%%%%%%%%%%%$*%%%%%%%%$$$$$$$@$$$$@@@$+++XX}}}}}}}}}}}}}}}",
"}}}}}}}}}}}}}}++X@%169etyuyyiyiiyiiiiiiiiiiisiiiiiiiiiiiiiiiisiiiuuuppppuuyyyy0081*X++X}}}}}}}}}}}}}",
"}}}}}}}}}}}}X+++1tkZJIRW~~~~///!///~~////!(////~///!//(!!(!!!///~~/////~~~~~!!TPJAgt4$+XX}}}}}}}}}}}",
"}}}}}}}}}} XX@3sBLEEWWWWQQQQ!Q!!!!!!!!!!!!!!!!!!!!!!!!!!!!!!!!!!Q!!!!!!W!QQQ!WWWEEEJMs<+XX }}}}}}}}}",
"}}}}}}}}}o++=ymJIYTEEEWWQWWWWWWWWWWWQW!!W!W!!!QQ!!!!!!!!!!!!!!!!QWWWWWWWWWWW!WEEETYYUJny=XoX}}}}}}}}",
"}}}}}}}}.++,gZGJPITRRWWWWWQQQQQQ!!W!QQQW!!!W!!!!!!!!W!WW!!!!!!!!W!!W!W!WW!WWWWWRTTUPJJJVg1+X }}}}}}}",
"}}}}}}} .+<gBSGKITRRWWWQ!!!!!!!!!!!!!!~!~!~!!!!!!!!!!!~~!!!!!!!!W~!!!!!!!!!!!WWWEEYUJJDZMg<+o }}}}}}",
"}}}}}} .+,dnVSHLITRRWWWWQ!QQ!QQQ!!!!Q!!!!!!!!~!~!!!!!!QQ!!!!!!!!!!!W!!W!!W~W!WWWEETUJJDVMbs,oo }}}}}",
"}}}}}}o+=rznVAJLIYTTYTTRREWWWWWWWWWEWRRREEWWWWEEEEEETRRT!EEEEEEETTTTTTTTRRRRQRRREETYPJDVbbge=O }}}}}",
"}}}}}.+%8gznCFJJKKKKKJKKIYTTRRRTYYTIPLKKUYTTTYTIIPLJJJGJJJLKJJJJKJJKJJJJJKKITTTTTTYYUJFZMzgu4$  }}}}",
"}}}}}o+=eszMZSCBNSCCGGFCCGKIIIILPJFmNccCDFGKKKSBBBAAGLYYFnCNbMggNGCYYPCACMNFJKKIJUPUPPJAMxgy8=+ }}}}",
"}}}}.o#<esxMVlzMVG~][[(ncNADVcnAMxlKDnNCDAnxjslL_[[[[{{[)Nklb/_!KdcK[[[[[(clnCSSFDFJJJGSMvge6;+ X}}}",
"}}}}o+&,9dcBAAZNnchdcG(QnklVxclJJ)TPhK_[[]AhxvckapxL[{{{{{[{[{{{{[n5d){{{[(RIGFAZbbMCASAVbg91*@+  }}",
"}}} ++=3egmZAFZCMMbxjspG{_RWnkh~{{{'q5qdS~KchdkNnrrrl({{{{TlxBT]{{{a5K{{{'DccnC'{{~CccNCCmjt3&+oo }}",
"}}} o+=4izMSFHHAAZZMmxgF{{{ThddK[{{`2qadppI{`~[{cpdadG{{{{J57qqB[{{N5K{{{(d5pdpR[{{{RrjVCMxs6-%oX }}",
"}}}.+#:8gbMFFHHHHFFSZNlG{{{KpsdK{{{~5rlcxhT{{{{{lrdllJ{{{{KqrdpB]{{S2K{{{(dqhldW[{{{cpxBZVbgw,%+X }}",
"}} .+%<egMAFHHHHHJHFSVxG{{{JrpaK{{{~7dcNnn^{{{{{nqhlxL{{{{KqdlhR[{{h2K{{{(hplnl!{{{[hrzBAZMke<=+o  }",
"}} .+=2ezMAFHHJJJJGSVCSQ{{{JrrrK[{{~7dnCNS`{{{{{K5dCI){{{{KrphS]{[QrpR{{{(hsbBc~[{{{rpxCSAMzy4&+X  }",
"}} .+=3tzMAJHJHHJJJSVAW]{{{~VNN~{{{^7dnBnL[{{{{{'5pS)[{{{{KplS''[(qlP'{{{(kdnVx!{{{[rpcCSSMxi4*+X  }",
"}} .+&3uzMAHHHJJJJJGNlS_{{{[[]][{{{~5plAA/{{{(]{{r5lK[{{{{)Y~](M~M-qD[{{{(kdnVx~{{{{8abZFDCxa4=#X  }",
"}} o#&3yzMAFHHJJJJGGBlS_{{{[)~~]{{{~5rdCW]{{[n_{{x5lR[{{{{''{{G2d75pG[{{{(hdbVx){{{`3smZFFMxa3=++  }",
"}} .+=2tlMAGFJJJJJJGSMcT{{{/lppT[{{~5rpn~[{{(a/{{Y-rn_{{{{TK]{`d5qrhS'{{{(hdnNc_{{{I5hnSFAMzi1=+   }",
"}} .O=,ehmAFHJJJJJJGFVlG{{{Rq22G{{{~5rdkT{{{'Y'{{]2qpT{{{{Ka~{{!prhjlW{{{(ldcNn`{{{nqhBSFAMzt1%+X  }",
"}} .+%:wgbCDGJHJJJJJGAcG{{{RrqrJ[{{~7ajlR{{{LdK[{{rqdI{{{{P7x`{[ApjxlT{{{/hdcNN'{{{przVDDZMg0,%+X  }",
"}}  +#=4sxBAFHJJJJJJGSnJ{{{RprpJ{{{~5aln({{(p-d'{{xqdI{{{{P75J[{]xdxcT{{{(jacxW[{{W5anCDDMvs8>$+.  }",
"}}} ++=3tgMZDHHHJJJJJSnK{{{RppdK[{{(5dhS[{{F75q`{{K5aI{{{{Iqqd_{{_ahxY{{{(hpjN`{{[dqjMSSAMkt3=++  }}",
"}}} o+%=8fxBAFHJJJJJJDnK{{{WppaK[{{(5pjI{{[n5prW{{]5pI{{{{Irrsn]{{GrhY{{{(hrh!{{]nqacCSSBxg9,%+o  }}",
"}}} o++=<egbVDFJJJJJGSBR{{{'krp({{{'drM]{{`jqdhY[{[kr/{{{{Tdajs({{{cr~{{{(kk([_GaqplNZAVnky4=#+ . }}",
"}}}} o+&;8akmVDFGJJJGBxJ`[]_nprl']`!NdR[[[[Spkh_[[[(-hW](RVdhchcK((Ihpn!]'V-2qqrpdlNCSCmku8-&++  }}}",
"}}}} .++&:8skMCAFFJJFnzzae77esggsqq55rpcMMzgizgsbVvri088q7tgcnghi0088eppq5qrfgkkxnMZZVMzs8<&++X  }}}",
"}}}}}..++=<8ikbBZDFFFSCMxhhhlbnbxkghhhhhiifgzMMMkspaifgggkzbNCVmMzgkhhggddhzbbmMVVZZMmzfe3=#++..}}}}",
"}}}}} ..+#*<9ugvMMZSSAZMNnmmMNMZNnnnnmnbzzzmMZVMnvccvvvMnmBVZAACMMMMnnnnvbnNVZVZCCBMbgy03=$+.X  }}}}",
"}}}}}} .++%*>8ydzbMMVMVMBNMNNVCMBNNNMNNMMMMMMMMZBMmmMMMMBBBVCZCVMMMMNNMMNMNNMZMMMmvkfy8,=%++. .}}}}}",
"}}}}}} .o++#=-48tigzxvvvvvvbvbbvvMvmnbbbMMzMvmbmbbbbbbMMvMMMbbbmmbbmvvvbvvvbvvvzzjfy04>*$++OXoo}}}}}",
"}}}}}}}.oo+++%=,490iiifffggfggggfgfgggggggggggggggggggggfgggggggggffggggfggfffsiye94>;%$+++ oX}}}}}}",
"}}}}}}}}..oo++$%*>146888898999990000000000000000000000000000000000009999999988844,>=&%@@+XXX }}}}}}}",
"}}}}}}}}}..+++++$%**=;;>>,>>>,>,;;,,,,,<,,<,,,,<,,1,,11,,,,,1,,,,,,,>>>,>>>>>;;;=*%%+++XXXXX}}}}}}}}",
"}}}}}}}}}} XXX++@@$$$$%%%%%%%&*%***%******************************%*%%%%%%%%%%%$$@@+++XXXX+}}}}}}}}}",
"}}}}}}}}}}}}XXXXXXX@@@@@$$$$$$$$$$$$$$$%%%%%%%%%%%%%%%%%$$$**$$$$$$%$$$$$$$$#$++@+++X+XXX}}}}}}}}}}}",
"}}}}}}}}}}}}}}++X@XXX@++$++$++$+@@$$$$$$$$$$$$$%$$$$$$$%$$$$$$$$$@@@$+$@@+@+++++X+XX+XXX}}}}}}}}}}}}",
"}}}}}}}}}}}}}}}}XXX@+X++X$X++$+$+@@$$$$$$$$$$$$$$$$$$$$$$$$$$$$$$@@@@@+++@+@++++@++XX}}}}}}}}}}}}}}}",
"}}}}}}}}}}}}}}}}}}}+X@X@+++@@@$$@@$$$$$$$$%$$$$$$%$$$$$$$%$*$*$$$@@@$+@@+@++++++XX}}}}}}}}}}}}}}}}}}",
"}}}}}}}}}}}}}}}}}}}}}}}}}}}}}}}}}}}}}}}}}}}}}}}}}}}}}}}}}}}}}}}}}}}}}}}}}}}}}}}}}}}}}}}}}}}}}}}}}}}}"
};
