/* XPM */
static char *OuTPjbmS[] = {
/* columns rows colors chars-per-pixel */
"100 34 85 1 ",
"  c #070C0D",
". c #080D0D",
"X c #0D1415",
"o c #0F1718",
"O c #0F1819",
"+ c #101719",
"@ c #121B1C",
"# c #151F20",
"$ c #181F20",
"% c #162122",
"& c #192425",
"* c #1F2728",
"= c #1F2828",
"- c #232C2D",
"; c #2C2D2D",
": c #252F30",
"> c #282F30",
", c #263132",
"< c #2B3233",
"1 c #323333",
"2 c #303738",
"3 c #343B3C",
"4 c #3B3D3D",
"5 c #383F40",
"6 c #3D4445",
"7 c #3F4748",
"8 c #3F4849",
"9 c #434545",
"0 c #404748",
"q c #424B4B",
"w c #4A4C4C",
"e c #484F50",
"r c #4D5252",
"t c #525455",
"y c #555758",
"u c #565959",
"i c #5A5C5D",
"p c #5D5F60",
"a c #5E6162",
"s c #626464",
"d c #636768",
"f c #666B6B",
"g c #6A6D6D",
"h c #686F70",
"j c #6C7172",
"k c #727575",
"l c #747778",
"z c #76797A",
"x c #7A7D7D",
"c c #7D7F80",
"v c #7E8181",
"b c #828585",
"n c #838788",
"m c #858A8B",
"M c #8A8D8D",
"N c #8C8F90",
"B c #8E9292",
"V c #929595",
"C c #939798",
"Z c #969A9A",
"A c #9A9D9D",
"S c #9C9FA0",
"D c #9DA0A0",
"F c #A2A4A4",
"G c #A6A9A9",
"H c #ABACAC",
"J c #ADAFB0",
"K c #AFB2B2",
"L c #B2B4B5",
"P c #B4B7B8",
"I c #B6B9B9",
"U c #BABDBD",
"Y c #BCBFC0",
"T c #BEC1C1",
"R c #C1C3C4",
"E c #CCCCCC",
"W c #D3D3D3",
"Q c #D7D7D8",
"! c #D7D8D8",
"~ c #DADBDB",
"^ c #E3E4E4",
"/ c #EBEBEB",
"( c #F4F4F4",
") c #FEFEFE",
"_ c None",
/* pixels */
"____________________________________________________________________________________________________",
"_________________XX.XXXXXXXXXXXXXXXXXXXXoOooXooOoooXOOOOXOoOoXXXXXoXXoXXXXXXXXXX.XX_________________",
"____________oO@@O#@#@@%#%%@%#%#%%%%%%%&&&&&&&%&&&&&&&&&&&&&&&%&%&&%%%%%%%%@#%@%@@#@@+@+O____________",
"__________@+@%6ugxbbbbvmvvmbnnnmmnmmmmmmmvmmmmmvmvmmBvvMmmvmmmmmmmvmnnnnmvmbbnbbbbxju6&@O@__________",
"________o@%5jDKIUUTTTTTRTRTTTRTTTTTTTTTTTRRTRRRRTTTRTRTRTTRTTTTTTTTTTTTRTTTRTTTTTTUUULDk5%Oo________",
"_______+@,aZHKPIUUUUUUUUUTUTYYYTTTTTYYTTTYYYYYYYTTTTTTTTTTTTTYTTTTTTYYYYUUYUYUYUUUUUIPKKSf<@+_______",
"______o@2vZDHKIUUTYTTTTTTTTTTTTTTTRTTTTTTTTTTTRTTTTTTTTTTTTTTTTTTTRTTRTTTTTTTYTYTTTUUPKHFZb3#o______",
"_____o@3jMZDKPIUYYTRTTTTTTTTTTTTTTTTTRTTRTRTTRTRTTTTTTTTTTRTTTTTRTTTTTTTTTTTTTRTTTTTUUPKFZNk6@+_____",
"____o@,acMZGGJJKLIUUUUUUIIIILLPIUPPLLIIULLLJKKLLIUUIPPLLIPPPPPPIUUUUUUIILLLJLLIUUUUULLLHFCMxf,+X____",
"____+&qfxmmADAAZNSHJLLKGGSBVAcCFCCDvMFANVAFGAVVMFFAVSASFmmmmnMVFGKLPLGVFFAAbxAGKKKKDGAMVBlvzfe-X____",
"___+@>efvBmvMSQ^zxBAAFFBAHQ^FscAW^WlkMbkgjVQ///NzbkkzcAGzLW~~RHncAGGGDNvbVGFskMASFDNAH~^Csxzfe<@o___",
"___+@<qhvZCMcjgAUHbxxbVbU))^stA())(~WWWW/Fwg/))RFVVHHbpiNGVAGMQNpcVAZABzA~!mHFccxnCmU))~iscvjw2@OX__",
"__o@$2tlMZAZNbzdM)^^bkbbQ))W9tx^))EgxxccVLgi^))mwpsT)(Wgw)^EAwF~ZdxkcmcF()L1n(^Qxkbx/))LwfbMxy3&+X__",
"__o@-6abCAAAAAVcb)))CizV/))W9pk^))J1wispppts~))x9ssH))^9r)))V14Q)RRnszJ))/i4c))(MpxM)))HwlMVma6-@o__",
"__X@-qgmZASASSZmM)))QyfH)))W9pk^))L4sxcbclpg^))ctkkH))^9t)))V9wQ))!ssk^))Wwwm())RifT)))KtzVCMhe:#o__",
"__+@,rjBZSSSSZcmF)))^NiW())W4sH())UygxcbMgxU())cycxL))EiV))(bsA/))WysgJ))R9dG())/xdW())HrkVABlr,#+__",
"__+@1rkBZDDDDCclW))^zTFFG))W4yF())/Q~WWHzaiC)))vyccU))W9A)))NwG())WyflF))R9k!))^xRAAU))JrzBSBlt<$+._",
"_.+$<rjBZDDDDZvvE))W4bE9M))W4yI())/RMspsklgR())viccR))F4H)))Nwx/))WidzH))R9cQ))^;ML9G))JtlCZBlt<#o._",
"__+@>qjNZDDDDDNcZ))E9rstV))W9yk^))I49igxbnxj^))vyxbW))c4i)))V9d^))WysgW))E9tA))^1wsrH))HrzBZBke>#+._",
"__o@-7fmCZDDDDCvm))ErskkA))W9sk^))J4scMBBmlj~))vylM/)/ytf)))V9w~))(AdC())RryM()^9pkjH))JtzBZmf0-@+__",
"__o@*4pcCZDDSSSMM))WtgmbF))W0sz^))L9gbmcbVgg~((vtgR)(Zwsg)))Vwy~)))(~^!))EtiN()^9gbcJ))HrzBVva6-@o__",
"__XO$>ejvCDDSSSBB))~yjMMG))Wwpn/))^MvVHEEjdk^((vwV/^VwpgB)))LwycL~()Taj^)QpyA))^wgMML))LtkMbje,#+X__",
"__Xo@=5pcNCSSSSjcQ/EdgMzMQ^LtucSHI~)))/Fsppx~(/vwccswskgAU/QLgisiiNVequhVRMwc^^RsgMkVQ~Gyjbza6-@+X__",
"___o+#:8avNCZSCvksyysxNMzsyyskzjpiyCQFsydkgkhaaaysgkcbczkpytiskbvzgdglvldspysiuusxNblpiyskzdq;&+X___",
"___o+@&2wfxNCSCCMckkvMZCMvzzvNBNbxjairajvvvvvvvvvvGvGvGvnczkzvNCZCNvBCZCmvzxczjlcMCVMxkjkjfe2&@oo___",
"____XO@&<qakvNBCVNNNBCZZCBNBBCCCCVMvxlvBKvPvGvvvvKvvDDDGVVBBBCCCZZZCCZDDZBBNBBBBVVCCBMbxjaq2*@+o____",
"____XoO@*,6talvvnnMMmmmMmmmmmmmMMMmmmvmmvvvvvvvvvGvvvvvvMMMNMMMMmNNmvBvvmmmmmmmmMnmMvckdt62&@+oX____",
"_____XOO@%:28epsffffffhghhhhhhhhgghhhhhhhhvvvvvhhvhvvvhhjghhhhhhhhhhjjjjhhhhhffgggddair03-*@@oX_____",
"______OO+@#&-,2366666887888888888888888e8e8qqqq8qqqq8e8qe88888888888888888887776866663<-&#@+OO______",
"_______Xoo@@@&*-=----------:-,::,,,,,,,,,,,,,,,,,,,,,,,,,,,,,,,,,,,,:::::-,=------=-=&%%@@++X_______",
"_________+OO+@@@@@#####%%%%%%%%%&&%%&&&&&&&&&:&&&&,:&&&&=&&&&&=&%&%&%%&%%%%%%%%@@%%@@@@OOOOX________",
"__________OO++@+@@@@@@@@@@%@@%%#%%%%%%%%%%&%%%%&&&&&%%&%%&%%%%%&%%%%@%@%@%@@@@@@@@O@@@OOOo__________",
"_____________O++@+@@@@@#@@@#@@%@##%%%%%%%%%%%%%%%%%%%%%%%%%%%%%%%##%@#@#@#@@@@@@@O@OO@O_____________",
"____________________________________________________________________________________________________"
};
