/* XPM */
static char *button_[] = {
/* columns rows colors chars-per-pixel */
"43 43 9 1",
"  c black",
". c #3A0000",
"X c #00003A",
"o c #660000",
"O c #0066B6",
"+ c #FFDB90",
"@ c #FFFFB6",
"# c #FFFFDB",
"$ c gray100",
/* pixels */
"$$$$$$$$$$$$$$$$$$$$$$$$$$$$$$$$$$$$$$$$$$$",
"$$$$$$$$$$$$$$$$$$$$$$$$$$$$$$$$$$$$$$$$$$$",
"$$$$$$$$$$$$$$$$$$$$$$$$$$$$$$$$$$$$$$$$$$$",
"$$$$$$$$$$$$$$$$$$$$$$$$$$$$$$$$$$$$$$$$$$$",
"$$$$$$$$$$$$$$$$$$$$$$$$$$$$$$$$$$$$$$$$$$$",
"$$$$$$$$$$$$$$$$$$$$$$$$$$$$$$$$$$$$$$$$$$$",
"$$$$$$$$$$$$$$$$$$$$$$$$$$$$$$$$$$$$$$$$$$$",
"$$$$$$$$$$$$$$$$$$$$$$$$$$$$$$$$$$$$$$$$$$$",
"$$$$$$$$$$$$$$$$$$$$$$$$$$$$$$$$$$$$$$$$$$$",
"$$$$$$$$$$$$$$$$$$$$$$$$$$$$$$$$$$$$$$$$$$$",
"$$$$$$$$$$$$$$$$$$$$$$$$$$$$$$$$$$$$$$$$$$$",
"$$$$$$$$$$$$$$$$$$$$$$$$$$$$$$$$$$$$$$$$$$$",
"$$$$$$$$$$$$$$$$$$$$$.  X$$$$$$$$$$$$$$$$$$",
"$$$$$$$$$$$$$$$$$$$+    X$$$$$$$$$$$$$$$$$$",
"$$$$$$$$$$$$$$$$$$o     X$$$$$$$$$$$$$$$$$$",
"$$$$$$$$$$$$$$$$$   O@o X$$$$$$$$$$$$$$$$$$",
"$$$$$$$$$$$$$$$$#  $$@o X$$$$$$$$$$$$$$$$$$",
"$$$$$$$$$$$$$$$$$$$$$@o X$$$$$$$$$$$$$$$$$$",
"$$$$$$$$$$$$$$$$$$$$$@o X$$$$$$$$$$$$$$$$$$",
"$$$$$$$$$$$$$$$$$$$$$@o X$$$$$$$$$$$$$$$$$$",
"$$$$$$$$$$$$$$$$$$$$$@o X$$$$$$$$$$$$$$$$$$",
"$$$$$$$$$$$$$$$$$$$$$@o X$$$$$$$$$$$$$$$$$$",
"$$$$$$$$$$$$$$$$$$$$$@o X$$$$$$$$$$$$$$$$$$",
"$$$$$$$$$$$$$$$$$$$$$@o X$$$$$$$$$$$$$$$$$$",
"$$$$$$$$$$$$$$$$$$$$$@o X$$$$$$$$$$$$$$$$$$",
"$$$$$$$$$$$$$$$$$$$$$@o X$$$$$$$$$$$$$$$$$$",
"$$$$$$$$$$$$$$$$$$$$$@o X$$$$$$$$$$$$$$$$$$",
"$$$$$$$$$$$$$$$$$$$$$@o X$$$$$$$$$$$$$$$$$$",
"$$$$$$$$$$$$$$$$$$$$$@o X$$$$$$$$$$$$$$$$$$",
"$$$$$$$$$$$$$$$$$            $$$$$$$$$$$$$$",
"$$$$$$$$$$$$$$$$$            $$$$$$$$$$$$$$",
"$$$$$$$$$$$$$$$$$$$$$$$$$$$$$$$$$$$$$$$$$$$",
"$$$$$$$$$$$$$$$$$$$$$$$$$$$$$$$$$$$$$$$$$$$",
"$$$$$$$$$$$$$$$$$$$$$$$$$$$$$$$$$$$$$$$$$$$",
"$$$$$$$$$$$$$$$$$$$$$$$$$$$$$$$$$$$$$$$$$$$",
"$$$$$$$$$$$$$$$$$$$$$$$$$$$$$$$$$$$$$$$$$$$",
"$$$$$$$$$$$$$$$$$$$$$$$$$$$$$$$$$$$$$$$$$$$",
"$$$$$$$$$$$$$$$$$$$$$$$$$$$$$$$$$$$$$$$$$$$",
"$$$$$$$$$$$$$$$$$$$$$$$$$$$$$$$$$$$$$$$$$$$",
"$$$$$$$$$$$$$$$$$$$$$$$$$$$$$$$$$$$$$$$$$$$",
"$$$$$$$$$$$$$$$$$$$$$$$$$$$$$$$$$$$$$$$$$$$",
"$$$$$$$$$$$$$$$$$$$$$$$$$$$$$$$$$$$$$$$$$$$",
"$$$$$$$$$$$$$$$$$$$$$$$$$$$$$$$$$$$$$$$$$$$"
};
