/* XPM */
static char *proo[] = {
/* columns rows colors chars-per-pixel */
"110 50 243 2",
"   c #000000",
".  c #000408",
"X  c #00080E",
"o  c #100400",
"O  c #190400",
"+  c #1D0C00",
"@  c #051400",
"#  c #191400",
"$  c #18160A",
"%  c #010A15",
"&  c #051416",
"*  c #03171C",
"=  c #250D00",
"-  c #2C1400",
";  c #241E0F",
":  c #301802",
">  c #3A1D03",
",  c #301D08",
"<  c #3F1F08",
"1  c #1A2300",
"2  c #192014",
"3  c #242C00",
"4  c #392500",
"5  c #302D00",
"6  c #2D3600",
"7  c #2D2713",
"8  c #2D291A",
"9  c #382912",
"0  c #322D1C",
"q  c #092421",
"w  c #132020",
"e  c #1A2F27",
"r  c #1A3225",
"t  c #292F20",
"y  c #233A2B",
"u  c #353C21",
"i  c #393D21",
"p  c #333F2F",
"a  c #273B30",
"s  c #401C04",
"d  c #402000",
"f  c #4E2E00",
"g  c #502F00",
"h  c #512F0E",
"j  c #443600",
"k  c #473800",
"l  c #4D3D00",
"z  c #4D310D",
"x  c #513100",
"c  c #503F00",
"v  c #5F3D00",
"b  c #4C3111",
"n  c #583816",
"m  c #603C12",
"M  c #3E4200",
"N  c #3E4B28",
"B  c #344639",
"V  c #434600",
"C  c #544300",
"Z  c #5A4700",
"A  c #5F4B00",
"S  c #595500",
"D  c #6A4600",
"F  c #634F00",
"G  c #665200",
"H  c #6A5400",
"J  c #645B00",
"K  c #6F5900",
"L  c #725600",
"P  c #735B00",
"I  c #795E00",
"U  c #634214",
"Y  c #604219",
"T  c #6B461A",
"R  c #734E1F",
"E  c #6A6200",
"W  c #736600",
"Q  c #7C6300",
"!  c #7F6D01",
"~  c #75731F",
"^  c #574620",
"/  c #455538",
"(  c #684E23",
")  c #715120",
"_  c #776E36",
"`  c #7B633C",
"'  c #3A5244",
"]  c #556744",
"[  c #5E6D47",
"{  c #67724C",
"}  c #707348",
"|  c #7E734D",
" . c #806600",
".. c #8A6400",
"X. c #836902",
"o. c #8A6C00",
"O. c #856D0C",
"+. c #8E7200",
"@. c #917500",
"#. c #967A00",
"$. c #997D00",
"%. c #876F10",
"&. c #886F10",
"*. c #8B7315",
"=. c #8D751A",
"-. c #947B12",
";. c #987D1B",
":. c #805A23",
">. c #8E7824",
",. c #927B24",
"<. c #937D28",
"1. c #8E6A30",
"2. c #927134",
"3. c #9B7634",
"4. c #A37E37",
"5. c #877645",
"6. c #847847",
"7. c #82774F",
"8. c #947F45",
"9. c #768145",
"0. c #9D8100",
"q. c #91811B",
"w. c #9B831C",
"e. c #A18500",
"r. c #A58A00",
"t. c #A98E00",
"y. c #97812E",
"u. c #9B8636",
"i. c #9B8738",
"p. c #9E8A3D",
"a. c #A18A27",
"s. c #A3852A",
"d. c #A9822D",
"f. c #A38235",
"g. c #A48A30",
"h. c #A18D3D",
"j. c #A59030",
"k. c #A8933C",
"l. c #BCA422",
"z. c #D6BC17",
"x. c #E0C92E",
"c. c #E6CF36",
"v. c #85864E",
"b. c #938543",
"n. c #999048",
"m. c #8E8F5F",
"M. c #918B56",
"N. c #919254",
"B. c #9D955B",
"V. c #9B9859",
"C. c #AB8740",
"Z. c #A18E42",
"A. c #A39046",
"S. c #A99443",
"D. c #AE9844",
"F. c #A5934B",
"G. c #A8954B",
"H. c #AD9A4B",
"J. c #B19549",
"K. c #BB9448",
"L. c #B29C4B",
"P. c #A79650",
"I. c #A99652",
"U. c #A49B52",
"Y. c #AA9954",
"T. c #AE965E",
"R. c #AD9D5B",
"E. c #B49D53",
"W. c #B2A256",
"Q. c #BAA553",
"!. c #B3A25C",
"~. c #BBA75F",
"^. c #B7A85C",
"/. c #AF9F60",
"(. c #B09F60",
"). c #AFA160",
"_. c #B1A264",
"`. c #BAA760",
"'. c #B5A964",
"]. c #BCAB63",
"[. c #B5A66A",
"{. c #B7A86F",
"}. c #BBAC6B",
"|. c #BFB16D",
" X c #AFAA76",
".X c #B9AB74",
"XX c #BBAE78",
"oX c #BFB174",
"OX c #BEB07C",
"+X c #C2AD5B",
"@X c #CEBC55",
"#X c #C6B15F",
"$X c #CBB15A",
"%X c #C0AE63",
"&X c #C1AE6B",
"*X c #C4B061",
"=X c #C3B26D",
"-X c #C9B677",
";X c #C2B57E",
":X c #C5B87B",
">X c #D0BF7F",
",X c #E5D040",
"<X c #EFDB4F",
"1X c #D7C877",
"2X c #F4E471",
"3X c #F3E47B",
"4X c #BBAF82",
"5X c #BFB380",
"6X c #C2B583",
"7X c #C5B985",
"8X c #C9BC83",
"9X c #C7BB88",
"0X c #CDC085",
"qX c #CEC288",
"wX c #D6CA84",
"eX c #D1C58A",
"rX c #D5C98E",
"tX c #D4C990",
"yX c #DACE92",
"uX c #DFD497",
"iX c #E0D69C",
"pX c #E4D99D",
"aX c #F4E783",
"sX c #F5E887",
"dX c #F5E98B",
"fX c #F7EA93",
"gX c #F7EC99",
"hX c #F8ED9E",
"jX c #D2CAA6",
"kX c #E6DDA2",
"lX c #E8DEA2",
"zX c #EDE2A6",
"xX c #ECE2AB",
"cX c #F7ECA0",
"vX c #F8EEA4",
"bX c #F1E8AB",
"nX c #F8EFA9",
"mX c #F3EAB0",
"MX c #F5EDBB",
"NX c #E2DCC5",
"BX c #F8F1C3",
"VX c #F8F2C9",
"CX c #FFFFFF",
/* pixels */
"CXCXCXCX4X,.@.+.@.@.@.@.@.@.@.@.@.@.@.#.#.#.#.#.#.#.#.#.$.$.$.$.$.$.$.$.$.$.$.$.$.$.$.#.#.#.$.#.#.#.#.#.#.#.#.#.#.#.#.#.#.#.#.#.#.#.#.#.#.#.#.#.#.#.#.#.#.#.#.#.$.$.$.$.$.0.0.0.0.0.0.e.e.e.e.r.r.r.r.r.t.e.+.Q >.6XCXCXCXCX",
"CXCXNXP $.x.2X3X3X3X3X3X3X3X3X3XaXaXaXaXaXsXsXsXsXdXdXdXdXdXdXdXdXdXdXdXdXdXdXdXdXdXdXdXdXdXdXdXdXdXdXdXdXdXsXsXsXsXsXsXsXsXsXsXsXsXsXsXsXsXsXsXsXsXsXsXsXsXdXdXdXdXfXfXfXfXgXgXgXhXhXhXcXcXvXvXvXvXnXnXnXvX3Xz.@.H Q NXCXCX",
"CXNXH 0.2XVXMXMXMXMXMXMXMXMXMXMXMXMXMXMXMXMXMXMXMXMXMXMXMXMXMXMXMXMXMXMXMXMXMXMXMXMXMXMXMXMXMXMXMXMXMXMXMXMXMXMXMXMXMXMXMXMXMXMXMXMXMXMXMXMXMXMXMXMXMXMXMXMXMXMXMXMXMXMXMXMXMXMXMXMXMXMXMXMXMXMXMXMXMXMXMXMXMXBX<X0.I L NXCX",
"CXX.I ,XBXmXmXmXmXmXmXmXmXmXmXmXmXmXmXmXmXmXmXmXmXmXmXmXmXmXmXmXmXmXmXmXmXmXmXmXmXmXmXmXmXmXmXmXmXmXmXmXmXmXmXmXmXmXmXmXmXmXmXmXmXmXmXmXmXmXmXmXmXmXmXmXmXmXmXmXmXmXmXmXmXmXmXmXmXmXmXmXmXmXmXmXmXmXmXmXmXmXmXmXBXc.Q Q X.CX",
"jXL 0.cXbXbXbXbXbXbXbXbXbXbXbXbXbXbXbXbXbXbXbXbXbXbXbXbXbXbXbXbXbXbXbXbXbXbXbXbXbXbXbXbXbXbXbXbXbXbXbXbXbXbXbXbXbXbXbXbXbXbXbXbXbXbXbXbXbXbXbXbXbXbXbXbXbXbXbXbXbXbXbXbXbXbXbXbXbXbXbXbXbXbXbXbXbXbXbXbXbXbXbXbXbXnXo.Q P jX",
"A.P l.MXzXzXzXzXzXzXzXzXzXzXzXzXzXzXzXzXzXzXzXzXzXzXzXzXzXzXzXzXzXzXzXzXzXzXzXzXzXzXzXzXzXzXzXzXzXzXzXzXzXzXzXzXzXzXzXzXzXzXzXzXzXzXzXzXzXzXzXzXzXzXzXzXzXzXzXzXzXzXzXzXzXzXzXzXzXzXzXzXzXzXzXzXzXzXzXzXzXzXzXzXzXMX-.Q Q A.",
"*.I @XxXlXlXlXlXlXlXlXlXlXlXlXlXlXlXlXlXlXlXlXlXlXlXlXlXlXlXlXlXlXlXlXlXlXlXlXlXlXlXlXlXlXlXlXlXlXlXlXlXlXlXlXlXlXlXlXlXlXlXlXlXlXlXlXlXlXlXlXlXlXlXlXlXlXlXlXlXlXlXlXlXlXlXlXlXlXlXlXlXlXlXlXlXlXlXlXlXlXlXlXlXlXbXw.Q Q *.",
" .I 1XkXpXpXpXpXpXpXpXpXpXpXpXpXpXpXpXpXpXpXpXpXpXpXpXpXpXpXpXpXpXpXpXpXpXpXpXpXpXpXpXpXpXpXpXpXpXpXpXpXpXpXpXpXpXpXpXpXpXpXpXpXpXpXpXpXpXpXpXpXpXpXpXpXpXpXpXpXpXpXpXpXpXpXpXpXpXpXpXpXpXpXpXpXpXpXpXpXpXpXpXpXpXxXa.Q Q  .",
"Q Q wXiXuXuXuXuXuXuXuXuXuXuXuXuXuXuXuXuXuXuXuXuXuXuXuXuXuXuXuXuXuXuXuXuXuXuXuXuXuXuXuXuXuXuXuXuXuXuXuXuXuXuXuXuXuXuXuXuXuXuXuXuXuXuXuXuXuXuXuXuXuXuXuXuXuXuXuXuXuXuXuXuXuXuXuXuXuXuXuXuXuXuXuXuXuXuXuXuXuXuXuXuXuXkXj.Q  .Q ",
"Q Q eXuXyXyXyXyXyXyXyXyXyXyXyXyXyXyXyXyXyXyXyXyXyXyXyXyXyXyXyXyXyXyXyXyXyXyXyXyXyXyXyXyXyXyXyXyXyXyXyXyXyXyXyXyXyXyXyXyXyXyXyXyXyXyXyXyXyXyXyXyXyXyXyXyXyXyXyXyXyXyXyXyXyXyXyXyXyXyXyXyXyXyXyXyXyXyXyXyXyXyXyXyXyXiXk.Q  . .",
"Q Q 0XtXrXrXrXrXrXrXrXrXrXrXrXrXrXrXrXrXrXrXrXrXrXrXrXrXrXrXrXrXrXrXrXrXrXrXrXrXrXrXrXrXrXrXrXrXrXrXrXrXrXrXrXrXrXrXrXrXrXrXrXrXrXrXrXrXrXrXrXrXrXrXrXrXrXrXrXrXrXrXrXrXrXrXrXrXrXrXrXrXrXrXrXrXrXrXrXrXrXrXrXrXrXyXk.Q  . .",
"Q Q :XeXqXqXqXqXqXqXqXqXqXqXqXqXqXqXqXqXqXqXqXqXqXqXqXqXqXqXqXqXqXqXqXqXqXqXqXqXqXqXqXqXqXqXqXqXqXqXqXqXqXqXqXqXqXqXqXqXqXqXqXqXqXqXqXqXqXqXqXqXqXqXqXqXqXqXqXqXqXqXqXqXqXqXqXqXqXqXqXqXqXqXqXqXqXqXqXqXqXqXqXqXqXtXS.Q  . .",
"Q I }.8X8X8X8X8X8X8X8X8X8X8X8X8X8X8X8X8X8X8X8X8X8X8X8X8X8X8X8X8X8X8X8X8X8X8X8X8X8X8X8X8X8X8X8X8X8X8X8X8X8X8X8X8X8X8X8X8X8X8X8X8X8X8X8X8X8X8X8X8X8X8X8X8X8X8X8X8X8X8X8X8X8X8X8X8X8X8X8X8X8X8X8X8X8X8X8X8X8X8X8X8X8XqXS.Q  . .",
"Q Q !.7X;X;X;X;X;X;X;X;X;X;X;X;X;X;X;X;X;X;X;X;X;X;X;X;X;X;X;X;X;X;X;X;X;X;X;X;X;X;X;X;X;X;X;X;X;X;X;X;X;X;X;X;X;X;X;X;X;X;X;X;X;X;X;X;X;X;X;X;X;X;X;X;X;X;X;X;X;X;X;X;X;X;X;X;X;X;X;X;X;X;X;X;X;X;X;X;X;X;X6X7X9X9Xh.Q  . .",
" .I R.OXXXXXXXXXXXXXXXXXXXXXXXXXXXXXXXXXXXXXXXXXXXXXXXXXXXXXXXXXXXXXXXXXXXXXXXXXXXXXXXXXXXXXXXXXXXXXXXXXXXXXXXXXXXXXXXXXXXXXXXXXXXXXXXXXXXXXXXXXXXXXXXXXXXXXXXXXXXXXXXXXXXXXXXXXXXXXXXXXXXXXXXXXXXXXXXOX5X6XXXI.<.X.Q Q  . .",
" .Q Y.XX.X.X.X.X.X.X.X.X.X.X.X.X.X.X.X.X.X.X.X.X.X.X.X.X.X.X.X.X.X.X.X.X.X.X.X.X.XXX;X;X;XXX.X.X.X.X.X.X.X.X.X.X.X.X.X.X.X.X.X.X.X.X.X.X.X.X.X.X.X.X.X.X.X.X.X.X.X.X.X.X.X.X.X.X.X.X.X.X.X.X.X.XXXOXXX_.i.&.Q Q Q Q Q  . . .",
" .Q P..X{.{.{.{.{.{.{.{.{.{.{.{.{.{.{.{.{.{.{.{.{.{.{.{.{.{.{.{.{.{.{.{.{..XoX:X>XT.| 7.|  X-X.X{.{.{.{.{.{.{.{.{.{.{.{.{.{.{.{.{.{.{.{.{.{.{.{.{.{.{.{.{.{.{.{.{.{.{.{.{.{.{.{.{.{..X.X.XXXXX[.A.,.X.Q Q Q Q Q  . . . . . .",
" .Q G..X[.[.[.[.[.[.[.[.[.[.[.[.[.[.[.[.[.[.[.[.[.[.[.[.[.[.[.[.[.[.[.[.[.}.` 9             B oX[.[.[.[.[.[.[.[.[.[.[.[.[.[.[.[.[.[.[.[.[.[.[.[.[.[.[.[.[.[.[.[.[.[.[.[.[.[.[.[.{..X.X[.I.y.O.Q Q Q Q Q  . . . . . . . . . .",
" .Q <.{.[._._._._._._._._._._._._._._._._._._._._._._._._._._._._._._._.|.s         0 8 7     ' &X_._._._._._._._._._._._._._._._._._._._._._._._._._._._._._._._._._._.[.[.{.[.Y.i.*.Q Q Q Q Q Q  . . . . . . . . . . . . .",
" .Q Q X.F.[._._._._._._._._._._._._._._._._._._._._._._._._._._._._._._.}.)     m._.=X&X=X1.  % '._._._._._._.'._._._._._._.'._._._._._._._._._._._._._._._._._._._.[._.Y.i.=. .Q Q Q Q Q  . . . . . . . . . . . . . . . . .",
" . .Q Q Q =.Y._.R.R.R.R.R.R.R.R.R.R.R.R.R.R.R.R.R.R.R.R.R.R.R.R.R.R.R.R.).L.  X '.!.R.R._.K.  % '.'.8.B.!._.~.5.M.`.R.R.].I.6.M.].R.R.R.R.R.R.R.R.R.R.R.R._._.(.I.i.=.X.Q Q Q Q Q Q  . . . . . . . . . . . . . . . . . . . .",
" . . . .Q Q Q ,.R.R.R.R.R.R.R.R.R.R.R.R.R.R.R.R.R.R.R.R.R.R.R.R.R.R.R.R.R.C.  & '.R.R.R.%Xn   a %X2.  * ].E.+     { !.].Y       p `.R.R.R.R.R.R.R.R./.R.G.u.=.X.Q Q Q Q Q  . . . . . . . . . . . . . . . . . . . . . . . . .",
" . . . . . .Q Q Q <.I.R.Y.Y.Y.Y.Y.Y.Y.Y.Y.Y.Y.Y.Y.Y.Y.Y.Y.Y.Y.Y.Y.Y.Y.Y.R.3.  w !.Y.!.E.b     V.^.U   e $XO   $   q *XU     ;     ] E.Y.Y.R.R.Y.Z.y.*.Q Q Q Q Q Q Q  . . . . . . . . . . . . . . . . . . . . . . . . . . . .",
" . . . . . . . .Q Q Q ,.F.Y.I.P.P.P.P.P.P.P.P.P.P.P.P.P.P.P.P.P.P.P.P.P.R.:.  y #XJ.^       v.E.W.h   [ m   / +X( } 4.    N.#XR   * ^.F.i.,.O.Q Q Q Q Q Q  . . . . . . . . . . . . . . . . . . . . . . . . . . . . . . . . .",
" . . . . . . . . .Q Q Q Q *.p.G.P.F.F.F.F.F.F.F.F.F.F.F.F.F.F.F.F.F.F.F.Y.T   2 o       t U.H.F.E.<   _   r Q.F.Y.Q.:   ] E.F.d.    ! Q Q Q Q Q Q  . . . . . . . . . . . . . . . . . . . . . . . . . . . . . . . . . . . . .",
" . . . . . . . . . . . .Q Q Q X.,.Z.F.F.A.A.A.A.A.A.A.A.A.A.A.A.A.A.A.A.H.z         i b.L.A.A.A.L.- . ,   U.G.F.G.f.    q.O. ...    X. . . . . . . . . . . . . . . . . . . . . . . . . . . . . . . . . . . . . . . . . . . .",
" . . . . . . . . . . . . . .Q Q Q Q O.,.i.Z.A.A.Z.Z.Z.Z.Z.Z.Z.Z.Z.Z.Z.Z.H.>   u n.L.D.A.Z.Z.Z.A.L.=     N g.=.O.X.v   1 o.Q X.D   @ o. . . . . . . . . . . . . . . . . . . . . . . . . . . . . . . . . . . . . . . . . . . .",
" . . . . . . . . . . . . . . . .Q Q Q Q Q X.*.<.u.p.Z.Z.Z.Z.Z.p.p.p.p.p.D.=   9.S.Z.Z.Z.p.u.y.,.;.O     W  .Q Q X.g   6 o. .+.-   M o. . . . . . . . . . . . . . . . . . . . . . . . . . . . . . . . . . . . . . . . . . . .",
" . . . . . . . . . . . . . . . . . . . .Q Q Q Q Q Q X.%.=.,.<.y.y.y.y.y.s.o   ~ =.O.X. .Q Q Q Q o.O   @ +. . . .o.f   3 @.+.x     X. . . . . . . . . . . . . . . . . . . . . . . . . . . . . . . . . . . . . . . . . . . . .",
" . . . . . . . . . . . . . . . . . . . . . . .Q Q Q Q Q Q Q Q Q Q Q Q Q  .    E  .Q Q Q Q Q Q  .o.+   3 o. . . .X.D     G 4     J X. . . . . . . . . . . . . . . . . . . . . . . . . . . . . . . . . . . . . . . . . . . . .",
" . . . . . . . . . . . . . . . . . . . . . . . . . . . . . . . .Q Q Q  ...    !  . . . . . . . .o.d   V o. . . . .o.+         S o. . . . . . . . . . . . . . . . . . . . . . . . . . . . . . . . . . . . . . . . . . . . . .",
" . . . . . . . . . . . . . . . . . . . . . . . . . . . . . . . . . . . .X.L H X. . . . . . . . . . .A X. . . . . . .o.4 # 5 Q o. . . . . . . . . . . . . . . . . . . . . . . . . . . . . . . . . . . . . . . . . . . . . . .",
" . . . . . . . . . . . . . . . . . . . . . . . . . . . . . . . . . . . . .X.X. . . . . . . . . . . .X. . . . . . . . .o.o.o. . . . . . . . . . . . . . . . . . . . . . . . . . . . . . . . . . . . . . . . . . . . . . . . .",
" . . . . . . . . . . . . . . . . . . . . . . . . . . . . . . . . . . . . . . . . . . . . . . . . . . . . . . . . . . . . . . . . . . . . . . . . . . . . . . . . . . . . . . . . . . . . . . . . . . . . . . . . . . . . . .",
" . . . . . . . . . . . . . . . . . . . . . . . . . . . . . . . . . . . . . . . . . . . . . . . . . . . . . . . . . . . . . . . . . . . . . . . . . . . . . . . . . . . . . . . . . . . . . . . . . . . . . . . . . . . . . .",
" .Q Q Q Q Q Q Q Q Q Q Q Q Q Q Q Q Q Q Q Q Q Q Q Q Q Q Q Q Q Q Q Q Q Q Q Q Q Q Q Q Q Q Q Q Q Q Q Q Q Q Q Q Q Q Q Q Q Q Q Q Q Q Q Q Q Q Q Q Q Q Q Q Q Q Q Q Q Q Q Q Q Q Q Q Q Q Q Q Q Q Q Q Q Q Q Q Q Q Q Q Q Q Q Q Q Q Q  . .",
" .Q Q Q Q Q Q Q Q Q Q Q Q Q Q Q Q Q Q Q Q Q Q Q Q Q Q Q Q Q Q Q Q Q Q Q Q Q Q Q Q Q Q Q Q Q Q Q Q Q Q Q Q Q Q Q Q Q Q Q Q Q Q Q Q Q Q Q Q Q Q Q Q Q Q Q Q Q Q Q Q Q Q Q Q Q Q Q Q Q Q Q Q Q Q Q Q Q Q Q Q Q Q Q Q Q Q Q  . .",
" .I P P P P P P P P P P P P P P P P P P P P P P P P P P P P P P P P P P P P P P P P P P P P P P P P P P P P P P P P P P P P P P P P P P P P P P P P P P P P P P P P P P P P P P P P P P P P P P P P P P P P P P P P P I  . .",
" .P P P P P P P P P P P P P P P P P P P P P P P P P P P P P P P P P P P P P P P P P P P P P P P P P P P P P P P P P P P P P P P P P P P P P P P P P P P P P P P P P P P P P P P P P P P P P P P P P P P P P P P P P P P  . .",
" .K H H H H H H H H H H H H H H H H H H H H H H H H H H H H H H H H H H H H H H H H H H H H H H H H H H H H H H H H H H H H H H H H H H H H H H H H H H H H H H H H H H H H H H H H H H H H H H H H H H H H H H H H H K  . .",
" .K G G G G G G G G G G G G G G G G G G G G G G G G G G G G G G G G G G G G G G G G G G G G G G G G G G G G G G G G G G G G G G G G G G G G G G G G G G G G G G G G G G G G G G G G G G G G G G G G G G G G G G G G G H  . .",
" .H F F F F F F F F F F F F F F F F F F F F F F F F F F F F F F F F F F F F F F F F F F F F F F F F F F F F F F F F F F F F F F F F F F F F F F F F F F F F F F F F F F F F F F F F F F F F F F F F F F F F F F F F F G  .Q ",
"X.H A A A A A A A A A A A A A A A A A A A A A A A A A A A A A A A A A A A A A A A A A A A A A A A A A A A A A A A A A A A A A A A A A A A A A A A A A A A A A A A A A A A A A A A A A A A A A A A A A A A A A A A A A G X. .",
"*.H Z Z Z Z Z Z Z Z Z Z Z Z Z Z Z Z Z Z Z Z Z Z Z Z Z Z Z Z Z Z Z Z Z Z Z Z Z Z Z Z Z Z Z Z Z Z Z Z Z Z Z Z Z Z Z Z Z Z Z Z Z Z Z Z Z Z Z Z Z Z Z Z Z Z Z Z Z Z Z Z Z Z Z Z Z Z Z Z Z Z Z Z Z Z Z Z Z Z Z Z Z Z Z Z Z H  .*.",
"A.H C C C C C C C C C C C C C C C C C C C C C C C C C C C C C C C C C C C C C C C C C C C C C C C C C C C C C C C C C C C C C C C C C C C C C C C C C C C C C C C C C C C C C C C C C C C C C C C C C C C C C C C C C I Q A.",
"jXL l C C C C C C C C C C C C C C C C C C C C C C C C C C C C C C C C C C C C C C C C C C C C C C C C C C C C C C C C C C C C C C C C C C C C C C C C C C C C C C C C C C C C C C C C C C C C C C C C C C C C C C c C X.P jX",
"CXO.K k l l l l l l l l l l l l l l l l l l l l l l l l l l l l l l l l l l l l l l l l l l l l l l l l l l l l l l l l l l l l l l l l l l l l l l l l l l l l l l l l l l l l l l l l l l l l l l l l l l l l l k Q Q X.CX",
"CXNXP P Z j j j j j j j j j j j j j j j j j j j j j j j j j j j j j j j j j j j j j j j j j j j j j j j j j j j j j j j j j j j j j j j j j j j j j j j j j j j j j j j j j j j j j j k k k k k k k l l l l l l C I  .L NXCX",
"CXCXNXQ I Q Q P P I Q Q Q Q Q Q Q Q Q Q Q Q Q Q Q Q Q Q Q Q Q Q Q Q Q Q Q Q Q Q Q Q Q Q Q Q Q Q Q Q Q Q Q Q Q Q Q Q Q Q Q Q Q Q Q Q Q Q Q Q Q Q Q Q Q Q Q Q Q Q Q Q Q Q Q Q  . . . . .X.X.X.X.X.X.X.X.X.X.X.X.X. .I Q NXCXCX",
"CXCXCXCX6X,.X. . . . . . . . . . . . . . . . . . . . . . . . . . . . . . . . . . . . . . . . . . . . . . . . . . . . . . . . . . . . . . . . . . . . . . . . . . . . . . . . . . . . . . . . . . . . . . . .Q X.,.6XCXCXCXCX"
};
