/* XPM */
static char *standard[] = {
/* columns rows colors chars-per-pixel */
"110 50 256 2",
"   c #000000",
".  c #0A0301",
"X  c #0E0805",
"o  c #02020C",
"O  c #0A050A",
"+  c #110000",
"@  c #120800",
"#  c #010112",
"$  c #0D0613",
"%  c #0C0812",
"&  c #00021C",
"*  c #0E091C",
"=  c #130A15",
"-  c #130B1B",
";  c #210F0F",
":  c #000224",
">  c #0E0A25",
",  c #00042D",
"<  c #140C24",
"1  c #140D2D",
"2  c #000334",
"3  c #0B0933",
"4  c #00043C",
"5  c #0A0A3A",
"6  c #130E33",
"7  c #150E38",
"8  c #171033",
"9  c #13113B",
"0  c #211630",
"q  c #010542",
"w  c #040941",
"e  c #000748",
"r  c #05084D",
"t  c #0C1046",
"y  c #0F1048",
"u  c #131340",
"i  c #1C154B",
"p  c #010555",
"a  c #040A54",
"s  c #02075F",
"d  c #03095C",
"f  c #0B0C5D",
"g  c #131050",
"h  c #1C1453",
"j  c #1A1459",
"k  c #231C45",
"l  c #241B5D",
"z  c #2C214A",
"x  c #2E215B",
"c  c #040A64",
"v  c #03096C",
"b  c #100E66",
"n  c #04146C",
"m  c #09146C",
"M  c #141464",
"N  c #1A1462",
"B  c #1F1866",
"V  c #1D1769",
"C  c #050E73",
"Z  c #0B0E73",
"A  c #060C7B",
"S  c #0D1577",
"D  c #151272",
"F  c #1B1777",
"G  c #231B64",
"H  c #211B74",
"J  c #231C7E",
"K  c #29216E",
"L  c #3C2E68",
"P  c #372C75",
"I  c #392F7D",
"U  c #060D84",
"Y  c #090D85",
"T  c #061280",
"R  c #0E1285",
"E  c #0D1883",
"W  c #0E1089",
"Q  c #1E1A83",
"!  c #10108A",
"~  c #1D1D8F",
"^  c #0C1191",
"/  c #101398",
"(  c #241F84",
")  c #211B8E",
"_  c #211C94",
"`  c #211C99",
"'  c #13229A",
"]  c #282485",
"[  c #26219B",
"{  c #302A90",
"}  c #3E3699",
"|  c #0C13A4",
" . c #0C13AB",
".. c #1013AE",
"X. c #111AAA",
"o. c #1A1BA8",
"O. c #0D13B3",
"+. c #0F16BC",
"@. c #1016B3",
"#. c #1D1CB6",
"$. c #1117BC",
"%. c #1A1BB9",
"&. c #211FA4",
"*. c #221EAD",
"=. c #1520A5",
"-. c #1520B1",
";. c #1B25B2",
":. c #1F22BC",
">. c #2625AB",
",. c #2822AF",
"<. c #342EAC",
"1. c #3F3FAF",
"2. c #2B26B0",
"3. c #2422BE",
"4. c #2925B9",
"5. c #212FB9",
"6. c #2C2DBF",
"7. c #2237B5",
"8. c #433898",
"9. c #3F40B3",
"0. c #54498F",
"q. c #4741AB",
"w. c #5E56B4",
"e. c #1016C5",
"r. c #1D1EC6",
"t. c #1117CC",
"y. c #1219CE",
"u. c #1319D4",
"i. c #1C1ED4",
"p. c #131ADA",
"a. c #1C1FDE",
"s. c #211EC1",
"d. c #231FCB",
"f. c #1E28CE",
"g. c #1F24D9",
"h. c #2424C1",
"j. c #2D29C3",
"k. c #2321CB",
"l. c #2F2FC8",
"z. c #322EC5",
"x. c #322DCE",
"c. c #3430C3",
"v. c #2522D3",
"b. c #2A27D2",
"n. c #2E2BD2",
"m. c #2523DC",
"M. c #2824DC",
"N. c #2D3ADD",
"B. c #3734D9",
"V. c #3E3ADF",
"C. c #0F0FEB",
"Z. c #161DE6",
"A. c #1A1EE0",
"S. c #1313EC",
"D. c #181CEB",
"F. c #0000FE",
"G. c #0B0BFA",
"H. c #0F10FD",
"J. c #1212F7",
"K. c #1C1CF7",
"L. c #1213FC",
"P. c #171FFC",
"I. c #1B1CF9",
"U. c #1A25E6",
"Y. c #1B21EA",
"T. c #1D21F2",
"R. c #1D22FE",
"E. c #2525E4",
"W. c #2B2BE3",
"Q. c #2525EA",
"!. c #2826EA",
"~. c #202CEF",
"^. c #2A2AEB",
"/. c #312FE8",
"(. c #3633E4",
"). c #3635EC",
"_. c #3D3BEC",
"`. c #2424F6",
"'. c #242FF7",
"]. c #2C2AF5",
"[. c #2526FB",
"{. c #2827FE",
"}. c #2629FE",
"|. c #2B2BFC",
" X c #2F33F3",
".X c #2E32FF",
"XX c #3230F7",
"oX c #3C3AF6",
"OX c #3233FC",
"+X c #3837FF",
"@X c #353AFF",
"#X c #3C3DFD",
"$X c #403FFD",
"%X c #2F40D4",
"&X c #3E42FF",
"*X c #4A44C2",
"=X c #4943C8",
"-X c #574DCD",
";X c #4245D2",
":X c #7373C5",
">X c #6767D4",
",X c #5551E4",
"<X c #5753EE",
"1X c #4445FC",
"2X c #4947FF",
"3X c #4549FF",
"4X c #4B4CFC",
"5X c #504FFF",
"6X c #4E50FF",
"7X c #5353FC",
"8X c #5856FF",
"9X c #5A5BFE",
"0X c #5E60FD",
"qX c #6161EA",
"wX c #7373E0",
"eX c #6263FE",
"rX c #6867FF",
"tX c #6D6DFD",
"yX c #6F70FF",
"uX c #7575FE",
"iX c #7B7BFF",
"pX c #BDBDAE",
"aX c #C0C0BA",
"sX c #C8C8BD",
"dX c #8E8EC7",
"fX c #8181D0",
"gX c #A8A8C7",
"hX c #8282FD",
"jX c #8D8DFE",
"kX c #9494FE",
"lX c #9A9AFF",
"zX c #BABAED",
"xX c #ACACF3",
"cX c #A6A6FF",
"vX c #ABABFF",
"bX c #B2B2F6",
"nX c #B4B4FF",
"mX c #BCBCFC",
"MX c #C0C0C2",
"NX c #C8C8C5",
"BX c #C8C8CD",
"VX c #D8D8CA",
"CX c #CECED2",
"ZX c #D8D8DA",
"AX c #E1E1D2",
"SX c #EDEDDF",
"DX c #D9D9E4",
"FX c #C2C2FF",
"GX c #CBCBFE",
"HX c #D2D2FF",
"JX c #DCDCFF",
"KX c #E6E6E5",
"LX c #EAEAEB",
"PX c #FFFFF3",
"IX c #F0F0FF",
"UX c #FEFEFE",
/* pixels */
"UXUXJXlXhXiXiXiXiXiXiXiXiXiXiXiXiXiXiXiXiXiXiXiXiXiXiXiXiXiXiXiXiXiXiXiXiXiXiXiXiXiXiXiXiXiXiXiXiXiXiXiXiXiXiXiXiXiXiXiXiXiXiXiXiXiXiXiXiXiXiXiXiXiXiXiXiXiXiXiXiXiXiXiXiXiXiXiXiXiXiXiXiXiXiXiXiXiXiXiXiXiXiXhXvXIXUXUXUXUX",
"UXlXrXuXuXuXuXuXuXuXuXuXuXuXuXuXuXuXuXuXuXuXuXuXuXuXuXuXuXuXuXuXuXuXuXuXuXuXuXuXuXuXuXuXuXuXuXuXuXuXuXuXuXuXuXuXuXuXuXuXuXuXuXuXuXuXuXuXuXuXuXuXuXuXuXuXuXuXuXuXuXuXuXuXuXuXuXuXuXuXuXuXuXuXuXuXuXuXuXuXuXuXuXuXtXrXnXUXUXUX",
"jXrXuXuXuXiXiXiXiXiXiXiXiXiXiXiXiXiXiXiXiXiXiXiXiXiXiXiXiXiXiXiXiXiXiXiXiXiXiXiXiXiXiXiXiXiXiXiXiXiXiXiXiXiXiXiXiXiXiXiXiXiXiXiXiXiXiXiXiXiXiXiXiXiXiXiXiXiXiXiXiXiXiXiXiXiXiXiXiXiXiXiXiXiXiXiXiXiXiXiXiXiXuXuXuXuXeXcXUXUX",
"tXuXuXiXkXcXcXcXcXcXcXcXcXcXcXcXcXcXcXcXcXcXcXcXcXcXcXcXcXcXcXcXcXcXcXcXcXcXcXcXcXcXcXcXcXcXcXcXcXcXcXcXcXcXcXcXcXcXcXcXcXcXcXcXcXcXcXcXcXcXcXcXcXcXcXcXcXcXcXcXcXcXcXcXcXcXcXcXcXcXcXcXcXcXcXcXcXcXcXcXcXcXkXhXuXtXtXeXJXUX",
"tXtXhXcXmXHXHXJXJXJXJXJXJXJXJXJXJXJXJXJXJXJXJXJXJXJXJXJXJXJXJXJXJXJXJXJXJXJXJXJXJXJXJXJXJXJXJXJXJXJXJXJXJXJXJXJXJXJXJXJXJXJXJXJXJXJXJXJXJXJXJXJXJXJXJXJXJXJXJXJXJXJXJXJXJXJXJXJXJXJXJXJXJXJXJXJXJXJXJXJXJXHXFXcXhXuXtXrXhXUX",
"rXuXkXmXHXJXJXJXJXJXJXJXJXJXJXJXJXJXJXJXJXJXJXJXJXJXJXJXJXJXJXJXJXJXJXJXJXJXJXJXJXJXJXJXJXJXJXJXJXJXJXJXJXJXJXJXJXJXJXJXJXJXJXJXJXJXJXJXJXJXJXJXJXJXJXJXJXJXJXJXJXJXJXJXJXJXJXJXJXJXJXJXJXJXJXJXJXJXJXJXJXJXJXFXlXuXrXrXeXIX",
"rXuXlXFXHXHXHXHXHXHXHXHXHXHXHXHXHXHXHXHXHXHXHXHXHXHXHXHXHXHXHXHXHXHXHXHXHXHXHXHXHXHXHXHXHXHXHXHXHXHXHXHXHXHXHXHXHXHXHXHXHXHXHXHXHXHXHXHXHXHXHXHXHXHXHXHXHXHXHXHXHXHXHXHXHXHXHXHXHXHXHXHXHXHXHXHXHXHXHXHXHXHXHXFXcXiXrXeX9XJX",
"eXuXlXmXFXFXFXFXFXFXFXFXFXFXFXFXFXFXFXFXFXFXFXFXFXFXFXFXFXFXFXFXFXFXFXFXFXFXFXFXFXFXFXFXFXFXFXFXFXFXFXFXFXFXFXFXFXFXFXFXFXFXFXFXFXFXFXFXFXFXFXFXFXFXFXFXFXFXFXFXFXFXFXFXFXFXFXFXFXFXFXFXFXFXFXFXFXFXFXFXFXFXFXmXcXiXrXeX8XGX",
"eXuXkXvXnXnXnXnXnXnXnXnXnXnXnXnXnXnXnXnXnXnXnXnXnXnXnXnXnXnXnXnXnXnXnXnXnXnXnXnXnXnXnXnXnXnXnXnXnXnXnXnXnXnXnXnXnXnXnXnXnXnXnXnXnXnXnXnXnXnXnXnXnXnXnXnXnXnXnXnXnXnXnXnXnXnXnXnXnXnXnXnXnXnXnXnXnXnXnXnXnXnXnXvXlXuXeXeX7XGX",
"9XtXjXcXcXcXcXcXcXcXcXcXcXcXcXcXcXcXcXcXcXcXcXcXcXcXcXcXcXcXcXcXcXcXcXcXcXcXcXcXcXcXcXcXcXcXcXcXcXcXcXcXcXcXcXcXcXcXcXcXcXcXcXcXcXcXcXcXcXcXcXcXcXcXcXcXcXcXcXcXcXcXcXcXcXcXcXcXcXcXcXcXcXcXcXcXcXcXcXcXcXcXcXcXjXtX9X9X7XGX",
"9XrXhXkXlXlXlXlXlXlXlXlXlXlXlXlXlXlXlXlXlXlXlXlXlXlXlXlXlXlXlXlXlXlXlXlXlXlXlXlXlXlXlXlXlXlXlXlXlXlXlXlXlXlXlXlXlXlXlXlXlXlXlXlXlXlXlXlXlXlXlXlXlXlXlXlXlXlXlXlXlXlXlXlXlXlXlXlXlXlXlXlXlXlXlXlXlXlXlXlXlXlXlXkXhXrX9X9X4XGX",
"9XeXuXjXjXjXjXjXjXjXjXjXjXjXjXjXjXjXjXjXjXjXjXjXjXjXjXjXjXjXjXjXjXjXjXjXjXjXjXjXjXjXjXjXjXjXjXjXjXjXjXjXjXjXjXjXjXjXjXjXjXjXjXjXjXjXjXjXjXjXjXjXjXjXjXjXjXjXjXjXjXjXjXjXjXjXjXjXjXjXjXjXjXjXjXjXjXjXjXjXjXjXjXjXiXeX8X8X2XGX",
"8X9XtXiXhXhXhXhXhXhXhXhXhXhXhXhXhXhXhXhXhXhXhXhXhXhXhXhXhXhXhXhXhXhXhXhXhXhXhXhXhXhXhXhXhXhXhXhXhXhXhXhXhXhXhXhXhXhXhXhXhXhXhXhXhXhXhXhXhXhXhXhXhXhXhXhXhXhXhXhXhXhXhXhXhXhXhXhXhXhXhXhXhXhXhXhXhXhXhXhXhXhXhXiXuX9X7X7X2XGX",
"7X8XrXuXuXuXuXuXuXuXuXuXuXuXuXuXuXuXuXuXuXuXuXuXuXuXuXuXuXuXuXuXuXuXuXuXuXuXuXuXuXuXuXuXuXuXuXuXuXuXuXuXuXuXuXuXuXuXuXuXuXuXuXuXuXuXuXuXuXuXuXuXuXuXuXuXuXuXuXuXuXuXuXuXuXuXuXuXuXuXuXuXuXuXuXuXuXuXuXuXuXuXuXuXtX8X7X4X1XGX",
"4X7XeXtXtXtXtXtXtXtXtXtXtXtXtXtXtXtXtXtXtXtXtXtXtXtXtXtXtXtXtXtXtXtXtXtXtXtXtXtXtXtXtXtXtXtXtXtXtXtXtXtXtXtXtXtXtXtXtXtXtXtXtXtXtXtXtXyXuXuXtXtXtXtXtXtXtXtXtXtXtXtXtXtXtXtXtXtXtXtXtXtXtXtXtXtXtXtXtXtXtXtXyXuXrX7X4X4X1XFX",
"4X7X9XeXeXeXeXeXeXeXeXeXeXeXeXeXeXeXrXrXeXeXeXeXeXeXeXeXeXeXeXeXeXeXeXeXeXeXeXeXeXeXeXeXeXeXeXeXeXeXeXeXeXeXeXeXeXeXeXeXeXeXeXeXeXeXeXw.  7.rXeXeXeXeXeXeXeXeXeXeXeXeXeXeXeXeXeXeXeXeXeXeXeXeXeXeXeXeXeXeXrX0.  %X7X4X4X#XFX",
"2X4X7X8X9X9X9X9X9X9X9X9X9X9X9XeXrXq.9.1.;XeX9X9X9X9X9X9XeX9X9X9X9X9X9X9X9X9X9X9X9X9X9X9X9X9X9X9X9X9X9X9X9X9X9X9X9X9X9X9X9X9X9X9X9X9XeX;   m eX9X9X9X9X9X9X9X9X9X9X9X9X9X9X9X9X9X9X9X9X9X9X9X9X9X9X9X9X9X9XeX+   ' 7X1X1X#XFX",
"1X1X4X7X7X7X7X7X7X7X7X7X7X8X,Xk           & 3X7X7X7X8XL   N.8X7X7X7X7X7X7X7X7X7X7X7X7X7X7X7X7X7X7X7X7X7X7X7X7X7X7X7X7X7X7X7X7X7X7X7X<X.   5.8X7X7X7X7X7X7X7X7X7X7X7X7X7X7X7X7X7X7X7X7X7X7X7X7X7X7X7X7X7X7X-X    N.4X1X1X+XFX",
"1X1X1X4X4X4X4X4X4X4X4X4X6X}       t u u     n 7X4X4X7X.   ;.5X4X4X4X4X4X4X4X4X4X4X4X4X4X4X4X4X4X4X4X4X4X4X4X4X4X4X4X4X4X4X4X4X4X4X4X*X    &X4X4X4X4X4X4X4X4X4X4X4X4X4X4X4X4X4X4X4X4X4X4X4X4X4X4X4X4X4X4X4X8.  : 3X1X1X1XOXFX",
"1X1X1X1X1X1X1X1X1X1X1X3X}     S 1X4X4X4XI   =.2X1X1X=X    @X2X1X1X1X1X1X1X1X3X2X2X1X1X1X1X1X1X1X1X1X1X1X1X1X1X1X1X1X1X1X1X1X1X1X1X3XP   a 4X1X1X1X1X1X1X2X2X2X1X1X1X1X1X1X2X1X1X1X1X2X2X1X1X1X1X1X1X1X1X2Xz   E 2X#X#X#XOXFX",
"#X#X#X#X#X#X#X#X#X#X#X1X.   -.2X#X#X#X#X_.6.1X1X1X3Xx   4 3X1X1X1X#X#X#X#X1X{ 5 M &X$X#X#X#X1X1X#X#X#X1X1X#X#X#X#X#X#X#X#X#X1X1X1X1X0   X.1X#X#X#X#X#X1X<.9 y @X1X#X#X#X$X6.#X#X#X1Xc.l.&X#X#X#X#X1X1X1X1X=   f.1X#XoX#X|.mX",
"#X#XoX+X+X+X+X+X+X+X+XV.    ~.#X+X+X+X+X+X+X+XK   o       o o   , @X+X+XB..       m  X+X+X_.. R #X+X#X( ~ @X+X+X+X+X+X+X+X#X] o   -.@   '.#X+X+X+X+XoX=       w W.+X+X#X-   T #XoX-     , @X+X+X#XH     ;..   .X#X+X+XoX|.mX",
"+X+XOXOXOXOXOXOXOXOXOX+X.   o :.OX+X+XOXOXOXOXG               & S OXOXx.    q >.    T +XOXl   : OXx.      # .XOXOXOXOXOX(..           # .XOXOXOXOXOX.   & h..   q +XOX).    X.#X.   :     U.+Xz.            2 @XOXOXOXOX{.mX",
"OXOXOX|.|.|.|.|.|.|.|.|.2.      o w o.OXOX|.|.OX^.[   o E.W.W.OXOX|.XX.   d OX+X-   X.OXOXG   2 OX           .OX|.|.|./..   & g.W.%   4 OX|.|.|.OX=   : .XOXi   C OX|.n.    }.<   C OXj.b .Xx.    2 Q.n..   c OXXXXXXXOX[.mX",
"OXXX|.|.|.|.|.|.|.|.|.|.|.].F #         R |.|.|.|.B   2 |.|.|.|.|.|.1   : |.|.].    Y.|.|.i   A 1   2 .X=   v |.|.|.|.X   q |.|.|.<   A |.|.|.|.B     }.|.|..   +.|.|.4.  & &.  d |.|.|.|.]..   c |.|..XX   | |.|.|.XXXX[.mX",
"OX|.|.[.[.[.[.[.[.[.[.[.[.{.|.|.E.M       p |.|.|.<   A |.[.[.[.{.4.    Y.|.|.H     R.|.|.8   f   & }.|.H   2 }.|.}.J     }.|.{.b.    | |.[.}.^.    @.|.}.,.    p.|.}.[   e . o }.|.[.[.|.h   & }.|.}.,.    y.|.].].|.].`.mX",
"|.|.|.[.[.[.[.[.[.[.[.[.[.[.[.[.{.{.|.j     R.{.{..   t.{.[.[.[.}.1   s {.}.h.      [.[.}.-       R.{.}._   & [.[.}..    .{.}.{..     +.{.[.{.V   : }.{.!.      K.{.}.)       e.{.[.[.[.|.    u.{.{.!.      Z.{.[.].].].I.mX",
"|.|.[.[.[.[.[.[.[.[.[.[.[.[.[.[.[.[.}.Q     R.}.E.    P.[.[.}.{.`..   e.{.M.        R.[.[.O      .{.[.[.*.    R.{.M.    R.{.{.*       y.{.{.}.*   U {.{.O   #   P.[.}.Q     : }.[.[.[.[.3.  # }.{.{..       P.{.{.`.].|.I.bX",
"|.[.[.[.[.[.[.`.[.[.[.`.[.{.}.}.{.Q.g      .{.[.v.    P.{.m.. v {.    $.*.    u.O   R.{.m.    4 }.[.[.[.E.    r f r.    Z.d..   O.6   U E.Z }.O   Y v..   O.1   p.{.[.Q     U {.[.[.[.[.*.    R.#.    p.X    .k.W {.`.[.I.bX",
"[.[.[.[.[.[.[.[.[.[.}.$   / %.o.5       $.}.[.[.Q.    : 5     p.{.O         y.|.O   v [.3.    u.{.[.[.[.}.<     # }..         ^ }.N       2 }.7         | }.1   q `.}.`     e.{.[.[.[.[.`.          $.}.7       c {.`.[.L.bX",
"[.[.[.[.[.[.[.[.[.[.[..             Y }.{.[.[.[.}.N       , T.{.[.m.O   c R.{.}.j     D.[.O , }.[.[.[.[.[.}.D ! }.{.k.o   a a.}.[.}.$   ^ }.}.[.>   q A.{.}._     +.}.m.    R.[.[.[.[.[.}.*.    f T.{.[.Q.O   ..{.`.`.`.L.bX",
"[.[.[.[.[.[.[.[.[.[.}.E.3 5 3 R #.}.{.[.[.[.[.[.[.}.k.#.i.|.{.[.[.{.{.|.{.{.[.[.{.#.Y.{.[.}.{.[.[.[.[.[.[.[.}.{.[.[.}.{.|.{.{.[.[.[.}.|.{.[.[.[.}.|.{.{.[.[.}.s.i.{.[.{.s.a.{.[.[.[.[.[.[.}.}.|.{.{.[.[.{.{.|.{.`.`.K.K.J.bX",
"`.`.`.[.[.[.[.[.[.[.[.}.|.|.|.|.}.[.[.[.[.[.[.[.[.[.{.}.}.[.[.[.[.[.[.[.[.[.[.[.[.}.{.[.[.[.[.[.[.[.[.[.[.[.[.[.[.[.[.[.[.[.[.[.[.[.[.[.[.[.[.[.[.[.[.[.[.[.[.{.{.[.[.[.{.{.[.[.[.[.[.[.[.[.[.[.[.[.[.[.[.[.[.[.`.K.K.K.G.bX",
"K.K.[.|.|.|.|.|.|.|.|.|.|.|.|.|.|.|.|.|.|.|.|.|.|.|.|.|.|.|.|.|.|.|.|.|.|.|.|.|.|.|.|.|.|.|.|.|.|.|.|.|.|.|.|.|.|.|.|.|.|.|.|.|.|.|.|.|.|.|.|.|.|.|.|.|.|.|.|.|.|.|.|.|.|.|.|.|.|.|.|.|.|.|.|.|.|.|.|.|.|.|.|.[.[.K.K.I.G.bX",
"I.K.[.|.|.|.|.|.|.|.|.|.|.|.|.|.|.|.|.|.|.|.|.|.|.|.|.|.|.|.|.|.|.|.|.|.|.|.|.|.|.|.|.|.|.|.|.|.|.|.|.|.|.|.|.|.|.|.|.|.|.|.|.|.|.|.|.|.|.|.|.|.|.|.|.|.|.|.|.|.|.|.|.|.|.|.|.|.|.|.|.|.|.|.|.|.|.|.|.|.|.|.|.|.[.I.I.I.G.bX",
"I.K.[.|.OXOXOXOXOXOXOXOXOXOXOXOXOXOXOXOXOXOXOXOXOXOXOXOXOXOXOXOXOXOXOXOXOXOXOXOXOXOXOXOXOXOXOXOXOXOXOXOXOXOXOXOXOXOXOXOXOXOXOXOXOXOXOXOXOXOXOXOXOXOXOXOXOXOXOXOXOXOXOXOXOXOXOXOXOXOXOXOXOXOXOXOXOXOXOXOXOXOXOX|.[.I.I.I.G.xX",
"I.K.|.OXOXOXOXOXOXOXOXOXOXOXOXOXOXOXOXOXOXOXOXOXOXOXOXOXOXOXOXOXOXOXOXOXOXOXOXOXOXOXOXOXOXOXOXOXOXOXOXOXOXOXOXOXOXOXOXOXOXOXOXOXOXOXOXOXOXOXOXOXOXOXOXOXOXOXOXOXOXOXOXOXOXOXOXOXOXOXOXOXOXOXOXOXOXOXOXOXOXOXOXOX|.I.L.J.G.xX",
"I.I.|.+X#X+X#X#X#X#X#X#X#X#X#X#X#X#X#X#X#X#X#X#X#X#X#X#X#X#X#X#X#X#X#X#X#X#X#X#X#X#X#X#X#X#X#X#X#X#X#X#X#X#X#X#X#X#X#X#X#X#X#X#X#X#X#X#X#X#X#X#X#X#X#X#X#X#X#X#X#X#X#X#X#X#X#X#X#X#X#X#X#X#X#X#X#X#X#X#X#X#X+X+X|.I.J.J.F.xX",
"L.I.|.#X&X#X#X#X#X#X#X#X#X#X#X#X#X#X#X#X#X#X#X#X#X#X#X#X#X#X#X#X#X#X#X#X#X#X#X#X#X#X#X#X#X#X#X#X#X#X#X#X#X#X#X#X#X#X#X#X#X#X#X#X#X#X#X#X#X#X#X#X#X#X#X#X#X#X#X#X#X#X#X#X#X#X#X#X#X#X#X#X#X#X#X#X#X#X#X#X#X#X#X#X|.I.J.J.F.xX",
"J.I.OX1X1X1X1X1X1X1X1X1X1X1X1X1X1X1X1X1X1X1X1X1X1X1X1X1X1X1X1X1X1X1X1X1X1X1X1X1X1X1X1X1X1X1X1X1X1X1X1X1X1X1X1X1X1X1X1X1X1X1X1X1X1X1X1X1X1X1X1X1X1X1X1X1X1X1X1X1X1X1X1X1X1X1X1X1X1X1X1X1X1X1X1X1X1X1X1X1X1X1X1X1XOXI.J.J.F.xX",
"J.I.OX3X4X4X4X4X4X4X4X4X4X4X4X4X4X4X4X4X4X4X4X4X4X4X4X4X4X4X4X4X4X4X4X4X4X4X4X4X4X4X4X4X4X4X4X4X4X4X4X4X4X4X4X4X4X4X4X4X4X4X4X4X4X4X4X4X4X4X4X4X4X4X4X4X4X4X4X4X4X4X4X4X4X4X4X4X4X4X4X4X4X4X4X4X4X4X4X4X4X4X4X1XOXI.G.G.F.xX",
"G.I.+X4X7X7X7X7X7X7X7X7X7X7X7X7X7X7X7X7X7X7X7X7X7X7X7X7X7X7X7X7X7X7X7X7X7X7X7X7X7X7X7X7X7X7X7X7X7X7X7X7X7X7X7X7X7X7X7X7X7X7X7X7X7X7X7X7X7X7X7X7X7X7X7X7X7X7X7X7X7X7X7X7X7X7X7X7X7X7X7X7X7X7X7X7X7X7X7X7X7X7X7X4X+XI.G.G.F.xX",
"G.I.+X7X9X9X9X9X9X9X9X9X9X9X9X9X9X9X9X9X9X9X9X9X9X9X9X9X9X9X9X9X9X9X9X9X9X9X9X9X9X9X9X9X9X9X9X9X9X9X9X9X9X9X9X9X9X9X9X9X9X9X9X9X9X9X9X9X9X9X9X9X9X9X9X9X9X9X9X9X9X9X9X9X9X9X9X9X9X9X9X9X9X9X9X9X9X9X9X9X9X9X9X7X+XI.G.G.F.zX",
"G.L.|.4X0XeXeXeXeXeXeXeXeXeXeXeXeXeXeXeXeXeXeXeXeXeXeXeXeXeXeXeXeXeXeXeXeXeXeXeXeXeXeXeXeXeXeXeXeXeXeXeXeXeXeXeXeXeXeXeXeXeXeXeXeXeXeXeXeXeXeXeXeXeXeXeXeXeXeXeXeXeXeXeXeXeXeXeXeXeXeXeXeXeXeXeXeXeXeXeXeXeX0X4X|.J.G.G.F.DX",
"G.G.I.+X7X9XeXeXeXeXeXeXeXeXeXeXeXeXeXeXeXeXeXeXeXeXeXeXeXeXeXeXeXeXeXeXeXeXeXeXeXeXeXeXeXeXeXeXeXeXeXeXeXeXeXeXeXeXeXeXeXeXeXeXeXeXeXeXeXeXeXeXeXeXeXeXeXeXeXeXeXeXeXeXeXeXeXeXeXeXeXeXeXeXeXeXeXeXeXeX0X9X7X+XI.G.G.F.).SX",
"F.F.G.I.|.+X#X#X#X#X#X#X#X#X#X#X#X#X#X#X#X#X#X#X#X#X#X#X#X#X#X#X#X#X#X#X#X#X#X#X#X#X#X#X#X#X#X#X#X#X#X#X#X#X#X#X#X#X#X#X#X#X#X#X#X#X#X#X#X#X#X#X#X#X#X#X#X#X#X#X#X#X#X#X#X#X#X#X#X#X#X#X#X#X#X#X#X#X#X#X#X+X|.I.G.F.F.F.gXKX",
"qXF.F.F.G.L.L.L.L.L.L.L.L.L.L.L.L.L.L.L.L.L.L.L.L.L.L.L.L.L.L.L.L.L.L.L.L.L.L.L.L.L.L.L.L.L.L.L.L.L.L.L.L.L.L.L.L.L.L.L.L.L.L.L.L.L.L.L.L.L.L.L.L.L.L.L.L.L.L.L.L.L.L.L.L.L.L.L.L.L.L.L.L.L.L.L.L.L.L.L.L.H.G.F.F.F.F.fXNXKX",
"AXwXF.F.F.F.F.F.F.F.F.F.F.F.F.F.F.F.F.F.F.F.F.F.F.F.F.F.F.F.F.F.F.F.F.F.F.F.F.F.F.F.F.F.F.F.F.F.F.F.F.F.F.F.F.F.F.F.F.F.F.F.F.F.F.F.F.F.F.F.F.F.F.F.F.F.F.F.F.F.F.F.F.F.F.F.F.F.F.F.F.F.F.F.F.F.F.F.F.F.F.F.F.F.F.G.dXsXBXLX",
"ZXVXMX>XW.S.S.C.C.C.C.C.C.C.C.C.C.C.C.C.C.C.C.C.C.C.C.C.C.C.C.C.C.C.C.C.C.C.C.C.C.C.C.C.C.C.C.C.C.C.C.C.C.C.C.C.C.C.C.C.C.C.C.C.C.C.C.C.C.C.C.C.C.C.C.C.C.C.C.C.C.C.C.C.C.C.C.C.C.C.C.C.C.C.C.C.C.C.C.C.C.C.D.B.:XpXaXNXCXLX",
"UXUXUXPXPXPXPXPXPXPXPXPXPXPXPXPXPXPXPXPXPXPXPXPXPXPXPXPXPXPXPXPXPXPXPXPXPXPXPXPXPXPXPXPXPXPXPXPXPXPXPXPXPXPXPXPXPXPXPXPXPXPXPXPXPXPXPXPXPXPXPXPXPXPXPXPXPXPXPXPXPXPXPXPXPXPXPXPXPXPXPXPXPXPXPXPXPXPXPXPXPXPXPXPXPXUXUXUXUXUX"
};
