/* XPM */
static char *stdo[] = {
/* columns rows colors chars-per-pixel */
"110 50 255 2",
"   c #000000",
".  c #0B0100",
"X  c #020C00",
"o  c #0B0A02",
"O  c #00020C",
"+  c #020F0E",
"@  c #140300",
"#  c #150A01",
"$  c #160904",
"%  c #1E0900",
"&  c #051400",
"*  c #0C1300",
"=  c #0C1800",
"-  c #131200",
";  c #1D1501",
":  c #131F00",
">  c #181809",
",  c #000B16",
"<  c #091717",
"1  c #240700",
"2  c #230C00",
"3  c #2A0E00",
"4  c #231400",
"5  c #2A1900",
"6  c #311703",
"7  c #351B01",
"8  c #391B00",
"9  c #231F17",
"0  c #1B2501",
"q  c #15261C",
"w  c #222500",
"e  c #242C00",
"r  c #212F0B",
"t  c #352000",
"y  c #3D2400",
"u  c #342A00",
"i  c #3A2B00",
"p  c #273000",
"a  c #2A3300",
"s  c #333400",
"d  c #3C3300",
"f  c #343A00",
"g  c #3C3B00",
"h  c #2B2718",
"j  c #342E16",
"k  c #0E1F21",
"l  c #442401",
"z  c #4B2900",
"x  c #482A08",
"c  c #443600",
"v  c #4A3300",
"b  c #473800",
"n  c #4D3D00",
"m  c #573705",
"M  c #513C00",
"N  c #5A3800",
"B  c #593B16",
"V  c #603C00",
"C  c #623F0C",
"Z  c #3B4100",
"A  c #374935",
"S  c #414400",
"D  c #4A4300",
"F  c #454900",
"G  c #4D4C00",
"H  c #544300",
"J  c #5A4700",
"K  c #524D00",
"L  c #5F4B00",
"P  c #555300",
"I  c #5C5600",
"U  c #5E5A00",
"Y  c #5E461E",
"T  c #654400",
"R  c #6A4600",
"E  c #634F00",
"W  c #6F4C00",
"Q  c #704D00",
"!  c #675100",
"~  c #6A5400",
"^  c #645D00",
"/  c #6B5D00",
"(  c #745500",
")  c #7A5300",
"_  c #735B00",
"`  c #7A5D00",
"'  c #6B4817",
"]  c #6A461B",
"[  c #7B531B",
"{  c #6C6501",
"}  c #736400",
"|  c #7C6200",
" . c #756900",
".. c #7C6A00",
"X. c #7E7000",
"o. c #706B19",
"O. c #47482A",
"+. c #535C28",
"@. c #475634",
"#. c #7A5626",
"$. c #5C6737",
"%. c #79742E",
"&. c #7F6C3E",
"*. c #6A723F",
"=. c #757A3D",
"-. c #465540",
";. c #536044",
":. c #516752",
">. c #636D45",
",. c #667149",
"<. c #787744",
"1. c #797451",
"2. c #697F65",
"3. c #845E00",
"4. c #806600",
"5. c #8A6500",
"6. c #846A01",
"7. c #8A6D00",
"8. c #846C0B",
"9. c #906400",
"0. c #926B00",
"q. c #867200",
"w. c #8D7200",
"e. c #8C730C",
"r. c #927500",
"t. c #997400",
"y. c #967A00",
"u. c #997D00",
"i. c #91770F",
"p. c #896A17",
"a. c #8B7314",
"s. c #8D751A",
"d. c #907116",
"f. c #957C15",
"g. c #927819",
"h. c #855F23",
"j. c #876224",
"k. c #937824",
"l. c #937C24",
"z. c #976F30",
"x. c #8E7331",
"c. c #8A7C44",
"v. c #827648",
"b. c #7C8244",
"n. c #9D8100",
"m. c #9B831C",
"M. c #A18500",
"N. c #A58A00",
"B. c #A98E00",
"V. c #A88B1C",
"C. c #9A842A",
"Z. c #928734",
"A. c #9C8733",
"S. c #9D8939",
"D. c #A18A27",
"F. c #A58B3A",
"G. c #A59030",
"H. c #AA923C",
"J. c #BCA422",
"K. c #D6BC17",
"L. c #E0C92E",
"P. c #E6CF36",
"I. c #8B8648",
"U. c #958647",
"Y. c #898C57",
"T. c #8A9358",
"R. c #9B9957",
"E. c #A28C42",
"W. c #A49146",
"Q. c #A99444",
"!. c #A6934C",
"~. c #AA954B",
"^. c #AB9A4C",
"/. c #B29746",
"(. c #B19C4C",
"). c #A79650",
"_. c #A99751",
"`. c #AB9954",
"'. c #A69C58",
"]. c #AD9D5B",
"[. c #B39E55",
"{. c #B19F59",
"}. c #B5A046",
"|. c #AFA05F",
" X c #B4A153",
".X c #BAA154",
"XX c #BBA854",
"oX c #B4A35C",
"OX c #BAA75D",
"+X c #BDAA5D",
"@X c #BBB15F",
"#X c #959562",
"$X c #AF9F60",
"%X c #B09F60",
"&X c #A5A360",
"*X c #B1A264",
"=X c #B9A765",
"-X c #BCAA63",
";X c #B5A66A",
":X c #B7A86F",
">X c #BBAB6C",
",X c #BEB16B",
"<X c #B7A870",
"1X c #B9AB74",
"2X c #BBAE78",
"3X c #BEB273",
"4X c #BEB07C",
"5X c #C8B04F",
"6X c #C2AD57",
"7X c #CAB75A",
"8X c #C1AD67",
"9X c #C3B26E",
"0X c #C3B374",
"qX c #C2B57E",
"wX c #C5B878",
"eX c #EAD548",
"rX c #D7C877",
"tX c #F4E471",
"yX c #F3E47B",
"uX c #BBAF82",
"iX c #BFB380",
"pX c #C2B583",
"aX c #C5B985",
"sX c #C9BC83",
"dX c #C7BB88",
"fX c #CDC085",
"gX c #CEC288",
"hX c #D3C788",
"jX c #D5C98E",
"kX c #D4C990",
"lX c #DACE92",
"zX c #DFD497",
"xX c #E0D69C",
"cX c #E4D99D",
"vX c #F4E783",
"bX c #F5E887",
"nX c #F5E98B",
"mX c #F7EA93",
"MX c #F7EC99",
"NX c #F8ED9E",
"BX c #D2CAA6",
"VX c #E6DDA2",
"CX c #E8DEA2",
"ZX c #EDE2A6",
"AX c #ECE2AB",
"SX c #F7ECA0",
"DX c #F8EEA4",
"FX c #F1E8AB",
"GX c #F8EFA9",
"HX c #F3EAB0",
"JX c #F5EDBB",
"KX c #E2DCC5",
"LX c #F8F1C3",
"PX c #F8F2C9",
"IX c #FFFFFF",
/* pixels */
"IXIXIXIXuXl.r.w.r.r.r.r.r.r.r.r.r.r.r.y.y.y.y.y.y.y.y.y.u.u.u.u.u.u.u.u.u.u.u.u.u.u.u.y.y.y.u.y.y.y.y.y.y.y.y.y.y.y.y.y.y.y.y.y.y.y.y.y.y.y.y.y.y.y.y.y.y.y.y.y.u.u.u.u.u.n.n.n.n.n.n.M.M.M.M.N.N.N.N.N.B.M.w.| k.pXIXIXIXIX",
"IXIXKX_ u.L.tXyXyXyXyXyXyXyXyXyXvXvXvXvXvXbXbXbXbXnXnXnXnXnXnXnXnXnXnXnXnXnXnXnXnXnXnXnXnXnXnXnXnXnXnXnXnXnXbXbXbXbXbXbXbXbXbXbXbXbXbXbXbXbXbXbXbXbXbXbXbXbXnXnXnXnXmXmXmXmXMXMXMXNXNXNXSXSXDXDXDXDXGXGXGXDXyXK.r.~ | KXIXIX",
"IXKX~ n.tXPXJXJXJXJXJXJXJXJXJXJXJXJXJXJXJXJXJXJXJXJXJXJXJXJXJXJXJXJXJXJXJXJXJXJXJXJXJXJXJXJXJXJXJXJXJXJXJXJXJXJXJXJXJXJXJXJXJXJXJXJXJXJXJXJXJXJXJXJXJXJXJXJXJXJXJXJXJXJXJXJXJXJXJXJXJXJXJXJXJXJXJXJXJXJXJXJXJXLXeXn.` ( KXIX",
"IX8.` eXLXHXHXHXHXHXHXHXHXHXHXHXHXHXHXHXHXHXHXHXHXHXHXHXHXHXHXHXHXHXHXHXHXHXHXHXHXHXHXHXHXHXHXHXHXHXHXHXHXHXHXHXHXHXHXHXHXHXHXHXHXHXHXHXHXHXHXHXHXHXHXHXHXHXHXHXHXHXHXHXHXHXHXHXHXHXHXHXHXHXHXHXHXHXHXHXHXHXHXHXLXP.| | 8.IX",
"BX( n.SXFXFXFXFXFXFXFXFXFXFXFXFXFXFXFXFXFXFXFXFXFXFXFXFXFXFXFXFXFXFXFXFXFXFXFXFXFXFXFXFXFXFXFXFXFXFXFXFXFXFXFXFXFXFXFXFXFXFXFXFXFXFXFXFXFXFXFXFXFXFXFXFXFXFXFXFXFXFXFXFXFXFXFXFXFXFXFXFXFXFXFXFXFXFXFXFXFXFXFXFXFXGX7.| _ BX",
"W._ J.JXZXZXZXZXZXZXZXZXZXZXZXZXZXZXZXZXZXZXZXZXZXZXZXZXZXZXZXZXZXZXZXZXZXZXZXZXZXZXZXZXZXZXZXZXZXZXZXZXZXZXZXZXZXZXZXZXZXZXZXZXZXZXZXZXZXZXZXZXZXZXZXZXZXZXZXZXZXZXZXZXZXZXZXZXZXZXZXZXZXZXZXZXZXZXZXZXZXZXZXZXZXJXf.| | W.",
"a.` 7XAXCXCXCXCXCXCXCXCXCXCXCXCXCXCXCXCXCXCXCXCXCXCXCXCXCXCXCXCXCXCXCXCXCXCXCXCXCXCXCXCXCXCXCXCXCXCXCXCXCXCXCXCXCXCXCXCXCXCXCXCXCXCXCXCXCXCXCXCXCXCXCXCXCXCXCXCXCXCXCXCXCXCXCXCXCXCXCXCXCXCXCXCXCXCXCXCXCXCXCXCXCXFXm.| | a.",
"4.` rXVXcXcXcXcXcXcXcXcXcXcXcXcXcXcXcXcXcXcXcXcXcXcXcXcXcXcXcXcXcXcXcXcXcXcXcXcXcXcXcXcXcXcXcXcXcXcXcXcXcXcXcXcXcXcXcXcXcXcXcXcXcXcXcXcXcXcXcXcXcXcXcXcXcXcXcXcXcXcXcXcXcXcXcXcXcXcXcXcXcXcXcXcXcXcXcXcXcXcXcXcXcXAXD.| | 4.",
"| | hXxXzXzXzXzXzXzXzXzXzXzXzXzXzXzXzXzXzXzXzXzXzXzXzXzXzXzXzXzXzXzXzXzXzXzXzXzXzXzXzXzXzXzXzXzXzXzXzXzXzXzXzXzXzXzXzXzXzXzXzXzXzXzXzXzXzXzXzXzXzXzXzXzXzXzXzXzXzXzXzXzXzXzXzXzXzXzXzXzXzXzXzXzXzXzXzXzXzXzXzXzXzXVXG.| 4.| ",
"| | hXzXlXlXlXlXlXlXlXlXlXlXlXlXlXlXlXlXlXlXlXlXlXlXlXlXlXlXlXlXlXlXlXlXlXlXlXlXlXlXlXlXlXlXlXlXlXlXlXlXlXlXlXlXlXlXlXlXlXlXlXlXlXlXlXlXlXlXlXlXlXlXlXlXlXlXlXlXlXlXlXlXlXlXlXlXlXlXlXlXlXlXlXlXlXlXlXlXlXlXlXlXlXxXH.| 4.4.",
"| | fXkXjXjXjXjXjXjXjXjXjXjXjXjXjXjXjXjXjXjXjXjXjXjXjXjXjXjXjXjXjXjXjXjXjXjXjXjXjXjXjXjXjXjXjXjXjXjXjXjXjXjXjXjXjXjXjXjXjXjXjXjXjXjXjXjXjXjXjXjXjXjXjXjXjXjXjXjXjXjXjXjXjXjXjXjXjXjXjXjXjXjXjXjXjXjXjXjXjXjXjXjXjXlXH.| 4.4.",
"| | wXgXgXgXgXgXgXgXgXgXgXgXgXgXgXgXgXgXgXgXgXgXgXgXgXgXgXgXgXgXgXgXgXgXgXgXgXgXgXgXgXgXgXgXgXgXgXgXgXgXgXgXgXgXgXgXgXgXgXgXgXgXgXgXgXgXgXgXgXgXgXgXgXgXgXgXgXgXgXgXgXgXgXgXgXgXgXgXgXgXgXgXgXgXgXgXgXgXgXgXgXgXgXkXQ.| 4.4.",
"| ` >XsXsXsXsXsXsXsXsXsXsXsXsXsXsXsXsXsXsXsXsXsXsXsXsXsXsXsXsXsXsXsXsXsXsXsXsXsXsXsXsXsXsXsXsXsXsXsXsXsXsXsXsXsXsXsXsXsXsXsXsXsXsXsXsXsXsXsXsXsXsXsXsXsXsXsXsXsXsXsXsXsXsXsXsXsXsXsXsXsXsXsXsXsXsXsXsXsXsXsXsXsXsXgXQ.| 4.4.",
"| | oXaXqXqXqXqXqXqXqXqXqXqXqXqXqXqXqXqXqXqXqXqXqXqXqXqXqXqXqXqXqXqXqXqXqXqXqXqXqXqXqXqXqXqXqXqXqXqXqXqXqXqXqXqXqXqXqXqXqXqXqXqXqXqXqXqXqXqXqXqXqXqXqXqXqXqXqXqXqXqXqXqXqXqXqXqXqXqXqXqXqXqXqXqXqXqXqXqXqXqXpXaXdXdXF.| 4.4.",
"4.` ].4X2X2X2X2X2X2X2X2X2X2X2X2X2X2X2X2X2X2X2X2X2X2X2X2X2X2X2X2X2X2X2X2X2X2X2X2X2X2X2X2X2X2X2X2X2X2X2X2X2X2X2X2X2X2X2X2X2X2X2X2X2X2X2X2X2X2X2X2X2X2X2X2X2X2X2X2X2X2X2X2X2X2X2X2X2X2X2X2X2X2X2X2X2X2X2X4XiXpX2X_.l.6.| | 4.4.",
"4.| `.2X1X1X1X1X1X1X1X1X1X1X1X1X1X1X1X1X1X1X1X1X1X1X1X1X1X1X1X1X1X1X1X1X1X1X1X1X1X1X1X1X1X1X1X1X1X1X1X1X1X1X1X1X1X0X1X1X1X1X1X1X1X1X1X1X1X1X1X1X1X1X1X1X1X1X1X1X1X1X1X1X1X1X1X1X0X1X1X1X1X1X1X1X2X4X2X*XS.a.| | | | | 4.4.4.",
"4.| ).1X:X:X:X:X:X:X:X:X:X:X:X:X:X:X:X:X:X:X:X:X:X:X:X:X:X:X:X:X:X:X:X:X:X:X:X:X:X:X:X:X:X:X:X:X:X:X:X:X:X:X:X<XwXv.1X<X:X:X:X:X:X:X:X:X:X:X:X:X:X:X:X:X:X:X:X:X:X:X:X:X:X:X<X0X1.0X<X<X1X2X2X;XW.l.6.| | | | | 4.4.4.4.4.4.",
"4.| !.<X;X;X;X;X;X;X;X1X0X0X0X>X;X;X;X;X;X>X>X;X;X;X;X;X;X;X;X;X;X;X;X;X;X;X;X;X;X;X;X;X;X;X;X;X;X;X;X;X;X;X;X1X#.  :.9X;X;X;X;X;X;X;X;X;X;X;X;X;X;X;X;X;X;X;X;X;X;X;X;X;X;X3X]   2.0X;X_.C.8.| | | | | 4.4.4.4.4.4.4.4.4.4.",
"4.| l.:X;X*X*X*X*X>X=X&.h h 9 1.9X*X*X*X:XU.#X=X*X*X*X*X*X*X*X*X*X*X*X*X*X*X*X*X*X*X*X*X*X*X*X*X*X*X*X*X*X*X*X9X7   :.>X*X*X*X*X*X*X*X*X*X*X*X*X*X*X*X*X*X*X*X*X*X*X*X*X;X:X9X1   $.g.| | | | | | 4.4.4.4.4.4.4.4.4.4.4.4.4.",
"4.| | 4.!.;X*X*X>Xj.            A -X*X*X.X  , ;X*X*X*X*X*X*X*X*X*X*X*X*X*X*X*X*X*X*X*X*X*X*X*X*X*X*X*X*X*X*X*X-X@   #X*X*X*X*X*X*X*X*X*X*X*X*X*X*X*X*X*X*X*X*X*X*X*X;X*X`.S.d.    ..4.| | 4.4.4.4.4.4.4.4.4.4.4.4.4.4.4.4.4.",
"4.4.| | | s.`.,X]     h <.v.Y   , 8X].*Xz.  k -X].].].].].].].].].].].].].].].].].].].].].].].].].].].].].].|./.  < =X].].].].].].].].].].].].].].].].].].*X*X%X_.S.s.4.| | (   = 7.4.4.4.4.4.4.4.4.4.4.4.4.4.4.4.4.4.4.4.4.",
"4.4.4.4.| | 4.p.  O Y.8XoXoX7X. ;.oXoX-XB   -.+XoX{.].].].].OXoXoX{.].].].].{.].].].].].].].].].].].].].].oXoXz.  A OX].].].].].OXoXOX{.].].].].OXoX$X].^.G.g.6.| | | 4.6.7.V   f 7.4.4.4.4.4.4.4.4.4.4.4.4.4.4.4.4.4.4.4.4.",
"4.4.4.4.4.4.7.7   +..X].`.`.`.OXoX~.c.U.#   >.U.c.I.`.`.`.[.B     Y..X`.`._.I.[.`.].OXOX`.`.`.`.`.`.`.oX~.c.'.]   ,.[.`.`.`.].`.x     &X{.].].E.h %.a.7.m ; D 6.4.4.7.| ! 6.y   I 6.4.4.4.4.4.4.4.4.4.4.4.4.4.4.4.4.4.4.4.4.",
"4.4.4.4.4.4.7.7   e r.l.~.`._.).].]                 '.`..X%         ,.`. X8   R.oXx.. < R._.).).).).XX#.      ;   T._.).).`.Q..       O =.l.i.3   e y.8       P 6.w.z     X #    .4.4.4.4.4.4.4.4.4.4.4.4.4.4.4.4.4.4.4.4.4.",
"4.4.4.4.4.4.6.V     - L | f.F.!.`.z.o $     > $ O.c.^. X5   q @Xl   @.(./..   T.j.      <  X!.!.!. XB     >     O  X!.!._./.@   r V.%   G 4.7.@   U N   * v   F r.8     -     X w.4.4.4.4.4.4.4.4.4.4.4.4.4.4.4.4.4.4.4.4.4.",
"4.4.4.4.4.4.4.7.v         w _ e.l.W.+X'   A XX(.^.Q.^.[   + ^.(.x   *.~./..   U.    j     I.W.W.^.h.    <.6Xj.  < (.A.l.f.z   = w.7.2   { 4.w..   |   X 6.w.( q.N     ^ y.N   : 7.4.4.4.4.4.4.4.4.4.4.4.4.4.4.4.4.4.4.4.4.4.",
"4.4.4.4.4.4.4.4.7.7.v .       f 6.| e.6   $.~.W.W.W.F.    b.Q.}..   I.W.H.. O B   @.5X1   *.Q.W.H.    =.H.A.C   0 7.| | )      .6.5.    6.4.7.  * t   } 6.4.6.3.    { 7.7.z   a 7.4.4.4.4.4.4.4.4.4.4.4.4.4.4.4.4.4.4.4.4.4.",
"4.4.4.4.4.4.4.4.4.4.7.w.~ 4     U 6.7..   { a.l.A.Q.'   q /.Q.[     U.E.F.  > . q (.^.x   +.A.C.m   0 w.| 5..   a 7.| 7.y   a 7.w.l   X 7.4.9.  X   s 7.4.4.7.l   p 7.4.5.    Z 7.4.4.4.4.4.4.4.4.4.4.4.4.4.4.4.4.4.4.4.4.4.",
"4.4.4.4.4.4.4.4.4.4.4.4.6.y.2   S 7.5.    q.| | 4.w.%   o.C.k.      Z.A.p.      o.e.e.z   s 6.7.%   ^ 6.w.6     g 7.4.7..   } 7.W     X 7.4.3.      ..4.4.4.7..   { 6.7.2     G 6.4.4.4.4.4.4.4.4.4.4.4.4.4.4.4.4.4.4.4.4.4.",
"4.4.4.4.4.4.4.6.4.4.4.4.w.)     / 6.)   X r.6.5.L 0.    X.5..   ;    .6.T     f 7.| 6.N   = t.7..   w.r.l   ;   f r.7.5.  X w.3.  o o X 7.4.3.    0 7.4.4.4.5.    y.r.7   ;   F r.7.4.4.4.4.4.4.4.4.4.4.4.4.4.4.4.4.4.4.4.4.",
"4.4.4.4.4.4.6.d 6.w.7.| i     g 7.4.)     6.~ . X t.    d .   U 7   / 7.v     q.4.4.6.)       S @   s 4   e )   X i & 0.    d     } #   6.6.3.    S 7.4.4.4.5.    d #   f R   * 7 : 7.4.4.4.4.4.4.4.4.4.4.4.4.4.4.4.4.4.4.4.",
"4.4.4.4.4.6.V     5 4       K 7.4.4.5.          / w.8       G r.l     X.z   p 7.4.4.4.7.3   X 6.z       w w.5.      G w.1       ^ r.3   * 6.0.    I 6.4.4.4.7.8       s w.3.      I 6.4.4.4.4.4.4.4.4.4.4.4.4.4.4.4.4.4.4.4.",
"4.4.4.4.4.6.)           g 6.6.4.4.4.6.R     w ..6.4.7.c s 4.7.4.`   * 6.4.i } 4.4.4.4.4.6.| 6.4.7.M u / 7.4.6.W u } 7.4.5.i g 7.6.6.Q   w 6.7.3 X ..4.4.4.4.4.7.v u } 7.4.6.T u  .6.4.4.4.4.4.4.4.4.4.4.4.4.4.4.4.4.4.4.4.4.",
"4.4.4.4.4.4.6.` J J / r.7.4.4.4.4.4.4.6.w.w.7.4.4.4.4.6.7.4.4.4.4.w.7.4.4.7.4.4.4.4.4.4.4.4.4.4.4.6.7.6.4.4.4.6.7.4.4.4.4.7.6.4.4.4.6.w.7.4.4.7.7.4.4.4.4.4.4.4.6.7.4.4.4.4.6.7.4.4.4.4.4.4.4.4.4.4.4.4.4.4.4.4.4.4.4.4.4.4.",
"4.4.4.4.4.4.4.4.6.6.6.4.4.4.4.4.4.4.4.4.4.4.4.4.4.4.4.4.4.4.4.4.4.4.4.4.4.4.4.4.4.4.4.4.4.4.4.4.4.4.4.4.4.4.4.4.4.4.4.4.4.4.4.4.4.4.4.4.4.4.4.4.4.4.4.4.4.4.4.4.4.4.4.4.4.4.4.4.4.4.4.4.4.4.4.4.4.4.4.4.4.4.4.4.4.4.4.4.4.4.",
"4.| | | | | | | | | | | | | | | | | | | | | | | | | | | | | | | | | | | | | | | | | | | | | | | | | | | | | | | | | | | | | | | | | | | | | | | | | | | | | | | | | | | | | | | | | | | | | | | | | | | | | | | | | | | 4.4.",
"4.| | | | | | | | | | | | | | | | | | | | | | | | | | | | | | | | | | | | | | | | | | | | | | | | | | | | | | | | | | | | | | | | | | | | | | | | | | | | | | | | | | | | | | | | | | | | | | | | | | | | | | | | | | | 4.4.",
"4.` _ _ _ _ _ _ _ _ _ _ _ _ _ _ _ _ _ _ _ _ _ _ _ _ _ _ _ _ _ _ _ _ _ _ _ _ _ _ _ _ _ _ _ _ _ _ _ _ _ _ _ _ _ _ _ _ _ _ _ _ _ _ _ _ _ _ _ _ _ _ _ _ _ _ _ _ _ _ _ _ _ _ _ _ _ _ _ _ _ _ _ _ _ _ _ _ _ _ _ _ _ _ _ _ _ ` 4.4.",
"4._ _ _ _ _ _ _ _ _ _ _ _ _ _ _ _ _ _ _ _ _ _ _ _ _ _ _ _ _ _ _ _ _ _ _ _ _ _ _ _ _ _ _ _ _ _ _ _ _ _ _ _ _ _ _ _ _ _ _ _ _ _ _ _ _ _ _ _ _ _ _ _ _ _ _ _ _ _ _ _ _ _ _ _ _ _ _ _ _ _ _ _ _ _ _ _ _ _ _ _ _ _ _ _ _ _ _ 4.4.",
"4./ ~ ~ ~ ~ ~ ~ ~ ~ ~ ~ ~ ~ ~ ~ ~ ~ ~ ~ ~ ~ ~ ~ ~ ~ ~ ~ ~ ~ ~ ~ ~ ~ ~ ~ ~ ~ ~ ~ ~ ~ ~ ~ ~ ~ ~ ~ ~ ~ ~ ~ ~ ~ ~ ~ ~ ~ ~ ~ ~ ~ ~ ~ ~ ~ ~ ~ ~ ~ ~ ~ ~ ~ ~ ~ ~ ~ ~ ~ ~ ~ ~ ~ ~ ~ ~ ~ ~ ~ ~ ~ ~ ~ ~ ~ ~ ~ ~ ~ ~ ~ ~ ~ ~ ~ ~ ~ 4.4.",
"4.~ ! ! ! ! ! ! ! ! ! ! ! ! ! ! ! ! ! ! ! ! ! ! ! ! ! ! ! ! ! ! ! ! ! ! ! ! ! ! ! ! ! ! ! ! ! ! ! ! ! ! ! ! ! ! ! ! ! ! ! ! ! ! ! ! ! ! ! ! ! ! ! ! ! ! ! ! ! ! ! ! ! ! ! ! ! ! ! ! ! ! ! ! ! ! ! ! ! ! ! ! ! ! ! ! ! ~ 4.4.",
"4.~ E E E E E E E E E E E E E E E E E E E E E E E E E E E E E E E E E E E E E E E E E E E E E E E E E E E E E E E E E E E E E E E E E E E E E E E E E E E E E E E E E E E E E E E E E E E E E E E E E E E E E E E E E ! 4.| ",
"6.~ L L L L L L L L L L L L L L L L L L L L L L L L L L L L L L L L L L L L L L L L L L L L L L L L L L L L L L L L L L L L L L L L L L L L L L L L L L L L L L L L L L L L L L L L L L L L L L L L L L L L L L L L L ! 4.4.",
"a.~ J J J J J J J J J J J J J J J J J J J J J J J J J J J J J J J J J J J J J J J J J J J J J J J J J J J J J J J J J J J J J J J J J J J J J J J J J J J J J J J J J J J J J J J J J J J J J J J J J J J J J J J J J ~ 4.a.",
"W.~ H H H H H H H H H H H H H H H H H H H H H H H H H H H H H H H H H H H H H H H H H H H H H H H H H H H H H H H H H H H H H H H H H H H H H H H H H H H H H H H H H H H H H H H H H H H H H H H H H H H H H H H H H ` | W.",
"BX( n H H H H H H H H H H H H H H H H H H H H H H H H H H H H H H H H H H H H H H H H H H H H H H H H H H H H H H H H H H H H H H H H H H H H H H H H H H H H H H H H H H H H H H H H H H H H H H H H H H H H H H M H 6._ BX",
"IX8.~ b n n n n n n n n n n n n n n n n n n n n n n n n n n n n n n n n n n n n n n n n n n n n n n n n n n n n n n n n n n n n n n n n n n n n n n n n n n n n n n n n n n n n n n n n n n n n n n n n n n n n n b | | 8.IX",
"IXKX_ _ J c c c c c c c c c c c c c c c c c c c c c c c c c c c c c c c c c c c c c c c c c c c c c c c c c c c c c c c c c c c c c c c c c c c c c c c c c c c c c c c c c c c c c c b b b b b b b n n n n n n H ` 4.( KXIX",
"IXIXKX| ` | | _ _ _ | | | | | | | | | | | | | | | | | | | | | | | | | | | | | | | | | | | | | | | | | | | | | | | | | | | | | | | | | | | | | | | | | | | | | | | | | | | | 4.4.4.4.4.6.6.6.6.6.6.6.6.6.6.6.6.6.4.` | KXIXIX",
"IXIXIXIXpXl.8.4.4.4.4.4.4.4.4.4.4.4.4.4.4.4.4.4.4.4.4.4.4.4.4.4.4.4.4.4.4.4.4.4.4.4.4.4.4.4.4.4.4.4.4.4.4.4.4.4.4.4.4.4.4.4.4.4.4.4.4.4.4.4.4.4.4.4.4.4.4.4.4.4.4.4.4.4.4.4.4.4.4.4.4.4.4.4.4.4.4.4.4.4.4.4.| 6.l.pXIXIXIXIX"
};
