/* XPM */
static char *button_[] = {
/* columns rows colors chars-per-pixel */
"43 43 17 1",
"  c black",
". c #3A0000",
"X c #00003A",
"o c #660000",
"O c #000066",
"+ c #903A00",
"@ c #B66600",
"# c #DB903A",
"$ c #0066B6",
"% c #3A90DB",
"& c #66B6FF",
"* c #FFFFB6",
"= c #90DBFF",
"- c #B6FFFF",
"; c #FFFFDB",
": c #DBFFFF",
"> c gray100",
/* pixels */
">>>>>>>>>>>>>>>>>>>>>>>>>>>>>>>>>>>>>>>>>>>",
">>>>>>>>>>>>>>>>>>>>>>>>>>>>>>>>>>>>>>>>>>>",
">>>>>>>>>>>>>>>>>>>>>>>>>>>>>>>>>>>>>>>>>>>",
">>>>>>>>>>>>>>>>>>>>>>>>>>>>>>>>>>>>>>>>>>>",
">>>>>>>>>>>>>>>>>>>>>>>>>>>>>>>>>>>>>>>>>>>",
">>>>>>>>>>>>>>>>>>>>>>>>>>>>>>>>>>>>>>>>>>>",
">>>>>>>>>>>>>>>>>>>>>>>>>>>>>>>>>>>>>>>>>>>",
">>>>>>>>>>>>>>>>>>>>>>>>>>>>>>>>>>>>>>>>>>>",
">>>>>>>>>>>>>>>>>>>>>>>>>>>>>>>>>>>>>>>>>>>",
">>>>>>>>>>>>>>>>>>>>>>>>>>>>>>>>>>>>>>>>>>>",
">>>>>>>>>>>>>>>>>>>>>>>>>>>>>>>>>>>>>>>>>>>",
">>>>>>>>>>>>>>>>>>>;   &>>>>>>>>>>>>>>>>>>>",
">>>>>>>>>>>>>>>>>+       &>>>>>>>>>>>>>>>>>",
">>>>>>>>>>>>>>>>@         &>>>>>>>>>>>>>>>>",
">>>>>>>>>>>>>>>>@ =>>>>.   >>>>>>>>>>>>>>>>",
">>>>>>>>>>>>>>>>>>>>>>>>   :>>>>>>>>>>>>>>>",
">>>>>>>>>>>>>>>>>>>>>>>>.  ->>>>>>>>>>>>>>>",
">>>>>>>>>>>>>>>>>>>>>>>>.  :>>>>>>>>>>>>>>>",
">>>>>>>>>>>>>>>>>>>>>>>>   >>>>>>>>>>>>>>>>",
">>>>>>>>>>>>>>>>>>>>>>>#  %>>>>>>>>>>>>>>>>",
">>>>>>>>>>>>>>>>>>>>>>>   >>>>>>>>>>>>>>>>>",
">>>>>>>>>>>>>>>>>>>>>>o  =>>>>>>>>>>>>>>>>>",
">>>>>>>>>>>>>>>>>>>>>@  $>>>>>>>>>>>>>>>>>>",
">>>>>>>>>>>>>>>>>>>>>  O>>>>>>>>>>>>>>>>>>>",
">>>>>>>>>>>>>>>>>>>>  X>>>>>>>>>>>>>>>>>>>>",
">>>>>>>>>>>>>>>>>>>.  >>>>>>>>>>>>>>>>>>>>>",
">>>>>>>>>>>>>>>>>*   >>>>>>>>>>>>>>>>>>>>>>",
">>>>>>>>>>>>>>>>*   >>>>>>>>>>>>>>>>>>>>>>>",
">>>>>>>>>>>>>>>>            >>>>>>>>>>>>>>>",
">>>>>>>>>>>>>>>>            :>>>>>>>>>>>>>>",
">>>>>>>>>>>>>>>>o           >>>>>>>>>>>>>>>",
">>>>>>>>>>>>>>>>>>>>>>>>>>>>>>>>>>>>>>>>>>>",
">>>>>>>>>>>>>>>>>>>>>>>>>>>>>>>>>>>>>>>>>>>",
">>>>>>>>>>>>>>>>>>>>>>>>>>>>>>>>>>>>>>>>>>>",
">>>>>>>>>>>>>>>>>>>>>>>>>>>>>>>>>>>>>>>>>>>",
">>>>>>>>>>>>>>>>>>>>>>>>>>>>>>>>>>>>>>>>>>>",
">>>>>>>>>>>>>>>>>>>>>>>>>>>>>>>>>>>>>>>>>>>",
">>>>>>>>>>>>>>>>>>>>>>>>>>>>>>>>>>>>>>>>>>>",
">>>>>>>>>>>>>>>>>>>>>>>>>>>>>>>>>>>>>>>>>>>",
">>>>>>>>>>>>>>>>>>>>>>>>>>>>>>>>>>>>>>>>>>>",
">>>>>>>>>>>>>>>>>>>>>>>>>>>>>>>>>>>>>>>>>>>",
">>>>>>>>>>>>>>>>>>>>>>>>>>>>>>>>>>>>>>>>>>>",
">>>>>>>>>>>>>>>>>>>>>>>>>>>>>>>>>>>>>>>>>>>"
};
