/* XPM */
static char *button_[] = {
/* columns rows colors chars-per-pixel */
"43 43 16 1",
"  c black",
". c #3A0000",
"X c #00003A",
"o c #660000",
"O c #000066",
"+ c #B66600",
"@ c #DB903A",
"# c #FFB666",
"$ c #003A90",
"% c #66B6FF",
"& c #FFDB90",
"* c #FFFFB6",
"= c #90DBFF",
"- c #FFFFDB",
"; c #DBFFFF",
": c gray100",
/* pixels */
":::::::::::::::::::::::::::::::::::::::::::",
":::::::::::::::::::::::::::::::::::::::::::",
":::::::::::::::::::::::::::::::::::::::::::",
":::::::::::::::::::::::::::::::::::::::::::",
":::::::::::::::::::::::::::::::::::::::::::",
":::::::::::::::::::::::::::::::::::::::::::",
":::::::::::::::::::::::::::::::::::::::::::",
":::::::::::::::::::::::::::::::::::::::::::",
":::::::::::::::::::::::::::::::::::::::::::",
":::::::::::::::::::::::::::::::::::::::::::",
":::::::::::::::::::::::::::::::::::::::::::",
":::::::::::::::::-      ;::::::::::::::::::",
"::::::::::::::::o        %:::::::::::::::::",
"::::::::::::::::  =:::#   :::::::::::::::::",
"::::::::::::::::X::::::o  =::::::::::::::::",
":::::::::::::::::::::::#  %::::::::::::::::",
":::::::::::::::::::::::#  %::::::::::::::::",
":::::::::::::::::::::::o  ;::::::::::::::::",
"::::::::::::::::::::::#  $:::::::::::::::::",
":::::::::::::::::::::   X::::::::::::::::::",
":::::::::::::::::+    O::::::::::::::::::::",
":::::::::::::::::#       %:::::::::::::::::",
"::::::::::::::::::::::&   %::::::::::::::::",
":::::::::::::::::::::::*   ::::::::::::::::",
"::::::::::::::::::::::::o  =:::::::::::::::",
"::::::::::::::::::::::::+  %:::::::::::::::",
"::::::::::::::::::::::::.  ;:::::::::::::::",
":::::::::::::::@=::::::#  O::::::::::::::::",
":::::::::::::::+  X:::    ;::::::::::::::::",
":::::::::::::::*         ::::::::::::::::::",
"::::::::::::::::::@   O::::::::::::::::::::",
":::::::::::::::::::::::::::::::::::::::::::",
":::::::::::::::::::::::::::::::::::::::::::",
":::::::::::::::::::::::::::::::::::::::::::",
":::::::::::::::::::::::::::::::::::::::::::",
":::::::::::::::::::::::::::::::::::::::::::",
":::::::::::::::::::::::::::::::::::::::::::",
":::::::::::::::::::::::::::::::::::::::::::",
":::::::::::::::::::::::::::::::::::::::::::",
":::::::::::::::::::::::::::::::::::::::::::",
":::::::::::::::::::::::::::::::::::::::::::",
":::::::::::::::::::::::::::::::::::::::::::",
":::::::::::::::::::::::::::::::::::::::::::"
};
