/* XPM */
static char *_[] = {
/* columns rows colors chars-per-pixel */
"43 43 15 1",
"  c black",
". c #3A0000",
"X c #00003A",
"o c #000066",
"O c gray40",
"+ c #903A00",
"@ c #DB903A",
"# c #FFB666",
"$ c #0066B6",
"% c #66B6FF",
"& c #FFDB90",
"* c #90DBFF",
"= c #B6FFFF",
"- c #FFFFDB",
"; c gray100",
/* pixels */
";;;;;;;;;;;;;;;;;;;;;;;;;;;;;;;;;;;;;;;;;;;",
";;;;;;;;;;;;;;;;;;;;;;;;;;;;;;;;;;;;;;;;;;;",
";;;;;;;;;;;;;;;;;;;;;;;;;;;;;;;;;;;;;;;;;;;",
";;;;;;;;;;;;;;;;;;;;;;;;;;;;;;;;;;;;;;;;;;;",
";;;;;;;;;;;;;;;;;;;;;;;;;;;;;;;;;;;;;;;;;;;",
";;;;;;;;;;;;;;;;;;;;;;;;;;;;;;;;;;;;;;;;;;;",
";;;;;;;;;;;;;;;;;;;;;;;;;;;;;;;;;;;;;;;;;;;",
";;;;;;;;;;;;;;;;;;;;;;;;;;;;;;;;;;;;;;;;;;;",
";;;;;;;;;;;;;;;;;;;;;;;;;;;;;;;;;;;;;;;;;;;",
";;;;;;;;;;;;;;;;;;;;;;;;;;;;;;;;;;;;;;;;;;;",
";;;;;;;;;;;;;;;;;;;;;;;;;;;;;;;;;;;;;;;;;;;",
";;;;;;;;;;;;;;;;;;;;;;;;;;;;;;;;;;;;;;;;;;;",
";;;;;;;;;;;;;;;;;;;;;;;;;;;;;;;;;;;;;;;;;;;",
";;;;;;;;;;;;;;;;;;;;;;&.X*;;;;;;;;;;;;;;;;;",
";;;;;;;;;;;;;;;;;;;;;-+ X*;;;;;;;;;;;;;;;;;",
";;;;;;;;;;;;;;;;;;;;;@  X*;;;;;;;;;;;;;;;;;",
";;;;;;;;;;;;;;;;;;;;&.  X*;;;;;;;;;;;;;;;;;",
";;;;;;;;;;;;;;;;;;;-+ O X*;;;;;;;;;;;;;;;;;",
";;;;;;;;;;;;;;;;;;;@ $# X*;;;;;;;;;;;;;;;;;",
";;;;;;;;;;;;;;;;;;&.o=# X*;;;;;;;;;;;;;;;;;",
";;;;;;;;;;;;;;;;;-+ %;# X*;;;;;;;;;;;;;;;;;",
";;;;;;;;;;;;;;;;;@ $;;# X*;;;;;;;;;;;;;;;;;",
";;;;;;;;;;;;;;;;&.o=;;# X*;;;;;;;;;;;;;;;;;",
";;;;;;;;;;;;;;;-+ %;;;# X*;;;;;;;;;;;;;;;;;",
";;;;;;;;;;;;;;;@ $;;;;# X*;;;;;;;;;;;;;;;;;",
";;;;;;;;;;;;;;&.o=;;;;# X*;;;;;;;;;;;;;;;;;",
";;;;;;;;;;;;;;@            $;;;;;;;;;;;;;;;",
";;;;;;;;;;;;;;@            $;;;;;;;;;;;;;;;",
";;;;;;;;;;;;;;;;;;;;;;# X*;;;;;;;;;;;;;;;;;",
";;;;;;;;;;;;;;;;;;;;;;# X*;;;;;;;;;;;;;;;;;",
";;;;;;;;;;;;;;;;;;;;;;# X*;;;;;;;;;;;;;;;;;",
";;;;;;;;;;;;;;;;;;;;;;# X*;;;;;;;;;;;;;;;;;",
";;;;;;;;;;;;;;;;;;;;;;;;;;;;;;;;;;;;;;;;;;;",
";;;;;;;;;;;;;;;;;;;;;;;;;;;;;;;;;;;;;;;;;;;",
";;;;;;;;;;;;;;;;;;;;;;;;;;;;;;;;;;;;;;;;;;;",
";;;;;;;;;;;;;;;;;;;;;;;;;;;;;;;;;;;;;;;;;;;",
";;;;;;;;;;;;;;;;;;;;;;;;;;;;;;;;;;;;;;;;;;;",
";;;;;;;;;;;;;;;;;;;;;;;;;;;;;;;;;;;;;;;;;;;",
";;;;;;;;;;;;;;;;;;;;;;;;;;;;;;;;;;;;;;;;;;;",
";;;;;;;;;;;;;;;;;;;;;;;;;;;;;;;;;;;;;;;;;;;",
";;;;;;;;;;;;;;;;;;;;;;;;;;;;;;;;;;;;;;;;;;;",
";;;;;;;;;;;;;;;;;;;;;;;;;;;;;;;;;;;;;;;;;;;",
";;;;;;;;;;;;;;;;;;;;;;;;;;;;;;;;;;;;;;;;;;;"
};
