/* XPM */
static char *button_[] = {
/* columns rows colors chars-per-pixel */
"43 43 75 1",
"  c #020103",
". c #0A0002",
"X c #0B0900",
"o c #00010D",
"O c #140000",
"+ c #1A0000",
"@ c #010214",
"# c #090C13",
"$ c #00021C",
"% c #270503",
"& c #210B00",
"* c #20090F",
"= c #2E1904",
"- c #241609",
"; c #3B1606",
": c #3A1409",
"> c #000520",
", c #000B25",
"< c #0A0F23",
"1 c #000A2C",
"2 c #041124",
"3 c #000D35",
"4 c #011134",
"5 c #67422F",
"6 c #69452B",
"7 c #624837",
"8 c #133649",
"9 c #1E3659",
"0 c #385467",
"q c #3B5878",
"w c #74715E",
"e c #435360",
"r c #455670",
"t c #6C7678",
"y c #8C6F47",
"u c #8C6B4A",
"i c #866B58",
"p c #87735B",
"a c #B09C7B",
"s c #67819A",
"d c #69839E",
"f c #6185A7",
"g c #AC9A84",
"h c #A99C8C",
"j c #B49583",
"k c #B59886",
"l c #A59E98",
"z c #93AAB8",
"x c #9BAABD",
"c c #A7A3A4",
"v c #D5BA9D",
"b c #D3BAAA",
"n c #EDD5B9",
"m c #8DABC5",
"M c #9DA7C2",
"N c #C0CCDC",
"B c #ECDBC1",
"V c #F2D8C1",
"C c #FFF5D4",
"Z c #FFF7DD",
"A c #FFFADB",
"S c #D6EBFF",
"D c #DAECFC",
"F c #D7F2FC",
"G c #D6FCFF",
"H c #FFF7E5",
"J c #FFFCE3",
"K c #FFFDEB",
"L c #E4EDF4",
"P c #E1F7FF",
"I c #E3FDFF",
"U c #EBFFFF",
"Y c #FEFDF4",
"T c #F4FFFE",
"R c #FFFFFE",
/* pixels */
"RRRRRRRRRRRRRRRRRRRRRTRRRRRRRRRRRRRRRRRRRRR",
"RRRRRRRRRRRYRRRRRRRRRRRRRRYRRRRRRRRRRRRRRRR",
"RRRRRRRRRRRRRRRRRYRRRTRRRYRRRRRRRRRRRRRRRRR",
"RRRRRRRRRRRRRRRRRRRRRRRRYRRRTTRRRRRRRRRRRRR",
"RRRRRRRRRRRRRRRRRRRRYRRRRRRRRRRRRRRRRRRRRRR",
"RRRRRRRRRRRRRRRRRRRRYYTRRRRRRTYRRRRRRRRRRRR",
"RRRRRRRRRRRRRRRRRRYYRYRRRRRRRRRRRRRRRRRRRRR",
"RRRRRRRRRRRRRRRRRRRRRRRRRRRRRRRRRRRRRRRRRRR",
"RRRRRRRRRRRRRRRRRTRRRYTRRYRRRRRRRRRRRRRRRRR",
"RRRRRRRRRRRRRRRYYYRTRRRRRRTRRRRYRRRRRRRRRRR",
"RRRRRRRRRRRRRYRKaO.    . o1SRTTTRRRRRRRRRRR",
"RRRRYRRYRRRRRRRKyOX   .o.o4STRTYRRRRRRRRRRR",
"RRRRRRRRRRRRRRYKuOeUTRYYRRTTTTRYRRRRRRRRRRR",
"RRRRRYRRRRRRRYYK6OsITYYYYYRRRRRRRRRRRRRRRRR",
"RRRRRYRRRRRRRYYH5OdITRRYRYRRRRRRRRRRRRRRRRR",
"RRRRYRRRRRRRRYYH;OxUTRRTRRTTRRRRRRRRRRRRRRR",
"RRRRYRRRRRRRRYKZ:+ct   oMTUTTTRRRRRRRRRRRRR",
"RRRRRTRRRRRRRYJB%O      @2FUTTRRRRRRRRRRRRR",
"RRRRRRRRRRTRRKAB*@@zTRYhO 8GTRRRRRRRRRRRRRR",
"RRRRYRRRRRRRYYHb.<FUTRYHv.$fTYRRRRRRRRRRRRR",
"RRRRRRRRRRRYRRYYRTTTRRYYZ7$9PTYRRRRRRRRRRRR",
"RRRRRRRRRYYRTRRRRRYYRRRYZj$3DTRRRRRRRRRRRRR",
"RRRRRRTRRRYTRTRRRYRYRRYYZj@3SUTYRRRRRRRRRRR",
"RRYRRRRRRYRRRRYRRRRTYRYYAi@9PTRRRRRRRRRRRRR",
"RRRRRRRRRRRRRYH-@rTTTRRKC=$qTRRTRRRRRRRRRRR",
"RYRRRRRRRRRRRYHio,DTTTRKg.$mRRRRRRRRRRRRRRR",
"YYRRRRRRRRRRYYHn&.@NTRKw @0UTRRRRRRRRRRRRRR",
"RRRRRRRRRRRRRRHHbO o  . o0UTTTRRRRRRRRRRRRR",
"RRRRRRRRRRRRRRTYYKl.oo #LTRRYYRYRRRRRRRRRRR",
"RRRRRTRRRRYRTTRRRRYYYYRRRTYYRRYRRRRRRRRRRRR",
"RRRRRRRRYYYRRRRRRRRYYYRRRRRTRYRRRRRRRRRRRRR",
"RRRRRRRRRRTTTRYYRRRRRYRRRRTTRTRRRRRRRRRRRRR",
"RRRRRRRRRRRRRRRRRRRRRRRRRRRRRRRRRRRRRRRRRRR",
"RRRRRRRRRRRRRRRRRRRRRRRRRRRRRRRRRRRRRRRRRRR",
"RRRRRRRRRRRRRRRRRRRRRRRRRRRRRRRRRRRRRRRRRRR",
"RRRRRRRRRRRRRRRRRRRRRRRRRRRRRRRRRRRRRRRRRRR",
"RRRRRRRRRRRRRRRRRRRRRRRRRRRRRRRRRRRRRRRRRRR",
"RRRRRRRRRRRRRRRRRRRRRRRRRRRRRRRRRRRRRRRRRRR",
"RRRRRRRRRRRRRRRRRRRRRRRRRRRRRRRRRRRRRRRRRRR",
"RRRRRRRRRRRRRRRRRRRRRRRRRRRRRRRRRRRRRRRRRRR",
"RRRRRRRRRRRRRRRRRRRRRRRRRRRRRRRRRRRRRRRRRRR",
"RRRRRRRRRRRRRRRRRRRRRRRRRRRRRRRRRRRRRRRRRRR",
"RRRRRRRRRRRRRRRRRRRRRRRRRRRRRRRRRRRRRRRRRRR"
};
