/* XPM */
static char *button_[] = {
/* columns rows colors chars-per-pixel */
"43 43 89 1",
"  c #020102",
". c #0C0101",
"X c #02010A",
"o c #08000D",
"O c #02080B",
"+ c #1A0700",
"@ c #1D0B03",
"# c #1E0A09",
"$ c #0F1106",
"% c #1F140E",
"& c #000214",
"* c #00031B",
"= c #250B00",
"- c #2E1900",
"; c #2F140B",
": c #020C24",
"> c #010329",
", c #070B2E",
"< c #021128",
"1 c #000C34",
"2 c #3C463E",
"3 c #5F4224",
"4 c #5F452C",
"5 c #544D3B",
"6 c #5C493A",
"7 c #694829",
"8 c #1D384B",
"9 c #1B3555",
"0 c #1F325A",
"q c #233343",
"w c #3D5861",
"e c #38586D",
"r c #3D5772",
"t c #3D5A78",
"y c #7F6D59",
"u c #405364",
"i c #455169",
"p c #85684A",
"a c #856F57",
"s c #866C5D",
"d c #8B7053",
"f c #83715B",
"g c #8B715D",
"h c #B3977F",
"j c #B5987A",
"k c #748096",
"l c #6784A6",
"z c #6A89A5",
"x c #AD9B85",
"c c #B69681",
"v c #99A7B0",
"b c #92A9BB",
"n c #D4BDAB",
"m c #DAC0A9",
"M c #CCC3BA",
"N c #E7D5BF",
"B c #F3DABB",
"V c #94ACC4",
"C c #8AB3D1",
"Z c #ABCEE4",
"A c #B7CFEB",
"S c #B7D1E0",
"D c #EFD8C6",
"F c #E9D8CE",
"G c #F7D7C0",
"H c #F3DAC0",
"J c #E2D9D0",
"K c #FFF3CE",
"L c #E5E6D4",
"P c #FFF6D4",
"I c #FFF9D6",
"U c #FFF7DD",
"Y c #FFFADC",
"T c #D3ECFC",
"R c #DBECFC",
"E c #D6F3FE",
"W c #DAF0FF",
"Q c #DBFCFF",
"! c #EEF3EC",
"~ c #FFF6E7",
"^ c #FFFDE3",
"/ c #FFFCEC",
"( c #E6E9FA",
") c #E2F5FF",
"_ c #E3FDFF",
"` c #ECFFFF",
"' c #FFFDF3",
"] c #F4FFFE",
"[ c #FFFFFE",
/* pixels */
"[[[[[[[[[[[[[[[[['[][[[[[[[[[[[[[[[[[[[[[[[",
"[[[[[[[[[[[[[[[[[[[['[][[[[['[[[[[[[[[[[[[[",
"[[[[[[[[[[[[[[[[[[[[[']][[[[[[[[[[[[[[[[[[[",
"[[[[[[[[[[[[[[[[[[[[[[[[[']]''[[[[[[[[[[[[[",
"[[[[[[[[[[[[[[[[[[[[[[]['[[]][[[[[[[[[[[[[[",
"[[[[[[[[[[[[[[[[[['[[[[[['[[[[[[[[[[[[[[[[[",
"[[['[[[[[[[[[[[[]][[[[[[[[[[[[[[[[[[[[[[[[[",
"[[[[[[[[[[[[[[[[][[[[[[[[[[[[[[[[[[[[[[[[[[",
"[[['[[[[[[[[[[[[[][[[][[[[[[[['[[[[[[[[[[[[",
"[[[[[[[[[[[[[[[[[[['[[[]][['[[[[[[[[[[[[[[[",
"[[[[[[[[[[[[[[[[['//'[[]``[[''[[[[[[[[[[[[[",
"[[[[[[[[[[[[[[[''~^y X Xu]][[[]][[[[[[[[[[[",
"[[[[[[[[[[[[['['^H+ XX .X*A`[[[[[[[[[[[[[[[",
"[[[[[[[[[[['[[['U-.Xv]'F#X9Q('[[[[[[[[[[[[[",
"[[[[[[[[[[[[''[/g.&V]['/H@*C]'[[[[[[[[[[[[[",
"[[[[[[[[[[[[[[/~;.r_]'['^6&e]['[[[[[[[[[[[[",
"[[[[[[[['[][['Un.&b`][[[['[][]'[[[[[[[[[[[[",
"'[[[[[[[[']`]'Ijo:W`][[[[[]][[[[[[[[[[[[[[[",
"[[[[[[[['[[[['PdXq!L$  Xi`]]][[[[[[[[[[[[[[",
"][[[[[[[[[[[['Pp q2     X*S`][[[[[[[[[[[[[[",
"[][[['[[['[[[/P7 **w[''J= :E]]['[[[[[[[[[[[",
"[[[[[[[[[[[[['K3 :Z`]''/H+*l`][[[[[[[[[[[[[",
"[[[[['[[[[[[[/Ia&t`]['[/Ug*0W]][[[[[[[[[[[[",
"[[[[[['[[[[[['If&9)]['['Yc*1T`['[[[[[[[[[[[",
"[[[[[[']][[[['Yxo:T`[[]'Yh&1R]][[[[[[[[[[[[",
"[[[[[''[[[[[[/^N=Xb`][['Us*9)]['[[[[[[[[[[[",
"[[[[['[][][[['/^4.,R]['/D%*z`[]'[[[[[[[[[[[",
"[[[[[[[[[][[[''/B=&>([[M. 8Q]['[[[[[[[[[[[[",
"'[[[[[[[][[[['['/n.     &:T`[['[[[[[[[[[[[[",
"[[[[[[[[[[[[][[]'~/5  O k`]][[[[[[[[[[[[[[[",
"'[[][[[[[[[[[[[['''[[['[[][['[[[[[[[[[[[[[[",
"[[[[[[[''[['[[[[[[[[[[][[[[[]][[[[[[[[[[[[[",
"[[[[[[[[[[[[[[[[[[[[[[[[[[[[[[[[[[[[[[[[[[[",
"[[[[[[[[[[[[[[[[[[[[[[[[[[[[[[[[[[[[[[[[[[[",
"[[[[[[[[[[[[[[[[[[[[[[[[[[[[[[[[[[[[[[[[[[[",
"[[[[[[[[[[[[[[[[[[[[[[[[[[[[[[[[[[[[[[[[[[[",
"[[[[[[[[[[[[[[[[[[[[[[[[[[[[[[[[[[[[[[[[[[[",
"[[[[[[[[[[[[[[[[[[[[[[[[[[[[[[[[[[[[[[[[[[[",
"[[[[[[[[[[[[[[[[[[[[[[[[[[[[[[[[[[[[[[[[[[[",
"[[[[[[[[[[[[[[[[[[[[[[[[[[[[[[[[[[[[[[[[[[[",
"[[[[[[[[[[[[[[[[[[[[[[[[[[[[[[[[[[[[[[[[[[[",
"[[[[[[[[[[[[[[[[[[[[[[[[[[[[[[[[[[[[[[[[[[[",
"[[[[[[[[[[[[[[[[[[[[[[[[[[[[[[[[[[[[[[[[[[["
};
