/* XPM */
static char *button_[] = {
/* columns rows colors chars-per-pixel */
"43 43 199 2",
"   c black",
".  c #010000",
"X  c #000100",
"o  c #030000",
"O  c #030100",
"+  c #000002",
"@  c #030002",
"#  c #040000",
"$  c #050000",
"%  c #060000",
"&  c #070000",
"*  c #070002",
"=  c #000104",
"-  c #040004",
";  c #080000",
":  c #090001",
">  c #0D0000",
",  c #0F0000",
"<  c #00000B",
"1  c #00020F",
"2  c #110000",
"3  c #140000",
"4  c #1D0900",
"5  c #000310",
"6  c #020113",
"7  c #000417",
"8  c #000517",
"9  c #040716",
"0  c #000119",
"q  c #000718",
"w  c #00071C",
"e  c #04091D",
"r  c #000C1D",
"t  c #240900",
"y  c #260D00",
"u  c #361703",
"i  c #34190E",
"p  c #231812",
"a  c #351810",
"s  c #000620",
"d  c #000822",
"f  c #000D27",
"g  c #00132C",
"h  c #60462D",
"j  c #1A324C",
"k  c #1C364D",
"l  c #263747",
"z  c #22364E",
"x  c #223351",
"c  c #5E4A41",
"v  c #766D4E",
"b  c #7C7656",
"n  c #876F53",
"m  c #896E53",
"M  c #6C829A",
"N  c #6C869D",
"B  c #72849C",
"V  c #B99680",
"C  c #B89984",
"Z  c #B19788",
"A  c #DFBCA6",
"S  c #D5C1A6",
"D  c #DAC2AA",
"F  c #EDD4BE",
"G  c #F9D6B6",
"H  c #FADCB8",
"J  c #8AA7C5",
"K  c #8FADC9",
"L  c #8BAECC",
"P  c #94A8CD",
"I  c #B7D0E4",
"U  c #BBD0E3",
"Y  c #BAD1E3",
"T  c #FFF0D6",
"R  c #FFF8D6",
"E  c #FFF9D7",
"W  c #FFF5DD",
"Q  c #FFFBDD",
"!  c #FFFBDF",
"~  c #FFFFDD",
"^  c #D0EFFF",
"/  c #D6EEFF",
"(  c #CDF2FF",
")  c #D7F3FF",
"_  c #FFF4E0",
"`  c #FFF3E4",
"'  c #FEF5E6",
"]  c #FFF9E2",
"[  c #FFFBEA",
"{  c #FFFCEB",
"}  c #FFFEEA",
"|  c #FFFFEA",
" . c #FFF8EF",
".. c #FFFAEE",
"X. c #FFFDEC",
"o. c #FFFFEC",
"O. c #FFFDEF",
"+. c #E5F7FF",
"@. c #EFF6FC",
"#. c #EEF7FE",
"$. c #E2F9FF",
"%. c #E7F8FF",
"&. c #E6FFFF",
"*. c #E8FFFF",
"=. c #E9FFFF",
"-. c #EBFFFF",
";. c #EEFFFF",
":. c #EFFFFF",
">. c #FFF7F1",
",. c #F7FCF6",
"<. c #FFF9F3",
"1. c #FFFAF3",
"2. c #FFFCF1",
"3. c #FFFEF1",
"4. c #FFFDF2",
"5. c #FFFDF3",
"6. c #FFFFF3",
"7. c #FFF8F7",
"8. c #FFFCF4",
"9. c #FFFEF4",
"0. c #FFFFF4",
"q. c #FFFEF5",
"w. c #FDFCF7",
"e. c #FFFCF6",
"r. c #FFFCF7",
"t. c #FFFDF7",
"y. c #FFFEF6",
"u. c #FFFFF6",
"i. c #F3FBFE",
"p. c #F7FBFC",
"a. c #F7FBFE",
"s. c #F1FFFF",
"d. c #F2FFFF",
"f. c #F3FFFF",
"g. c #F4FFFF",
"h. c #F5FFFF",
"j. c #F7FEFF",
"k. c #F6FFFF",
"l. c #F7FFFF",
"z. c #FFFBFA",
"x. c #FAFCF9",
"c. c #FFFDF8",
"v. c #FFFEF8",
"b. c #FEFFF8",
"n. c #FFFFF8",
"m. c #FFFEF9",
"M. c #FCFCFA",
"N. c #FFFCFB",
"B. c #FEFDFB",
"V. c #FCFFFB",
"C. c #FFFEFA",
"Z. c #FEFFFA",
"A. c #FFFFFA",
"S. c #FFFEFB",
"D. c #FEFFFB",
"F. c #FFFFFB",
"G. c #FBFAFF",
"H. c #FAFBFF",
"J. c #FDFBFC",
"K. c #FDFBFE",
"L. c #FCFBFF",
"P. c #FDFBFF",
"I. c #FFFAFE",
"U. c #FFFBFF",
"Y. c #F8FCFF",
"T. c #F9FDFF",
"R. c #FBFCFF",
"E. c #F8FFFF",
"W. c #F9FFFF",
"Q. c #FBFFFE",
"!. c #FAFFFF",
"~. c #FBFFFF",
"^. c gray99",
"/. c #FDFDFD",
"(. c #FFFDFC",
"). c #FEFCFD",
"_. c #FFFDFD",
"`. c #FDFFFC",
"'. c #FCFEFD",
"]. c #FCFFFD",
"[. c #FFFEFC",
"{. c #FFFEFD",
"}. c #FEFFFD",
"|. c #FFFFFD",
" X c #FDFCFF",
".X c #FCFDFF",
"XX c #FDFDFF",
"oX c #FFFDFE",
"OX c #FFFCFF",
"+X c #FEFDFF",
"@X c #FFFDFF",
"#X c #FDFFFE",
"$X c #FDFEFF",
"%X c #FCFFFF",
"&X c #FEFEFE",
"*X c #FEFEFF",
"=X c #FFFEFF",
"-X c #FEFFFF",
";X c gray100",
/* pixels */
"b.b.V.'.;X;Xb.;Xb.;X;X;X;X;X;X;X;X;X;X;X;X;X'.'.;X;X;X;X;X;X;X;X;X;X;X;X;X;X;X;X;X;X;X",
";X;X;X;X;X;X;X;X;Xb.;XI.;X;X;X'.b.;X;X;X;X'.;X;X;X;XI.;X;X;X;X;X;X;X;X;X;X;X;X;X;X;X;X",
";X;X;XI.;XI.;XI.;XI.;X;X;X'.'.'.;Xb.;X;X'.'.;X;X;X;X;X;X;X;X;X;X;X;X;X;X;X;X;X;X;X;X;X",
"I.I.;X;X;X;X;X;X;X;X;Xb.V.'.'.'.;X;X;X;X'.'.;X;Xb.;X;X'.;X;XI.;X;X;X;X;X;X;X;X;X;X;X;X",
";X;X;X;X;XI.;X;Xb.;Xb.b.;X'.;X;Xb.;X;X;X'.'.;X;Xb.;X'.'.;Xb.;X;X;X;X;X;X;X;X;X;X;X;X;X",
";X'.;X;X;X;X;X;X;Xb.;X;X;X;X;X;X;X;X;X'.'.'.;X;X;X;X'.'.;Xb.;X;X;X;X;X;X;X;X;X;X;X;X;X",
"V.V.'.;X;X;X;X;X;X;X;X;X;Xb.4.9.b.;X;X;X;X;X'.;X;Xb.'.'.;Xb.b.;X;X;X;X;X;X;X;X;X;X;X;X",
"'.'.V.;X;Xb.;X;X;X;XI.;X;Xb.9.9.b.'.'.;X;X;X;X'.;X;X'.;X;X;X;X;X;X;X;X;X;X;X;X;X;X;X;X",
";X;Xb.;Xb.;X;XI.;X'.'.'.;X'.;X;X'.'.;X;Xb.;X;X;X;XG.;X;X'.;X'.'.;X;X;X;X;X;X;X;X;X;X;X",
";X;X;Xz.z.;X;X;X;X'.'.'.'.;X;XG.'.'.;Xb.I.b.b.;X'.'.;X;X'.p.;X;X;X;X;X;X;X;X;X;X;X;X;X",
";X;X;Xb.;X;X;X;X'.'.,.'.M.;XI.;X'.'.;Xb.b.b.z.;Xl.'.G.;X'.'.p.'.;X;X;X;X;X;X;X;X;X;X;X",
";X;X;XI.;XI.b.;X'.'.;X'.z.9.w.<.;X'.;X;Xb.;X;X;X;Xp.l.l.:.'.'.'.;X;X;X;X;X;X;X;X;X;X;X",
"'.'.'.;X;X;X;X;X;X'.I.;X4.} ~ b             $ $ $   5 l @.'.;X'.;X;X;X;X;X;X;X;X;X;X;X",
"l.'.;X;Xb.;Xb.;X;X'.;X;X9.} ~ v $   =   = =   ; > $ w k @.;X'.'.;X;X;X;X;X;X;X;X;X;X;X",
";X;Xb.b.;X;X;X;X;X;X'.b.b.w.>.w.b.b.;X'.'.'.;X9.` p s L l.z.;X;X;X;X;X;X;X;X;X;X;X;X;X",
";X;X;Xb.b.b.;X;X'.;X;X;X;X;XI.I.b.;X;X'.;X;Xb.O.Z ; g ( l.;X;X;X;X;X;X;X;X;X;X;X;X;X;X",
";X;Xb.;X;Xb.;X;X;X;X;X;X;X;X;X;X;X;X;X;X;XI.} ] c $ N &.l.I.;Xb.;X;X;X;X;X;X;X;X;X;X;X",
";X;X;X;X;X;X;X;X;X;X;X;X;X;X;X;Xz.;X;XG.I.w.Q S $ 9 Y &.'.;XM.;X;X;X;X;X;X;X;X;X;X;X;X",
";X;X;X;X;X;X;X;X;X;X;X;X;X;X;X;Xb.M.'.;X;Xw.E n < z +.l.;XG.;X'.'.;X;X;X;X;X;X;X;X;X;X",
";X;X;X;X;X;X;X;X;X;X;X;X;X;X;X;Xb.;X;XG.;X4.G y q J d.'.;X;X'.'.;X;X;X;X;X;X;X;X;X;X;X",
";X;X;X;X;X;X;X;X;X;X;X;X;X;X;X;X;XI.;X;X9.[ V 2 f ^ d.,.;X;XI.;X;X;X;X;X;X;X;X;X;X;X;X",
";X;X;X;X;X;X;X;X;X;X;X;X;X;X;X;X;X;X;X9.O._ i ; M &.l.b.;X;X;X'.;X;X;X;X;X;X;X;X;X;X;X",
";X;X;X;X;X;X;X;X;X;X;X;X;X;X;X;X'.G.;X<.Q D $ e I *.l.G.;XI.G.;X;X;X;X;X;X;X;X;X;X;X;X",
";X;X;X;X;X;X;X;X;X;X;X;X;X;X;X;X;X;X;X .R h 6 x $.d.'.;X'.;X;X;X;X;X;X;X;X;X;X;X;X;X;X",
";X;X;X;X;X;X;X;X;X;X;X;X;X;X;X;X;Xz.;X{ H t 0 P d.l.'.;X'.'.;X;X;X;X;X;X;X;X;X;X;X;X;X",
";X;X;X;X;X;X;X;X;X;X;X;X;X;X;X;Xz.;X9.O.m 2 s / d.'.;X;X'.'.;X;X;X;X;X;X;X;X;X;X;X;X;X",
";X;X;X;X;X;X;X;X;X;X;X;X;X;X;X;X'.;X{ F 4   B *.l.;X;X;X'.;X;XI.;X;X;X;X;X;X;X;X;X;X;X",
";X;X;X;X;X;X;X;X;X;X;X;X;X;X;X;Xl.w.W C ; q I :.'.;Xb.;X;X'.;Xb.;X;X;X;X;X;X;X;X;X;X;X",
";X;X;X;X;X;X;X;X;X;X;X;X;X;X;X;X'.9.T u 5 j +.l.I.;X;X'.'.;X;X;X;X;X;X;X;X;X;X;X;X;X;X",
";X;X;X;X;X;X;X;X;X;X;X;X;X;X;X;XM.4.A 2 9 K d.;X;Xb.;X'.;X;X;X;X;X;X;X;X;X;X;X;X;X;X;X",
";X;X;X;X;X;X;X;X;X;X;X;X;X;X;Xb.4.' a > e ) l.;X;X;X;X;Xb.;XI.'.;X;X;X;X;X;X;X;X;X;X;X",
";X;X;X;X;X;X;X;X;X;X;X;X;X;X;Xb.4.4.z.I.d.:.'.'.;X;X;X;Xb.;X;X'.;X;X;X;X;X;X;X;X;X;X;X",
";X;X;X;X;X;X;X;X;X;X;X;X;X;X;X;Xb.b.I.;X'.'.;X;X;X;X;X;X;X;X;X'.;X;X;X;X;X;X;X;X;X;X;X",
";X;X;X;X;X;X;X;X;X;X;X;X;X;X;X;X;X;X;X;X;X;X;X;X;X;X;X;X;X;X;X;X;X;X;X;X;X;X;X;X;X;X;X",
";X;X;X;X;X;X;X;X;X;X;X;X;X;X;X;X;X;X;X;X;X;X;X;X;X;X;X;X;X;X;X;X;X;X;X;X;X;X;X;X;X;X;X",
";X;X;X;X;X;X;X;X;X;X;X;X;X;X;X;X;X;X;X;X;X;X;X;X;X;X;X;X;X;X;X;X;X;X;X;X;X;X;X;X;X;X;X",
";X;X;X;X;X;X;X;X;X;X;X;X;X;X;X;X;X;X;X;X;X;X;X;X;X;X;X;X;X;X;X;X;X;X;X;X;X;X;X;X;X;X;X",
";X;X;X;X;X;X;X;X;X;X;X;X;X;X;X;X;X;X;X;X;X;X;X;X;X;X;X;X;X;X;X;X;X;X;X;X;X;X;X;X;X;X;X",
";X;X;X;X;X;X;X;X;X;X;X;X;X;X;X;X;X;X;X;X;X;X;X;X;X;X;X;X;X;X;X;X;X;X;X;X;X;X;X;X;X;X;X",
";X;X;X;X;X;X;X;X;X;X;X;X;X;X;X;X;X;X;X;X;X;X;X;X;X;X;X;X;X;X;X;X;X;X;X;X;X;X;X;X;X;X;X",
";X;X;X;X;X;X;X;X;X;X;X;X;X;X;X;X;X;X;X;X;X;X;X;X;X;X;X;X;X;X;X;X;X;X;X;X;X;X;X;X;X;X;X",
";X;X;X;X;X;X;X;X;X;X;X;X;X;X;X;X;X;X;X;X;X;X;X;X;X;X;X;X;X;X;X;X;X;X;X;X;X;X;X;X;X;X;X",
";X;X;X;X;X;X;X;X;X;X;X;X;X;X;X;X;X;X;X;X;X;X;X;X;X;X;X;X;X;X;X;X;X;X;X;X;X;X;X;X;X;X;X"
};
