/* XPM */
static char *button_[] = {
/* columns rows colors chars-per-pixel */
"43 43 86 1",
"  c #030001",
". c #0B0000",
"X c #01030C",
"o c #110100",
"O c #180000",
"+ c #1E0D00",
"@ c #000016",
"# c #00041B",
"$ c #010B1B",
"% c #1B0A12",
"& c #03111E",
"* c #260A00",
"= c #221101",
"- c #2F1504",
"; c #29190A",
": c #301400",
"> c #351900",
", c #38170E",
"< c #2C1811",
"1 c #000B22",
"2 c #060B28",
"3 c #000D32",
"4 c #65472D",
"5 c #63482D",
"6 c #1F3C4E",
"7 c #1E3557",
"8 c #3E5366",
"9 c #36556A",
"0 c #3C566F",
"q c #3A5777",
"w c #444F6B",
"e c #445765",
"r c #866A54",
"t c #876A58",
"y c #906C52",
"u c #887356",
"i c #85705D",
"p c #767C8C",
"a c #658399",
"s c #A79B85",
"d c #A69A8E",
"f c #B19681",
"g c #B09C84",
"h c #9BABAA",
"j c #8FAABD",
"k c #9DACBF",
"l c #A8A7B7",
"z c #DABEA2",
"x c #D8BFAB",
"c c #CCBEB4",
"v c #C6BFBA",
"b c #CCC1AD",
"n c #D0C4B6",
"m c #8EA9C6",
"M c #8FACCC",
"N c #9BA9C4",
"B c #93A7C8",
"V c #90A9C8",
"C c #9EAEC8",
"Z c #BDCBD6",
"A c #B4CDEB",
"S c #B2D1EB",
"D c #EADBC6",
"F c #E6DFCC",
"G c #EBDCCA",
"H c #FFEEC8",
"J c #FFF0CB",
"K c #FFEED5",
"L c #FFF3D2",
"P c #FFF5DC",
"I c #FFFBDB",
"U c #D4EDFF",
"Y c #DBEDFF",
"T c #D5F2FE",
"R c #DAF9FF",
"E c #FFF6E5",
"W c #FFFBE5",
"Q c #FFF2E8",
"! c #FFFBEC",
"~ c #E0EEFB",
"^ c #E3F6FC",
"/ c #E3FFFF",
"( c #EBFFFF",
") c #FEFDF4",
"_ c #F4FEFE",
"` c #FEFFFE",
/* pixels */
"``````_``````````)````))``_````````````````",
"`````````````````````)```_`````````````````",
"```````````````````````````````````````````",
"````````````````````)``````````````````````",
"``````````))`````````)``````)_`````````````",
"```````))```````````)``````````````````````",
"`````)`))``````````))``````````````````````",
"`````````````````_`````````````````````````",
"````)`````)````___```````)```))````````````",
"``_````````````````)_`````````)````````````",
"`````)``````````))!!)``__`_````````````````",
"```````````````))!n.   XN^___`_````````````",
"````)````````))!K: XX   @1U(_`_````````````",
"````````_``)`))EyOXj_)!c.X9^_``````````````",
"````)```````)))G* a(``)!g 1A_`Q````````````",
"````````````)QEb.XVR_)`Eb.@B```````````````",
"````````__)``!!D*.mR_)!!z.1S_)`````````````",
"``````````````)!t.$R(_)Q< 8(_``````````````",
"``````````````))E:o h_v.@1~_```_```````````",
")````)```))``_``WWroXX  w(_````````````````",
"````````)))`_```WP,oXX..&U___`__```````````",
"`````````)))``)Qs.. l`v  XN___`)```````````",
"_`````````_`_)Wb Xe__``)u.@B_)))```````````",
"``)```````__`)K5X6R(``_)L5@7^_`````````````",
"```````_`````QH:Xa(__`_)If@3T(`````````````",
"```````````_`!H>X0_```))Ii@3T(_````````````",
"`````_``)````QEtX2Y(_))WL;#q(``````````````",
")`)``````_````WG%X$Z`)!F= #S_``````````````",
"````````)`)```))c..     X@C(_``````````````",
")````)````)````)))d.    p`___`^````````````",
"````)```)`)``)``))````)``_```_`````````````",
"````````````````````)```_```))`````````````",
"```````````````````````````````````````````",
"```````````````````````````````````````````",
"```````````````````````````````````````````",
"```````````````````````````````````````````",
"```````````````````````````````````````````",
"```````````````````````````````````````````",
"```````````````````````````````````````````",
"```````````````````````````````````````````",
"```````````````````````````````````````````",
"```````````````````````````````````````````",
"```````````````````````````````````````````"
};
