/* XPM */
static char *button_[] = {
/* columns rows colors chars-per-pixel */
"43 43 89 1",
"  c #030002",
". c #0B0001",
"X c #01010B",
"o c #090008",
"O c #000908",
"+ c #110000",
"@ c #180000",
"# c #1F0800",
"$ c #000212",
"% c #01041B",
"& c #00091C",
"* c #1D0E11",
"= c #210700",
"- c #210D02",
"; c #2E1800",
": c #371806",
"> c #3A160A",
", c #2F1810",
"< c #301611",
"1 c #341815",
"2 c #030824",
"3 c #090925",
"4 c #001025",
"5 c #00102E",
"6 c #59482E",
"7 c #594A37",
"8 c #5C4D3A",
"9 c #67472E",
"0 c #684434",
"q c #634932",
"w c #604238",
"e c #65483A",
"r c #18305C",
"t c #233543",
"y c #203763",
"u c #3E4B41",
"i c #3F4F68",
"p c #3A546D",
"a c #375A6E",
"s c #365371",
"d c #3C5476",
"f c #3C5876",
"g c #766E57",
"h c #434E60",
"j c #465461",
"k c #445A71",
"l c #7C7467",
"z c #856B54",
"x c #866C5F",
"c c #85705B",
"v c #B69471",
"b c #B39579",
"n c #6B849D",
"m c #668AA2",
"M c #B0958C",
"N c #90B0BF",
"B c #D6BD9E",
"V c #D7BBA3",
"C c #DCBEA6",
"Z c #DCBFAD",
"A c #CEBDB3",
"S c #F0DCBB",
"D c #89A9C0",
"F c #BACECD",
"G c #BFC6D6",
"H c #BDCFDB",
"J c #B0C7E6",
"K c #B2CDE0",
"L c #B5CCEB",
"P c #B7D1E2",
"I c #B1D2F1",
"U c #ECDAC4",
"Y c #FFF2D3",
"T c #FFF4DD",
"R c #FFFBDB",
"E c #D8EAFE",
"W c #D0F5FF",
"Q c #DAFBFF",
"! c #FFF5E2",
"~ c #FFFCE3",
"^ c #FFF7ED",
"/ c #FFFDEC",
"( c #E7E9F8",
") c #E3FFFF",
"_ c #ECFFFF",
"` c #FEFEF5",
"' c #FBF6FA",
"] c #F4FFFF",
"[ c #FFFFFF",
/* pixels */
"[[[[[[[[[[[[[[[[[[[[][[['[[`[[[[[[[[[[[[[[[",
"[[[[[[[[[[[[[[[[[[[][[[[[[[[[[[[[[[[[[[[[[[",
"[[[[[[[[[[[[[[[[[[[[[`[[[['`[[[[[[[[[[[[[[[",
"[[[[[[[[[[[[[[[[`[[[['[[[[[[[[[[[[[[[[[[[[[",
"[[[[[[[[[[[[[[[[[[[[[[[[[[`[[[[[[[[[[[[[[[[",
"[[[[[[[[[[[[[[[[[[[[[[[[[[[[`[[[[[[[[[[[[[[",
"[[[[[[[[[[[[[[[[`[[[[[[[[[[[`[[[[[[[[[[[[[[",
"[[[[[[[[[[[[[[[[[[][[[`[[[[[[`[[[[[[[[[[[[[",
"[[[[[[[[[[[[[[[[['[[`[`]['[[[[[[[[[[[[[[[[[",
"[[[[[[[[[[[[[[[[[```[][[[[][[['[[[[[[[[[[[[",
"[[[[[[[[[[[[[`[[`/^M .  j__]['[[[[[[[[[[[[[",
"[[[[[[[[[[[[[[``/!,+o   X$N)[['[[[[[[[[[[[[",
"[[[[[[[[[[[[`[[/Rqo2G[`~< 2I][['[[[[[[[[[[[",
"[`[[[[[[[[[`[`[/v@%L]]]/T12d_][[[[[[[[[[[[[",
"[[[[[[[[[[[[[``^9.k)]'[/TZ.%P_][[[[[[[[[[[[",
"[[[[[[[[[[`[`[`^:.n)[[[`~T<on)'[[[[[[[[[[[[",
"[[[[[[[[[[[``[`^>+n)][[`/~w+pQ[[[[[[[[[[[[[",
"[[[[[[[[[[[[[`[`0+h_][[`/Re.k)_[[[[[[[[[[[[",
"[[[[[[[[[[[`[``/b@&L__[^RS#XyQ_[[[[[[[[[[[[",
"[[[[[[[[[[[[[[[/Y; %H][[g.+ rQ_`[[[[[[[[[[[",
"`[[[[[[[[[[[[[[`/U#+ $$XOu8 f)]`[[[[[[[[[[[",
"[[[[[[[[[[[[[[[`//!x XXOF]7.aQ[`[[[[[[[[[[[",
"[[[[[[[[[[[[[[[[[[/`[][[/U- mQ][[[[[[[[[[[[",
"[[[[[[[[[[[[[[[[`[[[[[`^RC.$D_][[[[[[[[[[[[",
"[`[[[[[[[[[[[[[`c.tQ][[/YzX5E]][[[[[[[[[[[[",
"[[[[[[[[[[[[[[[`B+&J[[`/V+%s][[[[[[[[[[[[[[",
"[[[[[[[[[[[[[[[`R6X3([`A.X4W_][[[[[[[[[[[[[",
"[[[[[[[[[[[[[[[`~U*oX ..X&K_]'[[[[[[[[[[[[[",
"[[[[[[[[[[[[[[['``/l    h_[][['[[[[[[[[[[[[",
"[[[[[[[[[[[[[[[[[[/~`[[[]]'[[[[[[[[[[[[[[[[",
"[[[[[[[[[[[[[[[['[``][]`[[[[[[[`[[[[[[[[[[[",
"[[[[[[[[[`[[[[[[[[[[[]`[[`[['[`][[[[[[[[[[[",
"[[[[[[[[[[[[[[[[[[[[[[[[[[[[[[[[[[[[[[[[[[[",
"[[[[[[[[[[[[[[[[[[[[[[[[[[[[[[[[[[[[[[[[[[[",
"[[[[[[[[[[[[[[[[[[[[[[[[[[[[[[[[[[[[[[[[[[[",
"[[[[[[[[[[[[[[[[[[[[[[[[[[[[[[[[[[[[[[[[[[[",
"[[[[[[[[[[[[[[[[[[[[[[[[[[[[[[[[[[[[[[[[[[[",
"[[[[[[[[[[[[[[[[[[[[[[[[[[[[[[[[[[[[[[[[[[[",
"[[[[[[[[[[[[[[[[[[[[[[[[[[[[[[[[[[[[[[[[[[[",
"[[[[[[[[[[[[[[[[[[[[[[[[[[[[[[[[[[[[[[[[[[[",
"[[[[[[[[[[[[[[[[[[[[[[[[[[[[[[[[[[[[[[[[[[[",
"[[[[[[[[[[[[[[[[[[[[[[[[[[[[[[[[[[[[[[[[[[[",
"[[[[[[[[[[[[[[[[[[[[[[[[[[[[[[[[[[[[[[[[[[["
};
