/* XPM */
static char *button_[] = {
/* columns rows colors chars-per-pixel */
"43 43 19 1",
"  c black",
". c #3A0000",
"X c #00003A",
"o c #660000",
"O c #000066",
"+ c #903A00",
"@ c #B66600",
"# c #DB903A",
"$ c #FFB666",
"% c #003A90",
"& c #0066B6",
"* c #3A90DB",
"= c #66B6FF",
"- c #FFDB90",
"; c #FFFFB6",
": c #90DBFF",
"> c #FFFFDB",
", c #DBFFFF",
"< c gray100",
/* pixels */
"<<<<<<<<<<<<<<<<<<<<<<<<<<<<<<<<<<<<<<<<<<<",
"<<<<<<<<<<<<<<<<<<<<<<<<<<<<<<<<<<<<<<<<<<<",
"<<<<<<<<<<<<<<<<<<<<<<<<<<<<<<<<<<<<<<<<<<<",
"<<<<<<<<<<<<<<<<<<<<<<<<<<<<<<<<<<<<<<<<<<<",
"<<<<<<<<<<<<<<<<<<<<<<<<<<<<<<<<<<<<<<<<<<<",
"<<<<<<<<<<<<<<<<<<<<<<<<<<<<<<<<<<<<<<<<<<<",
"<<<<<<<<<<<<<<<<<<<<<<<<<<<<<<<<<<<<<<<<<<<",
"<<<<<<<<<<<<<<<<<<<<<<<<<<<<<<<<<<<<<<<<<<<",
"<<<<<<<<<<<<<<<<<<<<<<<<<<<<<<<<<<<<<<<<<<<",
"<<<<<<<<<<<<<<<<<<<<<<<<<<<<<<<<<<<<<<<<<<<",
"<<<<<<<<<<<<<<<<<<<<<<<<<<<<<<<<<<<<<<<<<<<",
"<<<<<<<<<<<<<<<<<<<<<<<<<<<<<<<<<<<<<<<<<<<",
"<<<<<<<<<<<<<<<<<<+     O<<<<<<<<<<<<<<<<<<",
"<<<<<<<<<<<<<<<<<#  &<@  &<<<<<<<<<<<<<<<<<",
"<<<<<<<<<<<<<<<<<  *<<<$  <<<<<<<<<<<<<<<<<",
"<<<<<<<<<<<<<<<<$  <<<<<  *<<<<<<<<<<<<<<<<",
"<<<<<<<<<<<<<<<<o %<<<<<+ O<<<<<<<<<<<<<<<<",
"<<<<<<<<<<<<<<<<  *<<<<<#  <<<<<<<<<<<<<<<<",
"<<<<<<<<<<<<<<<<  :<<<<<-  <<<<<<<<<<<<<<<<",
"<<<<<<<<<<<<<<<<  :<<<<<-  ,<<<<<<<<<<<<<<<",
"<<<<<<<<<<<<<<<>  :<<<<<;  ,<<<<<<<<<<<<<<<",
"<<<<<<<<<<<<<<<<  :<<<<<-  ,<<<<<<<<<<<<<<<",
"<<<<<<<<<<<<<<<<  :<<<<<-  <<<<<<<<<<<<<<<<",
"<<<<<<<<<<<<<<<<  =<<<<<$  <<<<<<<<<<<<<<<<",
"<<<<<<<<<<<<<<<<. &<<<<<@ X<<<<<<<<<<<<<<<<",
"<<<<<<<<<<<<<<<<#  <<<<<  *<<<<<<<<<<<<<<<<",
"<<<<<<<<<<<<<<<<<  =<<<$  <<<<<<<<<<<<<<<<<",
"<<<<<<<<<<<<<<<<<@  &<@  &<<<<<<<<<<<<<<<<<",
"<<<<<<<<<<<<<<<<<<o     O<<<<<<<<<<<<<<<<<<",
"<<<<<<<<<<<<<<<<<<<<   <<<<<<<<<<<<<<<<<<<<",
"<<<<<<<<<<<<<<<<<<<<<<<<<<<<<<<<<<<<<<<<<<<",
"<<<<<<<<<<<<<<<<<<<<<<<<<<<<<<<<<<<<<<<<<<<",
"<<<<<<<<<<<<<<<<<<<<<<<<<<<<<<<<<<<<<<<<<<<",
"<<<<<<<<<<<<<<<<<<<<<<<<<<<<<<<<<<<<<<<<<<<",
"<<<<<<<<<<<<<<<<<<<<<<<<<<<<<<<<<<<<<<<<<<<",
"<<<<<<<<<<<<<<<<<<<<<<<<<<<<<<<<<<<<<<<<<<<",
"<<<<<<<<<<<<<<<<<<<<<<<<<<<<<<<<<<<<<<<<<<<",
"<<<<<<<<<<<<<<<<<<<<<<<<<<<<<<<<<<<<<<<<<<<",
"<<<<<<<<<<<<<<<<<<<<<<<<<<<<<<<<<<<<<<<<<<<",
"<<<<<<<<<<<<<<<<<<<<<<<<<<<<<<<<<<<<<<<<<<<",
"<<<<<<<<<<<<<<<<<<<<<<<<<<<<<<<<<<<<<<<<<<<",
"<<<<<<<<<<<<<<<<<<<<<<<<<<<<<<<<<<<<<<<<<<<",
"<<<<<<<<<<<<<<<<<<<<<<<<<<<<<<<<<<<<<<<<<<<"
};
